<svg width="16" height="16" viewBox="0 0 16 16" xmlns="http://www.w3.org/2000/svg">
<path fill-rule="evenodd" clip-rule="evenodd" d="M15.1871 1.14645C15.3823 1.34171 15.3824 1.65829 15.1871 1.85355L11.3741 5.6665H14.1669C14.443 5.6665 14.6669 5.89036 14.6669 6.1665C14.6669 6.44265 14.443 6.6665 14.1669 6.6665H10.1797C10.0475 6.66987 9.9142 6.62111 9.81332 6.52022C9.74848 6.45539 9.70518 6.37718 9.6834 6.29448C9.6749 6.26229 9.66953 6.22883 9.66764 6.19444C9.66712 6.18507 9.66686 6.1757 9.66687 6.16632V2.1665C9.66687 1.89036 9.89073 1.6665 10.1669 1.6665C10.443 1.6665 10.6669 1.89036 10.6669 2.1665V4.95956L14.48 1.14645C14.6752 0.951184 14.9918 0.951184 15.1871 1.14645ZM3.4775 4.6796H3.4775C3.56632 4.67489 3.65334 4.67027 3.73257 4.6672C3.98463 4.65745 4.21802 4.65889 4.42103 4.69043C4.62534 4.72218 4.75843 4.77857 4.84145 4.84716C4.91119 4.90477 4.98248 5.00033 5.00905 5.20349C5.07666 5.76376 5.20187 6.31429 5.38251 6.84466L5.38288 6.84572C5.45733 7.06272 5.41714 7.24066 5.28031 7.45399C5.1656 7.63285 5.02106 7.7837 4.84974 7.96252L4.84973 7.96253C4.77927 8.03607 4.70428 8.11434 4.62497 8.20123C4.48365 8.35605 4.45391 8.58258 4.55047 8.76864C5.3028 10.2182 6.40144 11.4244 7.7353 12.2553C7.93995 12.3828 8.20642 12.3461 8.36897 12.168C8.44909 12.0802 8.52103 11.9975 8.58843 11.92L8.58844 11.92C8.75098 11.7331 8.88712 11.5765 9.04801 11.4527C9.23657 11.3075 9.3563 11.2892 9.50233 11.3494L9.50352 11.3499C9.99449 11.5506 10.5052 11.6902 11.026 11.7657C11.1836 11.7905 11.2624 11.8537 11.3196 11.9364C11.3902 12.0387 11.4462 12.2024 11.4758 12.4425C11.5049 12.6784 11.5038 12.9453 11.493 13.226C11.4896 13.3118 11.4851 13.4028 11.4806 13.4946L11.4806 13.4948C11.4713 13.6819 11.4618 13.8726 11.4618 14.0315L11.4618 14.0334C11.4632 14.4175 11.1558 14.652 10.9229 14.6319C6.57808 14.1114 2.9714 10.1746 2.50193 5.34959C2.47202 4.96624 2.764 4.69775 3.00119 4.6975L3.00067 4.19756V4.6975C3.1399 4.6975 3.31182 4.68838 3.4775 4.6796ZM6.00107 5.07742C5.94607 4.65109 5.7658 4.31368 5.47835 4.07621C5.20398 3.84955 4.87406 3.74882 4.57455 3.70229C4.27374 3.65555 3.9625 3.65756 3.69392 3.66795C3.57698 3.67248 3.474 3.67808 3.38014 3.68319L3.3801 3.6832C3.23833 3.69092 3.11739 3.6975 3.00067 3.6975L3.00016 3.6975C2.07956 3.69845 1.43426 4.57047 1.50557 5.43493L1.50552 5.43494L1.50621 5.44207C2.01348 10.6754 5.93467 15.0451 10.8107 15.6256L10.8107 15.6257L10.8206 15.6266C11.7445 15.7181 12.4644 14.9028 12.4618 14.0308C12.4618 14.0311 12.4618 14.0313 12.4618 14.0315H11.9619L12.4618 14.0297C12.4618 14.0301 12.4618 14.0304 12.4618 14.0308C12.4618 13.8955 12.4692 13.7497 12.4776 13.5816V13.5816L12.4776 13.5816C12.4825 13.4842 12.4878 13.3793 12.4922 13.2646C12.5036 12.9716 12.5076 12.6389 12.4683 12.3201C12.4295 12.0056 12.3437 11.6597 12.1425 11.3683C11.928 11.0577 11.6057 10.8434 11.1766 10.7771L11.1766 10.777L11.1718 10.7763C10.7319 10.7128 10.2994 10.5949 9.88253 10.4245C9.29362 10.1822 8.79705 10.3839 8.43801 10.6603C8.24954 10.8053 8.06775 10.9977 7.91201 11.173C6.98576 10.52 6.19795 9.6488 5.60753 8.61856C5.77966 8.43737 5.97718 8.21976 6.12206 7.99386C6.37002 7.60725 6.53056 7.10994 6.32893 6.5217C6.17076 6.05719 6.06088 5.57408 6.0016 5.08163L6.00162 5.08163L6.00107 5.07742ZM6.32893 6.5217C6.32887 6.52152 6.32881 6.52135 6.32875 6.52118L5.85583 6.68344L6.32911 6.52224C6.32905 6.52206 6.32899 6.52188 6.32893 6.5217Z"/>
</svg>
