<svg width="16" height="16" viewBox="0 0 16 16" xmlns="http://www.w3.org/2000/svg">
<path fill-rule="evenodd" clip-rule="evenodd" d="M14.6873 1.14691C14.7382 1.19788 14.7757 1.25709 14.8 1.32023L14.8324 1.46928C14.833 1.47944 14.8333 1.48968 14.8333 1.5V1.5031V5.48964C14.8333 5.76578 14.6095 5.98964 14.3333 5.98964C14.0572 5.98964 13.8333 5.76578 13.8333 5.48964V2.70491L10.0198 6.50859C9.82424 6.7036 9.50766 6.70319 9.31265 6.50767C9.11764 6.31215 9.11805 5.99557 9.31357 5.80056L13.124 2H10.3333C10.0572 2 9.83332 1.77614 9.83332 1.5C9.83332 1.22386 10.0572 1 10.3333 1H14.3333H14.3334C14.3991 1 14.4619 1.0127 14.5194 1.03576C14.5805 1.06024 14.6379 1.09729 14.6873 1.14691ZM3.97731 3.84623H3.97731C4.06613 3.84152 4.15315 3.83691 4.23238 3.83384C4.48444 3.82409 4.71783 3.82553 4.92084 3.85707C5.12515 3.88881 5.25824 3.94521 5.34126 4.0138C5.41099 4.07141 5.48228 4.16696 5.50886 4.37013C5.57647 4.9304 5.70168 5.48093 5.88232 6.01129L5.88269 6.01235C5.95714 6.22936 5.91695 6.4073 5.78012 6.62063C5.66541 6.79948 5.52087 6.95034 5.34954 7.12916C5.27908 7.2027 5.20409 7.28097 5.12478 7.36786C4.98346 7.52268 4.95372 7.74922 5.05028 7.93527C5.80261 9.3848 6.90125 10.591 8.23511 11.422C8.43975 11.5495 8.70623 11.5127 8.86878 11.3347C8.9489 11.2469 9.02084 11.1642 9.08824 11.0866C9.25079 10.8997 9.38693 10.7432 9.54782 10.6193C9.73638 10.4741 9.85611 10.4559 10.0021 10.516L10.0033 10.5165C10.4943 10.7172 11.005 10.8568 11.5258 10.9323C11.6834 10.9571 11.7623 11.0203 11.8194 11.1031C11.89 11.2054 11.946 11.3691 11.9756 11.6091C12.0047 11.845 12.0036 12.112 11.9928 12.3926C11.9894 12.4785 11.9849 12.5694 11.9804 12.6612L11.9804 12.6615C11.9711 12.8485 11.9616 13.0392 11.9616 13.1982L11.9616 13.2C11.963 13.5842 11.6556 13.8187 11.4228 13.7985C7.07789 13.278 3.47121 9.34127 3.00174 4.51623C2.97183 4.13287 3.26381 3.86438 3.501 3.86414L3.50048 3.3642V3.86414C3.63971 3.86414 3.81162 3.85502 3.97731 3.84623ZM6.50088 4.24405C6.44588 3.81773 6.26561 3.48032 5.97816 3.24285C5.70379 3.01619 5.37387 2.91546 5.07436 2.86893C4.77355 2.82219 4.46231 2.8242 4.19373 2.83459C4.07678 2.83911 3.97378 2.84472 3.87991 2.84983L3.87991 2.84983C3.73814 2.85755 3.6172 2.86414 3.50048 2.86414L3.49996 2.86414C2.57937 2.86509 1.93407 3.73711 2.00538 4.60157L2.00533 4.60157L2.00602 4.60871C2.51329 9.84209 6.43448 14.2117 11.3106 14.7922L11.3105 14.7923L11.3204 14.7933C12.2443 14.8848 12.9642 14.0694 12.9616 13.1975C12.9616 13.1977 12.9616 13.1979 12.9616 13.1982H12.4618L12.9616 13.1963C12.9616 13.1967 12.9616 13.1971 12.9616 13.1975C12.9616 13.0622 12.969 12.9164 12.9774 12.7483V12.7483L12.9774 12.7482C12.9823 12.6508 12.9876 12.5459 12.992 12.4313C13.0034 12.1382 13.0074 11.8055 12.9681 11.4868C12.9293 11.1722 12.8435 10.8263 12.6423 10.5349C12.4279 10.2243 12.1055 10.01 11.6764 9.9437L11.6764 9.94368L11.6716 9.94297C11.2317 9.87942 10.7992 9.76149 10.3823 9.59112C9.79343 9.34886 9.29686 9.55051 8.93782 9.8269C8.74935 9.97199 8.56756 10.1643 8.41182 10.3397C7.48557 9.68659 6.69776 8.81543 6.10734 7.78519C6.27947 7.60401 6.47699 7.38639 6.62187 7.1605C6.86984 6.77387 7.03039 6.27654 6.82871 5.68826C6.67056 5.22378 6.56069 4.74069 6.50141 4.24827L6.50142 4.24827L6.50088 4.24405ZM6.82871 5.68826C6.82866 5.68811 6.82861 5.68797 6.82856 5.68782L6.35564 5.85008L6.82892 5.68888C6.82885 5.68867 6.82878 5.68847 6.82871 5.68826Z"/>
</svg>
