<svg xmlns="http://www.w3.org/2000/svg" width="16" height="10" viewBox="0 0 16 10"><path fill-rule="evenodd" d="M15.55 4.68C15.454 4.503 13.14.39 8.112.39S.77 4.503.674 4.68a.482.482 0 000 .466c.096.176 2.41 4.29 7.438 4.29s7.342-4.114 7.438-4.29a.482.482 0 000-.466zm-5.348-1.233a2.087 2.087 0 01-2.09 2.078 2.087 2.087 0 01-2.09-2.078c0-1.148.938-2.08 2.09-2.08s2.09.932 2.09 2.08zM8.112 8.46c-3.832 0-5.889-2.71-6.432-3.545.404-.61 1.661-2.267 3.834-3.083a3.017 3.017 0 00-.474 1.615 3.067 3.067 0 003.072 3.055 3.067 3.067 0 003.072-3.055c0-.599-.18-1.153-.48-1.625 2.193.809 3.439 2.472 3.842 3.09-.541.833-2.599 3.548-6.434 3.548z"/></svg>
