<svg width="48" height="48" viewBox="0 0 48 48" xmlns="http://www.w3.org/2000/svg">
<path fill-rule="evenodd" clip-rule="evenodd" d="M9.5 11.5C9.5 10.3954 10.3954 9.5 11.5 9.5H30.2536C30.8059 9.5 31.2536 9.05228 31.2536 8.5C31.2536 7.94772 30.8059 7.5 30.2536 7.5H11.5C9.29086 7.5 7.5 9.29086 7.5 11.5V35.6204C7.5 37.8296 9.29086 39.6204 11.5 39.6204H35.6204C37.8296 39.6204 39.6204 37.8296 39.6204 35.6204V23.5602C39.6204 23.0079 39.1727 22.5602 38.6204 22.5602C38.0681 22.5602 37.6204 23.0079 37.6204 23.5602V35.6204C37.6204 36.725 36.725 37.6204 35.6204 37.6204H11.5C10.3954 37.6204 9.5 36.725 9.5 35.6204V11.5ZM41.0009 10.8806C41.3914 10.4901 41.3914 9.8569 41.0009 9.46638C40.6104 9.07586 39.9772 9.07586 39.5867 9.46638L23.5602 25.4928L19.2473 21.1799C18.8568 20.7894 18.2236 20.7894 17.8331 21.1799C17.4425 21.5704 17.4425 22.2036 17.8331 22.5941L22.8531 27.6142C23.2437 28.0047 23.8768 28.0047 24.2673 27.6142L41.0009 10.8806Z"/>
</svg>
