<svg width="48" height="48" viewBox="0 0 48 48" xmlns="http://www.w3.org/2000/svg">
<path fill-rule="evenodd" clip-rule="evenodd" d="M39.706 9.70711C40.0965 9.31658 40.0965 8.68342 39.706 8.29289C39.3155 7.90237 38.6823 7.90237 38.2918 8.29289L23.9994 22.5852L9.70711 8.29289C9.31658 7.90237 8.68342 7.90237 8.29289 8.29289C7.90237 8.68342 7.90237 9.31658 8.29289 9.70711L22.5852 23.9994L8.29289 38.2918C7.90237 38.6823 7.90237 39.3155 8.29289 39.706C8.68342 40.0965 9.31658 40.0965 9.70711 39.706L23.9994 25.4137L38.2918 39.706C38.6823 40.0965 39.3155 40.0965 39.706 39.706C40.0965 39.3155 40.0965 38.6823 39.706 38.2918L25.4137 23.9994L39.706 9.70711Z"/>
</svg>
