<svg width="48" height="48" viewBox="0 0 48 48" xmlns="http://www.w3.org/2000/svg">
<path d="M23.4473 25L9.44727 25.2439L10.9745 30.8537L13.7745 35L23.4473 25Z"/>
<path d="M24.0573 24.8193L13.8706 13.7037L10.4348 18.9399L9.08775 24.1577L24.0573 24.8193Z"/>
<path d="M35.5711 14L24.4473 25H40.1834C41.4857 21.1366 37.6512 16.0569 35.5711 14Z"/>
<path d="M39.4926 24.6186L24.5946 24.7758L34.9788 35.2018C38.4925 33.4209 39.4521 27.4043 39.4926 24.6186Z"/>
<path d="M24.4473 24V9.10698C24.4473 9.10698 27.1302 8.56541 30.3497 9.91932C33.5692 11.2732 35.4473 13.4395 35.4473 13.4395L24.4473 24Z"/>
<path d="M24.4473 39.9782V25L35.4473 35.6987C35.4473 35.6987 33.8375 37.571 30.8863 38.9083C27.9351 40.2456 24.4473 39.9782 24.4473 39.9782Z"/>
<path d="M24.2034 25L14.4473 35.3448L19.0814 38.7069L24.4473 40L24.2034 25Z"/>
<circle cx="24.9473" cy="24.5" r="15.5" stroke="#787F85" stroke-width="2"/>
<path d="M25.0797 10V24.5M25.0797 39V24.5M25.0797 24.5H40.4473H24.9473M9.44727 24.5H24.9473M24.9473 24.5L13.9515 13.8496L24.8148 24.3717M35.678 34.8938L24.8148 24.3717M24.8148 24.3717L35.678 13.8496L13.9515 34.8938" stroke="#787F85" stroke-width="2"/>
</svg>
