<svg width="48" height="48" viewBox="0 0 48 48" xmlns="http://www.w3.org/2000/svg">
<path fill-rule="evenodd" clip-rule="evenodd" d="M14.3443 9C14.3443 8.44772 14.7921 8 15.3443 8H33.0658C35.8272 8 38.0658 10.2386 38.0658 13V22.3772C38.0658 25.1386 35.8272 27.3772 33.0658 27.3772H15.8963V31.1695H31.2734C31.8257 31.1695 32.2734 31.6172 32.2734 32.1695C32.2734 32.7218 31.8257 33.1695 31.2734 33.1695H15.8963L15.8963 39.8582C15.8963 40.4104 15.4486 40.8582 14.8963 40.8582C14.344 40.8582 13.8963 40.4104 13.8963 39.8582L13.8963 33.1695H11C10.4477 33.1695 10 32.7218 10 32.1695C10 31.6172 10.4477 31.1695 11 31.1695H13.8963V27.3771H11C10.4477 27.3771 10 26.9294 10 26.3771C10 25.8248 10.4477 25.3771 11 25.3771H13.8963L13.8963 10C13.8963 9.65173 14.0743 9.34504 14.3443 9.16598V9ZM22.5958 25.3772C22.5921 25.3771 22.5885 25.3771 22.5848 25.3771H16.3443V10H33.0658C34.7227 10 36.0658 11.3431 36.0658 13V22.3772C36.0658 24.034 34.7227 25.3772 33.0658 25.3772H22.5958Z"/>
</svg>
