<svg width="48" height="48" viewBox="0 0 48 48" xmlns="http://www.w3.org/2000/svg">
<path fill-rule="evenodd" clip-rule="evenodd" d="M10 24.3333C10 19.731 13.731 16 18.3333 16H29C33.6024 16 37.3333 19.731 37.3333 24.3333C37.3333 28.9357 33.6024 32.6667 29 32.6667H18.3333C13.731 32.6667 10 28.9357 10 24.3333ZM18.3333 14C12.6264 14 8 18.6264 8 24.3333C8 30.0403 12.6264 34.6667 18.3333 34.6667H29C34.7069 34.6667 39.3333 30.0403 39.3333 24.3333C39.3333 18.6264 34.7069 14 29 14H18.3333ZM15.3333 24.3333C15.3333 22.6765 16.6765 21.3333 18.3333 21.3333C19.9902 21.3333 21.3333 22.6765 21.3333 24.3333C21.3333 25.9902 19.9902 27.3333 18.3333 27.3333C16.6765 27.3333 15.3333 25.9902 15.3333 24.3333ZM18.3333 19.3333C15.5719 19.3333 13.3333 21.5719 13.3333 24.3333C13.3333 27.0948 15.5719 29.3333 18.3333 29.3333C21.0948 29.3333 23.3333 27.0948 23.3333 24.3333C23.3333 21.5719 21.0948 19.3333 18.3333 19.3333Z"/>
</svg>
