<svg width="48" height="48" viewBox="0 0 48 48" xmlns="http://www.w3.org/2000/svg">
<path fill-rule="evenodd" clip-rule="evenodd" d="M9 10C9 9.44772 9.44772 9 10 9H24.2222H38.4444C38.9967 9 39.4444 9.44772 39.4444 10V15.3333C39.4444 15.8856 38.9967 16.3333 38.4444 16.3333C37.8922 16.3333 37.4444 15.8856 37.4444 15.3333V11H25.2222V37.4444H29.5556C30.1078 37.4444 30.5556 37.8922 30.5556 38.4444C30.5556 38.9967 30.1078 39.4444 29.5556 39.4444H24.2242C24.2235 39.4444 24.2229 39.4444 24.2222 39.4444C24.2216 39.4444 24.2209 39.4444 24.2202 39.4444H18.8889C18.3366 39.4444 17.8889 38.9967 17.8889 38.4444C17.8889 37.8922 18.3366 37.4444 18.8889 37.4444H23.2222V11H11V15.3333C11 15.8856 10.5523 16.3333 10 16.3333C9.44772 16.3333 9 15.8856 9 15.3333V10Z"/>
</svg>
