<svg width="48" height="48" viewBox="0 0 48 48" xmlns="http://www.w3.org/2000/svg">
<path fill-rule="evenodd" clip-rule="evenodd" d="M15.75 9H16.75H17.75C17.75 10.1046 16.8546 11 15.75 11H10V16.75C10 17.8546 9.10457 18.75 8 18.75V17.75V16.75V11V10V9H9H10H15.75ZM31.25 11C30.1454 11 29.25 10.1046 29.25 9H30.25H31.25H37H38H39V10V11V16.75V17.75V18.75C37.8954 18.75 37 17.8546 37 16.75V11H31.25ZM37 32.25C37 31.1454 37.8954 30.25 39 30.25V31.25V32.25V38V39V40H38H37H31.25H30.25H29.25C29.25 38.8954 30.1454 38 31.25 38H37V32.25ZM15.75 38C16.8546 38 17.75 38.8954 17.75 40H16.75H15.75H10H9H8V39V38V32.25V31.25V30.25C9.10457 30.25 10 31.1454 10 32.25V38H15.75ZM15.2334 15.2334C14.6811 15.2334 14.2334 15.6811 14.2334 16.2334V19.3204C14.2334 19.8727 14.6811 20.3204 15.2334 20.3204C15.7857 20.3204 16.2334 19.8727 16.2334 19.3204V17.2334H22.7772V31.6973H20.3782C19.8259 31.6973 19.3782 32.1451 19.3782 32.6973C19.3782 33.2496 19.8259 33.6973 20.3782 33.6973H23.7641L23.7772 33.6974L23.7903 33.6973H26.5522C27.1045 33.6973 27.5522 33.2496 27.5522 32.6973C27.5522 32.1451 27.1045 31.6973 26.5522 31.6973H24.7772V17.2334H30.6974V19.3204C30.6974 19.8727 31.1451 20.3204 31.6974 20.3204C32.2497 20.3204 32.6974 19.8727 32.6974 19.3204V16.2334C32.6974 15.6811 32.2497 15.2334 31.6974 15.2334H23.7772H15.2334Z"/>
</svg>
