<svg width="20" height="20" viewBox="0 0 20 20" xmlns="http://www.w3.org/2000/svg">
<path fill-rule="evenodd" clip-rule="evenodd" d="M10 3C6.13401 3 3 6.13401 3 10C3 13.866 6.13401 17 10 17C13.866 17 17 13.866 17 10C17 6.13401 13.866 3 10 3ZM1 10C1 5.02944 5.02944 1 10 1C14.9706 1 19 5.02944 19 10C19 14.9706 14.9706 19 10 19C5.02944 19 1 14.9706 1 10ZM10 5C10.5523 5 11 5.44771 11 6H10L9 6C9 5.44771 9.44772 5 10 5ZM10 6L11 6.00004V6.00015V6.00062V6.00248V6.00984V6.03866V6.14903L11 6.55116V7.84475V10.5C11 11.0523 10.5523 11.5 10 11.5C9.44772 11.5 9 11.0523 9 10.5V7.84475V6.55116L9 6.14903V6.03866V6.00984V6.00248V6.00062V6.00015V6.00004L10 6ZM10 15C10.5523 15 11 14.5523 11 14C11 13.4477 10.5523 13 10 13C9.44772 13 9 13.4477 9 14C9 14.5523 9.44771 15 10 15Z"/>
</svg>
