<?xml version="1.0" standalone="no"?>
<!DOCTYPE svg PUBLIC "-//W3C//DTD SVG 20010904//EN"
 "http://www.w3.org/TR/2001/REC-SVG-20010904/DTD/svg10.dtd">
<svg version="1.0" xmlns="http://www.w3.org/2000/svg"
 width="700.000000pt" height="700.000000pt" viewBox="0 0 700.000000 700.000000"
 preserveAspectRatio="xMidYMid meet">
<metadata>
Created by potrace 1.14, written by Peter Selinger 2001-2017
</metadata>
<g transform="translate(0.000000,700.000000) scale(0.100000,-0.100000)"
fill="#000000" stroke="none">
<path d="M5709 5466 c-2 -2 -31 -6 -64 -9 -335 -29 -707 -211 -970 -474 -62
-62 -491 -505 -587 -605 -29 -31 -150 -156 -268 -278 -118 -122 -255 -263
-303 -313 -429 -444 -570 -586 -578 -581 -5 3 -8 0 -7 -7 2 -7 -7 -18 -19 -24
-13 -7 -20 -15 -15 -20 4 -4 -1 -5 -11 -2 -12 4 -16 3 -11 -4 7 -12 -33 -43
-59 -45 -10 -1 -21 -5 -25 -9 -4 -5 1 -5 11 -2 22 8 23 -9 0 -17 -9 -4 -21 -2
-27 4 -15 15 -23 12 -29 -12 -5 -21 -5 -21 7 -6 7 10 16 15 19 11 13 -12 7
-21 -28 -37 -19 -9 -35 -21 -35 -26 0 -6 -5 -10 -11 -10 -6 0 -23 -9 -39 -20
-15 -11 -30 -17 -34 -13 -3 3 -6 2 -6 -4 0 -14 -49 -35 -62 -27 -7 4 -8 2 -4
-4 4 -7 -7 -18 -31 -28 -21 -9 -54 -25 -74 -35 -28 -15 -38 -16 -49 -6 -10 10
-11 9 -5 -2 6 -11 4 -13 -8 -8 -10 4 -16 2 -14 -5 1 -5 -6 -12 -16 -13 -12 -2
-17 1 -13 10 3 10 0 12 -11 8 -10 -4 -14 -2 -10 4 3 5 0 10 -8 10 -13 0 -13
-3 0 -17 19 -21 19 -34 1 -27 -8 3 -16 2 -18 -3 -2 -5 -14 -10 -28 -12 -14 -2
-31 -7 -39 -12 -8 -5 -16 -4 -21 4 -5 8 -9 7 -14 -6 -3 -9 -9 -14 -12 -11 -3
3 -17 2 -31 -4 -17 -6 -22 -6 -17 3 5 8 3 8 -7 2 -23 -15 -99 -32 -99 -22 0 5
-8 5 -17 0 -10 -5 -37 -9 -61 -8 -23 0 -42 -3 -42 -9 0 -5 -5 -3 -10 5 -6 10
-10 11 -10 3 0 -23 -20 -14 -21 10 0 21 -1 21 -8 2 -7 -17 -17 -20 -62 -18
-30 1 -57 2 -61 2 -4 1 -5 9 -2 19 5 16 5 16 -6 0 -6 -11 -23 -18 -40 -18 -19
0 -30 6 -33 18 -4 16 -5 16 -6 0 0 -10 -7 -16 -13 -14 -7 3 -26 7 -41 10 -15
4 -26 10 -23 15 3 4 -1 8 -9 8 -8 0 -12 -5 -8 -10 3 -5 -3 -7 -13 -5 -12 2
-18 11 -16 23 2 16 1 17 -7 6 -11 -17 -51 -25 -51 -10 0 5 4 8 9 5 5 -3 15 2
22 12 13 16 13 16 -5 2 -11 -8 -22 -14 -25 -14 -3 1 -11 -1 -18 -3 -6 -2 -25
3 -42 12 -17 8 -31 12 -31 8 0 -5 -5 -1 -10 7 -9 13 -10 13 -10 0 -1 -12 -2
-12 -10 2 -6 10 -18 14 -30 11 -15 -4 -20 0 -20 13 0 15 -2 16 -9 5 -6 -9 -11
-10 -15 -2 -4 6 -12 9 -17 6 -5 -4 -9 -1 -9 5 0 6 -4 9 -9 5 -5 -3 -16 1 -24
9 -8 8 -17 13 -19 11 -3 -3 -30 8 -61 24 -31 16 -53 32 -49 36 4 4 0 6 -8 4
-19 -4 -100 38 -100 52 0 6 -5 7 -10 4 -6 -3 -13 1 -16 9 -3 9 -10 14 -14 11
-5 -3 -17 5 -27 17 -10 13 -24 24 -32 26 -18 4 -43 29 -33 35 4 2 2 3 -3 2
-13 -3 -56 30 -50 39 3 3 2 4 -2 1 -12 -9 -32 16 -26 33 4 15 3 15 -6 2 -8
-12 0 -26 38 -65 27 -27 69 -71 93 -96 23 -25 153 -160 288 -299 135 -140 299
-310 365 -378 253 -263 412 -420 475 -469 221 -173 481 -283 770 -329 61 -9
333 -12 385 -4 28 4 72 11 99 14 27 4 53 9 56 11 4 2 22 7 41 10 67 12 244 76
340 124 169 85 315 194 458 340 223 230 574 592 611 631 39 41 340 352 670
694 74 76 155 160 180 186 25 25 155 161 290 300 135 139 271 280 302 312 108
112 506 523 641 663 l136 140 -57 56 c-203 198 -491 351 -768 408 -55 11 -115
23 -134 26 -42 7 -325 16 -331 11z"/>
<path d="M955 4420 c-3 -5 -3 -10 1 -10 4 0 -1 -7 -12 -16 -18 -15 -18 -15 0
-6 11 5 21 17 22 26 3 18 -2 21 -11 6z"/>
<path d="M1027 4419 c10 -10 9 -15 -5 -26 -15 -13 -15 -13 4 -4 12 6 24 7 28
3 4 -3 4 1 1 10 -4 9 -14 19 -23 23 -13 5 -14 4 -5 -6z"/>
<path d="M1068 4423 c6 -2 9 -10 6 -15 -4 -7 -2 -8 5 -4 13 9 5 26 -12 25 -9
0 -8 -2 1 -6z"/>
<path d="M1147 4409 c6 -22 20 -26 20 -4 0 8 -6 16 -13 19 -7 3 -10 -2 -7 -15z"/>
<path d="M1227 4409 c6 -22 20 -26 20 -4 0 8 -6 16 -13 19 -7 3 -10 -2 -7 -15z"/>
<path d="M1296 4413 c-6 -14 -5 -15 5 -6 7 7 10 15 7 18 -3 3 -9 -2 -12 -12z"/>
<path d="M1370 4425 c0 -5 5 -17 10 -25 5 -8 10 -10 10 -5 0 6 -5 17 -10 25
-5 8 -10 11 -10 5z"/>
<path d="M990 4409 c0 -5 5 -7 10 -4 6 3 10 8 10 11 0 2 -4 4 -10 4 -5 0 -10
-5 -10 -11z"/>
<path d="M890 4406 c0 -2 7 -7 16 -10 8 -3 12 -2 9 4 -6 10 -25 14 -25 6z"/>
<path d="M1320 4400 c-8 -5 -10 -10 -5 -10 6 0 17 5 25 10 8 5 11 10 5 10 -5
0 -17 -5 -25 -10z"/>
<path d="M1495 4390 c-3 -6 1 -7 9 -4 18 7 21 14 7 14 -6 0 -13 -4 -16 -10z"/>
<path d="M1473 4371 c0 -11 5 -18 9 -15 4 3 5 11 1 19 -7 21 -12 19 -10 -4z"/>
<path d="M1579 4388 c-7 -23 -5 -37 4 -31 6 4 8 0 4 -10 -9 -24 0 -21 13 3 8
16 8 20 -2 18 -7 -2 -12 3 -10 10 2 10 -6 19 -9 10z"/>
<path d="M856 4367 c3 -10 9 -15 12 -12 3 3 0 11 -7 18 -10 9 -11 8 -5 -6z"/>
<path d="M890 4370 c-11 -7 -11 -10 -2 -10 7 0 10 -4 7 -10 -4 -6 1 -7 11 -3
10 4 15 2 11 -4 -3 -5 0 -10 8 -10 10 0 12 4 5 12 -5 7 -7 15 -3 19 4 4 -1 4
-11 0 -14 -5 -17 -4 -12 4 9 14 6 15 -14 2z"/>
<path d="M1102 4367 c10 -8 15 -16 12 -19 -2 -3 2 -8 10 -11 11 -4 13 -1 9 10
-5 12 -3 14 8 8 8 -4 12 -6 9 -2 -3 3 -9 6 -15 7 -5 1 -19 6 -30 12 -18 8 -19
8 -3 -5z"/>
<path d="M1182 4364 c11 -11 21 -14 26 -9 4 6 6 9 3 8 -2 -1 -13 3 -25 9 -20
10 -20 10 -4 -8z"/>
<path d="M1380 4371 c0 -6 -9 -8 -20 -6 -12 2 -18 0 -15 -6 4 -5 10 -7 15 -4
4 3 11 -1 13 -7 4 -10 6 -10 6 0 1 7 5 10 11 7 6 -3 7 1 4 9 -7 18 -14 21 -14
7z"/>
<path d="M773 4357 c-4 -6 -1 -7 7 -2 10 6 12 4 7 -8 -4 -10 -2 -14 7 -11 7 3
13 11 13 18 0 15 -25 17 -34 3z"/>
<path d="M990 4359 c0 -5 5 -7 10 -4 6 3 10 8 10 11 0 2 -4 4 -10 4 -5 0 -10
-5 -10 -11z"/>
<path d="M1253 4357 c-4 -6 -1 -7 7 -2 9 6 12 4 8 -6 -4 -10 1 -15 12 -15 11
0 16 5 12 15 -4 10 -1 12 9 6 8 -4 11 -4 6 0 -11 12 -47 13 -54 2z"/>
<path d="M1515 4349 c-4 -6 -5 -12 -2 -15 2 -3 7 2 10 11 7 17 1 20 -8 4z"/>
<path d="M860 4332 c0 -6 -8 -9 -17 -6 -15 5 -16 4 -3 -5 16 -11 40 3 27 16
-4 3 -7 1 -7 -5z"/>
<path d="M957 4333 c-10 -9 -9 -23 1 -23 5 0 9 7 9 15 0 17 -1 18 -10 8z"/>
<path d="M1057 4324 c2 -7 11 -10 19 -7 19 7 18 10 -5 16 -13 3 -18 1 -14 -9z"/>
<path d="M1534 4321 c0 -12 6 -17 18 -13 10 2 18 9 18 15 0 6 -3 7 -7 4 -3 -4
-11 -3 -17 3 -8 6 -12 3 -12 -9z"/>
<path d="M1660 4332 c0 -6 -8 -9 -17 -6 -15 5 -16 4 -3 -5 16 -11 40 3 27 16
-4 3 -7 1 -7 -5z"/>
<path d="M610 4318 c0 -4 4 -8 9 -8 6 0 12 4 15 8 3 5 -1 9 -9 9 -8 0 -15 -4
-15 -9z"/>
<path d="M670 4319 c0 -3 9 -9 19 -12 13 -3 18 0 15 7 -5 13 -34 18 -34 5z"/>
<path d="M737 4316 c-4 -10 1 -12 14 -9 23 6 24 9 5 16 -8 3 -17 0 -19 -7z"/>
<path d="M876 4313 c-6 -14 -5 -15 5 -6 7 7 10 15 7 18 -3 3 -9 -2 -12 -12z"/>
<path d="M1150 4319 c0 -3 9 -9 19 -12 13 -3 18 0 15 7 -5 13 -34 18 -34 5z"/>
<path d="M1216 4314 c-3 -7 2 -10 15 -7 22 6 26 20 4 20 -8 0 -16 -6 -19 -13z"/>
<path d="M1310 4319 c0 -3 9 -9 19 -12 13 -3 18 0 15 7 -5 13 -34 18 -34 5z"/>
<path d="M805 4302 c-10 -7 -18 -32 -10 -32 2 0 9 9 15 20 12 22 11 24 -5 12z"/>
<path d="M918 4291 c5 -14 4 -14 -14 -1 -18 14 -18 14 -5 -2 17 -23 27 -23 33
0 3 11 0 19 -7 19 -8 0 -11 -7 -7 -16z"/>
<path d="M1109 4292 c12 -23 12 -34 -2 -52 -9 -12 -9 -13 3 -2 19 16 21 60 3
66 -10 4 -11 1 -4 -12z"/>
<path d="M1593 4291 c10 -12 9 -14 -4 -9 -9 4 -16 1 -16 -7 0 -10 5 -11 16 -5
9 4 19 7 23 7 3 -1 10 2 15 6 4 5 4 8 -2 7 -21 -5 -29 1 -15 10 12 7 10 9 -7
7 -18 -1 -20 -4 -10 -16z"/>
<path d="M1789 4287 c6 -14 7 -28 3 -33 -4 -4 -2 -4 5 -1 12 7 7 44 -8 53 -5
3 -5 -6 0 -19z"/>
<path d="M514 4282 c4 -3 14 -7 22 -8 9 -1 13 0 10 4 -4 3 -14 7 -22 8 -9 1
-13 0 -10 -4z"/>
<path d="M726 4282 c-3 -5 1 -9 9 -9 8 0 12 4 9 9 -3 4 -7 8 -9 8 -2 0 -6 -4
-9 -8z"/>
<path d="M817 4276 c-4 -11 -1 -13 10 -9 12 5 14 3 8 -7 -5 -9 -4 -11 4 -6 9
6 9 11 0 22 -14 17 -16 17 -22 0z"/>
<path d="M1187 4268 c-5 -21 -5 -21 7 -6 7 10 17 14 21 10 5 -4 5 -1 1 6 -11
19 -23 14 -29 -10z"/>
<path d="M1253 4276 c0 -6 13 -11 28 -11 32 0 29 11 -4 17 -13 3 -24 0 -24 -6z"/>
<path d="M1430 4280 c0 -5 5 -10 11 -10 5 0 7 5 4 10 -3 6 -8 10 -11 10 -2 0
-4 -4 -4 -10z"/>
<path d="M1486 4278 c3 -4 10 -5 16 -2 7 5 9 2 6 -8 -4 -8 -1 -15 7 -15 8 0
11 7 7 15 -4 11 -1 13 9 7 8 -5 11 -4 6 1 -10 11 -58 14 -51 2z"/>
<path d="M1673 4271 c0 -11 5 -18 9 -15 4 3 5 11 1 19 -7 21 -12 19 -10 -4z"/>
<path d="M1771 4274 c0 -11 3 -14 6 -6 3 7 2 16 -1 19 -3 4 -6 -2 -5 -13z"/>
<path d="M630 4276 c0 -2 9 -6 20 -9 11 -3 18 -1 14 4 -5 9 -34 13 -34 5z"/>
<path d="M1360 4271 c0 -6 4 -13 10 -16 6 -3 7 1 4 9 -7 18 -14 21 -14 7z"/>
<path d="M435 4246 c21 -15 35 -12 35 7 0 8 -3 8 -9 -2 -6 -9 -11 -10 -15 -2
-4 6 -12 11 -19 11 -6 0 -2 -6 8 -14z"/>
<path d="M796 4247 c3 -10 9 -15 12 -12 3 3 0 11 -7 18 -10 9 -11 8 -5 -6z"/>
<path d="M888 4253 c-21 -5 -23 -19 -6 -29 7 -5 8 -3 3 6 -6 9 -4 12 7 8 9 -4
15 0 15 8 0 8 -1 13 -1 13 -1 -1 -9 -3 -18 -6z"/>
<path d="M1726 4251 c-17 -6 -17 -8 -4 -14 10 -3 19 0 22 9 3 8 4 14 3 13 -1
0 -11 -4 -21 -8z"/>
<path d="M1845 4250 c-16 -7 -17 -9 -3 -9 9 -1 20 4 23 9 7 11 7 11 -20 0z"/>
<path d="M677 4236 c-3 -8 0 -17 7 -19 10 -4 12 1 9 14 -6 23 -9 24 -16 5z"/>
<path d="M760 4238 c-12 -8 -12 -9 2 -5 9 3 19 1 22 -6 3 -9 5 -9 5 0 1 18
-13 23 -29 11z"/>
<path d="M933 4237 c-4 -6 -1 -7 7 -2 10 6 12 4 7 -8 -4 -10 -2 -14 7 -11 7 3
13 11 13 18 0 15 -25 17 -34 3z"/>
<path d="M1016 4242 c-3 -4 4 -9 15 -9 23 -2 25 3 4 10 -8 4 -16 3 -19 -1z"/>
<path d="M1136 4234 c-3 -7 2 -10 15 -7 22 6 26 20 4 20 -8 0 -16 -6 -19 -13z"/>
<path d="M1227 4231 c-3 -13 0 -18 7 -15 7 3 13 11 13 19 0 22 -14 18 -20 -4z"/>
<path d="M1317 4236 c-3 -8 0 -17 7 -19 10 -4 12 1 9 14 -6 23 -9 24 -16 5z"/>
<path d="M1400 4238 c-12 -8 -12 -9 2 -5 9 3 19 1 22 -6 3 -9 5 -9 5 0 1 18
-13 23 -29 11z"/>
<path d="M1456 4234 c-3 -7 2 -10 15 -7 22 6 26 20 4 20 -8 0 -16 -6 -19 -13z"/>
<path d="M1548 4232 c-4 -12 1 -18 13 -18 12 0 15 4 9 12 -6 6 -7 14 -3 17 3
4 2 7 -4 7 -6 0 -13 -8 -15 -18z"/>
<path d="M1633 4238 c3 -9 1 -19 -6 -22 -9 -3 -9 -5 0 -5 18 -1 23 13 11 29
-8 12 -9 12 -5 -2z"/>
<path d="M1760 4235 c-7 -8 -9 -15 -5 -15 4 0 1 -8 -6 -17 -13 -16 -12 -17 4
-4 9 8 15 16 12 19 -3 3 0 11 6 19 6 7 9 13 6 13 -2 0 -10 -7 -17 -15z"/>
<path d="M1894 4238 c-5 -7 -2 -8 6 -3 9 6 12 4 8 -6 -4 -10 1 -15 12 -15 10
0 16 6 13 12 -7 18 -31 25 -39 12z"/>
<path d="M386 4221 c-4 -5 3 -7 14 -4 23 6 26 13 6 13 -8 0 -17 -4 -20 -9z"/>
<path d="M838 4212 c3 -9 1 -13 -5 -9 -6 4 -13 0 -16 -8 -4 -10 -1 -12 10 -8
12 5 14 3 8 -8 -4 -8 -6 -12 -2 -9 3 3 6 10 7 15 1 6 6 17 10 26 6 11 5 16 -5
16 -7 0 -11 -7 -7 -15z"/>
<path d="M1075 4220 c-3 -5 -4 -10 0 -10 3 0 1 -10 -5 -22 -11 -22 -11 -23 5
-3 9 11 19 19 23 17 3 -2 8 2 10 10 2 9 0 8 -7 -2 -10 -13 -15 -8 -12 13 2 10
-7 9 -14 -3z"/>
<path d="M1680 4215 c-7 -9 -8 -15 -2 -15 5 0 12 7 16 15 3 8 4 15 2 15 -2 0
-9 -7 -16 -15z"/>
<path d="M999 4218 c-5 -18 -6 -38 -1 -34 7 8 12 36 6 36 -2 0 -4 -1 -5 -2z"/>
<path d="M1196 4212 c2 -2 -2 -14 -8 -26 -10 -20 -10 -20 8 -4 12 12 15 21 8
27 -6 5 -9 6 -8 3z"/>
<path d="M1516 4212 c2 -2 -2 -14 -8 -26 -10 -20 -10 -20 8 -4 12 12 15 21 8
27 -6 5 -9 6 -8 3z"/>
<path d="M1597 4213 c-10 -9 -9 -23 1 -23 5 0 9 7 9 15 0 17 -1 18 -10 8z"/>
<path d="M1879 4218 c-5 -18 -6 -38 -1 -34 7 8 12 36 6 36 -2 0 -4 -1 -5 -2z"/>
<path d="M1949 4203 c-13 -17 -13 -17 6 -3 11 8 22 16 24 17 2 2 0 3 -6 3 -6
0 -17 -8 -24 -17z"/>
<path d="M345 4200 c-3 -6 1 -7 9 -4 18 7 21 14 7 14 -6 0 -13 -4 -16 -10z"/>
<path d="M910 4200 c0 -5 5 -10 10 -10 6 0 10 5 10 10 0 6 -4 10 -10 10 -5 0
-10 -4 -10 -10z"/>
<path d="M1119 4200 c-3 -20 -4 -25 -13 -40 -7 -12 -6 -13 4 -3 13 12 25 53
15 53 -3 0 -6 -4 -6 -10z"/>
<path d="M1426 4198 c3 -4 9 -8 15 -8 5 0 9 4 9 8 0 5 -7 9 -15 9 -8 0 -12 -4
-9 -9z"/>
<path d="M1774 4198 c-4 -5 -3 -12 0 -15 3 -4 6 -1 6 6 0 7 5 9 10 6 6 -4 7
-12 4 -18 -4 -7 -3 -8 1 -4 15 13 14 34 -2 34 -7 0 -16 -4 -19 -9z"/>
<path d="M363 4182 c-7 -4 -9 -13 -4 -21 6 -9 10 -7 14 8 3 12 4 21 4 21 -1 0
-7 -4 -14 -8z"/>
<path d="M628 4183 c7 -3 16 -2 19 1 4 3 -2 6 -13 5 -11 0 -14 -3 -6 -6z"/>
<path d="M882 4178 c-7 -7 -12 -15 -12 -19 0 -9 27 -5 37 6 5 4 2 5 -6 0 -11
-6 -13 -4 -8 8 8 20 5 21 -11 5z"/>
<path d="M960 4180 c-8 -5 -11 -10 -6 -10 6 0 1 -7 -10 -16 -19 -15 -19 -15 1
-6 11 6 23 9 27 9 3 -1 10 2 15 7 5 6 2 6 -6 1 -11 -6 -13 -4 -8 8 7 20 7 20
-13 7z"/>
<path d="M1243 4182 c-7 -4 -9 -13 -4 -21 6 -9 10 -7 14 8 3 12 4 21 4 21 -1
0 -7 -4 -14 -8z"/>
<path d="M1565 4182 c-13 -9 -17 -32 -6 -32 5 0 11 9 14 20 6 22 6 22 -8 12z"/>
<path d="M1645 4182 c-13 -9 -17 -32 -6 -32 5 0 11 9 14 20 6 22 6 22 -8 12z"/>
<path d="M1963 4182 c-7 -4 -9 -13 -4 -21 6 -9 10 -7 14 8 3 12 4 21 4 21 -1
0 -7 -4 -14 -8z"/>
<path d="M460 4172 c0 -6 -8 -9 -17 -6 -15 5 -16 4 -3 -5 16 -11 40 3 27 16
-4 3 -7 1 -7 -5z"/>
<path d="M796 4167 c3 -10 9 -15 12 -12 3 3 0 11 -7 18 -10 9 -11 8 -5 -6z"/>
<path d="M1726 4171 c-17 -6 -17 -8 -4 -14 10 -3 19 0 22 9 3 8 4 14 3 13 -1
0 -11 -4 -21 -8z"/>
<path d="M285 4160 c-3 -6 1 -7 9 -4 18 7 21 14 7 14 -6 0 -13 -4 -16 -10z"/>
<path d="M760 4158 c-12 -8 -12 -9 2 -5 9 3 19 1 22 -6 3 -9 5 -9 5 0 1 18
-13 23 -29 11z"/>
<path d="M1136 4154 c-3 -7 2 -10 15 -7 22 6 26 20 4 20 -8 0 -16 -6 -19 -13z"/>
<path d="M1400 4158 c-12 -8 -12 -9 2 -5 9 3 19 1 22 -6 3 -9 5 -9 5 0 1 18
-13 23 -29 11z"/>
<path d="M1456 4154 c-3 -7 2 -10 15 -7 22 6 26 20 4 20 -8 0 -16 -6 -19 -13z"/>
<path d="M1763 4158 c-11 -19 -12 -37 -3 -43 5 -3 7 3 5 12 -1 10 2 24 8 31 5
6 7 12 4 12 -3 0 -9 -6 -14 -12z"/>
<path d="M2046 4158 c3 -5 10 -6 15 -3 13 9 11 12 -6 12 -8 0 -12 -4 -9 -9z"/>
<path d="M1016 4151 c-4 -5 3 -7 14 -4 23 6 26 13 6 13 -8 0 -17 -4 -20 -9z"/>
<path d="M1914 4143 c3 -20 21 -28 31 -14 4 7 0 8 -11 4 -11 -4 -15 -3 -10 5
3 6 2 13 -3 16 -5 4 -8 -2 -7 -11z"/>
<path d="M405 4139 c-4 -6 -5 -12 -2 -15 2 -3 7 2 10 11 7 17 1 20 -8 4z"/>
<path d="M845 4139 c-4 -6 -5 -12 -2 -15 2 -3 7 2 10 11 7 17 1 20 -8 4z"/>
<path d="M1076 4142 c-2 -4 2 -15 9 -25 12 -17 13 -16 18 2 3 15 1 18 -11 14
-10 -4 -13 -2 -8 5 4 7 5 12 2 12 -3 0 -7 -3 -10 -8z"/>
<path d="M1196 4142 c-2 -4 -1 -14 3 -20 6 -10 11 -9 21 3 11 13 10 14 -5 9
-13 -5 -16 -4 -11 4 4 7 5 12 2 12 -3 0 -7 -4 -10 -8z"/>
<path d="M1353 4129 c-2 -23 3 -25 10 -4 4 8 3 16 -1 19 -4 3 -9 -4 -9 -15z"/>
<path d="M1516 4142 c-2 -4 -1 -14 3 -20 6 -10 11 -9 21 3 11 13 10 14 -5 9
-13 -5 -16 -4 -11 4 4 7 5 12 2 12 -3 0 -7 -4 -10 -8z"/>
<path d="M1683 4135 c-3 -9 -3 -18 -1 -21 3 -3 8 4 11 16 6 23 -1 27 -10 5z"/>
<path d="M2003 4135 c-3 -9 -3 -18 -1 -21 3 -3 8 4 11 16 6 23 -1 27 -10 5z"/>
<path d="M330 4131 c-8 -6 -18 -7 -24 -4 -5 4 -6 1 0 -8 4 -8 9 -20 10 -27 2
-8 5 -17 9 -20 3 -4 4 6 1 22 -4 20 -1 26 8 23 7 -3 13 1 13 9 0 8 -1 14 -1
14 -1 0 -8 -4 -16 -9z"/>
<path d="M1611 4131 c-8 -5 -9 -11 -3 -15 5 -3 12 1 16 9 6 17 6 18 -13 6z"/>
<path d="M514 4115 c1 -8 6 -18 11 -22 4 -5 5 -2 0 6 -6 11 -4 13 8 8 23 -9
21 0 -2 13 -15 7 -19 7 -17 -5z"/>
<path d="M821 4114 c0 -11 3 -14 6 -6 3 7 2 16 -1 19 -3 4 -6 -2 -5 -13z"/>
<path d="M910 4119 c0 -5 5 -7 10 -4 6 3 10 8 10 11 0 2 -4 4 -10 4 -5 0 -10
-5 -10 -11z"/>
<path d="M1254 4118 c-5 -7 -2 -8 6 -3 9 6 12 4 8 -6 -4 -10 1 -15 16 -16 11
0 15 1 8 4 -6 3 -10 8 -7 13 3 4 -2 10 -10 14 -8 3 -17 0 -21 -6z"/>
<path d="M1701 4114 c0 -11 3 -14 6 -6 3 7 2 16 -1 19 -3 4 -6 -2 -5 -13z"/>
<path d="M2068 4112 c-3 -11 0 -19 7 -19 8 0 11 7 7 15 -4 11 -1 13 8 7 9 -5
11 -4 6 3 -11 17 -23 15 -28 -6z"/>
<path d="M237 4107 c-3 -8 1 -14 8 -14 7 0 11 6 8 14 -3 7 -6 13 -8 13 -2 0
-5 -6 -8 -13z"/>
<path d="M360 4111 c0 -6 4 -13 10 -16 6 -3 7 1 4 9 -7 18 -14 21 -14 7z"/>
<path d="M950 4100 c0 -5 5 -10 10 -10 6 0 10 5 10 10 0 6 -4 10 -10 10 -5 0
-10 -4 -10 -10z"/>
<path d="M2130 4106 c0 -2 7 -7 16 -10 8 -3 12 -2 9 4 -6 10 -25 14 -25 6z"/>
<path d="M195 4094 c2 -4 0 -14 -5 -23 -6 -13 -4 -17 10 -17 15 0 17 3 7 15
-7 8 -10 16 -9 18 2 3 1 7 -2 9 -3 2 -4 1 -1 -2z"/>
<path d="M458 4088 c5 -5 16 -8 23 -6 8 3 3 7 -10 11 -17 4 -21 3 -13 -5z"/>
<path d="M638 4093 c7 -3 16 -2 19 1 4 3 -2 6 -13 5 -11 0 -14 -3 -6 -6z"/>
<path d="M1966 4091 c-17 -6 -17 -8 -4 -14 10 -3 19 0 22 9 3 8 4 14 3 13 -1
0 -11 -4 -21 -8z"/>
<path d="M270 4079 c0 -3 9 -9 19 -12 13 -3 18 0 15 7 -5 13 -34 18 -34 5z"/>
<path d="M390 4080 c0 -4 7 -13 15 -20 13 -11 14 -10 9 5 -6 14 -4 16 7 10 8
-5 11 -4 6 0 -10 12 -37 15 -37 5z"/>
<path d="M544 4082 c4 -3 14 -7 22 -8 9 -1 13 0 10 4 -4 3 -14 7 -22 8 -9 1
-13 0 -10 -4z"/>
<path d="M1214 4079 c-3 -6 -3 -13 0 -16 3 -4 6 -1 6 5 0 6 7 9 15 6 8 -4 15
-4 15 -1 0 11 -30 16 -36 6z"/>
<path d="M2016 4074 c-3 -7 2 -10 15 -7 22 6 26 20 4 20 -8 0 -16 -6 -19 -13z"/>
<path d="M2107 4071 c-3 -13 0 -18 7 -15 7 3 13 11 13 19 0 22 -14 18 -20 -4z"/>
<path d="M355 4060 c6 -10 4 -12 -8 -7 -11 4 -14 2 -10 -9 3 -8 8 -12 11 -10
3 3 11 -2 19 -12 13 -15 13 -15 4 4 -6 12 -8 24 -5 27 3 3 0 8 -7 13 -8 5 -10
3 -4 -6z"/>
<path d="M507 4049 c4 -13 8 -18 11 -10 2 7 -1 18 -6 23 -8 8 -9 4 -5 -13z"/>
<path d="M1921 4048 c9 -16 29 -17 29 -2 0 3 -5 2 -12 -2 -7 -5 -9 -2 -6 8 4
8 0 15 -7 15 -10 0 -11 -5 -4 -19z"/>
<path d="M2160 4055 c-10 -12 -10 -18 -2 -26 7 -5 10 -6 7 -3 -2 4 0 15 6 25
12 23 6 25 -11 4z"/>
<path d="M234 4049 c-3 -6 1 -18 11 -27 16 -16 17 -16 7 4 -6 12 -8 24 -5 28
3 3 4 6 0 6 -3 0 -9 -5 -13 -11z"/>
<path d="M433 4045 c0 -8 4 -15 9 -15 4 0 8 4 8 9 0 6 -4 12 -8 15 -5 3 -9 -1
-9 -9z"/>
<path d="M2075 4050 c6 -9 4 -12 -7 -8 -8 4 -15 1 -15 -7 0 -7 8 -10 19 -7 21
5 23 17 6 28 -7 5 -8 3 -3 -6z"/>
<path d="M314 4026 c3 -16 8 -31 11 -35 3 -3 4 7 1 23 -3 16 -8 31 -11 35 -3
3 -4 -7 -1 -23z"/>
<path d="M1979 4033 c-13 -15 -12 -15 7 -5 12 6 25 8 29 4 5 -4 5 -1 1 6 -10
16 -21 15 -37 -5z"/>
<path d="M639 4038 c-5 -18 -6 -38 -1 -34 7 8 12 36 6 36 -2 0 -4 -1 -5 -2z"/>
<path d="M187 4009 c6 -22 20 -26 20 -4 0 8 -6 16 -13 19 -7 3 -10 -2 -7 -15z"/>
<path d="M467 4016 c5 -15 3 -17 -8 -11 -8 5 -11 4 -6 -1 11 -11 58 -13 51 -2
-3 5 -8 7 -12 4 -3 -3 -11 2 -19 12 -12 16 -13 16 -6 -2z"/>
<path d="M950 4020 c0 -5 5 -10 10 -10 6 0 10 5 10 10 0 6 -4 10 -10 10 -5 0
-10 -4 -10 -10z"/>
<path d="M2125 4022 c-13 -9 -17 -32 -6 -32 5 0 11 9 14 20 6 22 6 22 -8 12z"/>
<path d="M397 4013 c-12 -11 -8 -20 11 -25 11 -3 19 0 19 7 0 8 -7 11 -15 7
-10 -3 -13 -1 -8 6 8 13 3 16 -7 5z"/>
<path d="M2208 4013 c-22 -5 -24 -20 -3 -20 8 0 16 6 19 14 3 7 4 12 3 12 -1
-1 -10 -3 -19 -6z"/>
<path d="M135 3999 c-6 -8 -4 -10 5 -4 10 6 12 4 6 -11 -6 -15 -5 -17 5 -6 9
9 10 15 2 23 -8 8 -13 7 -18 -2z"/>
<path d="M270 3999 c0 -3 9 -9 19 -12 13 -3 18 0 15 7 -5 13 -34 18 -34 5z"/>
<path d="M554 3992 c2 -9 9 -18 17 -20 11 -3 11 -1 -1 7 -14 10 -7 16 15 11 6
-1 6 2 2 6 -14 15 -35 12 -33 -4z"/>
<path d="M1233 3998 c3 -9 1 -19 -6 -22 -9 -3 -9 -5 0 -5 18 -1 23 13 11 29
-8 12 -9 12 -5 -2z"/>
<path d="M1947 3991 c-3 -13 0 -18 7 -15 7 3 13 11 13 19 0 22 -14 18 -20 -4z"/>
<path d="M2027 3991 c-3 -13 0 -18 7 -15 7 3 13 11 13 19 0 22 -14 18 -20 -4z"/>
<path d="M2256 3991 c-4 -5 3 -7 14 -4 23 6 26 13 6 13 -8 0 -17 -4 -20 -9z"/>
<path d="M235 3980 c6 -10 4 -12 -8 -7 -11 4 -14 2 -10 -9 3 -8 8 -12 11 -10
3 3 11 -2 19 -12 13 -15 13 -15 4 4 -6 12 -8 24 -5 27 3 3 0 8 -7 13 -8 5 -10
3 -4 -6z"/>
<path d="M355 3981 c6 -10 4 -13 -6 -9 -10 4 -15 -1 -15 -13 0 -14 3 -16 15
-6 12 10 14 9 9 -4 -4 -9 -1 -16 7 -16 11 0 12 5 3 21 -6 12 -10 23 -9 24 2 2
-1 7 -5 10 -4 4 -3 1 1 -7z"/>
<path d="M2164 3975 c-4 -8 -10 -13 -14 -10 -4 3 -10 -2 -13 -10 -4 -10 -1
-12 10 -8 12 5 14 3 8 -8 -4 -8 -5 -11 -1 -7 4 3 8 10 8 15 0 4 4 16 9 26 5 9
7 17 4 17 -3 0 -8 -7 -11 -15z"/>
<path d="M478 3973 c7 -3 16 -2 19 1 4 3 -2 6 -13 5 -11 0 -14 -3 -6 -6z"/>
<path d="M513 3965 c0 -8 4 -15 9 -15 4 0 8 4 8 9 0 6 -4 12 -8 15 -5 3 -9 -1
-9 -9z"/>
<path d="M593 3965 c0 -8 4 -15 9 -15 4 0 8 4 8 9 0 6 -4 12 -8 15 -5 3 -9 -1
-9 -9z"/>
<path d="M1910 3973 c5 -2 8 -9 4 -14 -3 -5 0 -9 6 -9 15 0 7 23 -8 26 -7 1
-8 0 -2 -3z"/>
<path d="M2088 3973 c-22 -5 -24 -20 -3 -20 8 0 16 6 19 14 3 7 4 12 3 12 -1
-1 -10 -3 -19 -6z"/>
<path d="M76 3958 c3 -5 10 -6 15 -3 13 9 11 12 -6 12 -8 0 -12 -4 -9 -9z"/>
<path d="M162 3961 c-11 -6 -9 -9 6 -13 15 -4 19 -2 15 8 -6 16 -4 16 -21 5z"/>
<path d="M430 3960 c0 -5 5 -10 10 -10 6 0 10 5 10 10 0 6 -4 10 -10 10 -5 0
-10 -4 -10 -10z"/>
<path d="M1990 3960 c0 -5 5 -10 10 -10 6 0 10 5 10 10 0 6 -4 10 -10 10 -5 0
-10 -4 -10 -10z"/>
<path d="M2230 3960 c0 -6 4 -9 9 -6 5 4 12 1 14 -4 3 -6 4 -5 3 2 -3 15 -26
23 -26 8z"/>
<path d="M66 3936 c6 -15 4 -17 -6 -11 -9 6 -11 4 -5 -4 5 -9 10 -10 18 -2 8
8 7 14 -2 24 -10 10 -11 8 -5 -7z"/>
<path d="M108 3928 c2 -10 9 -18 15 -18 6 0 7 3 4 7 -4 3 -3 11 3 17 6 8 3 12
-9 12 -12 0 -17 -6 -13 -18z"/>
<path d="M477 3937 c4 -6 0 -8 -9 -5 -8 4 -15 1 -15 -6 0 -13 43 -14 54 -1 5
4 2 4 -6 0 -10 -6 -13 -4 -9 7 4 8 0 15 -8 15 -7 0 -10 -5 -7 -10z"/>
<path d="M562 3943 c-6 -2 -9 -10 -5 -16 4 -6 0 -8 -9 -5 -8 4 -15 0 -15 -7 0
-10 5 -11 16 -5 9 4 19 7 23 7 3 -1 10 2 15 7 5 6 2 6 -6 1 -11 -6 -13 -4 -8
8 3 10 5 17 4 16 -1 0 -8 -3 -15 -6z"/>
<path d="M642 3943 c-6 -2 -9 -10 -5 -16 4 -6 0 -8 -9 -5 -8 4 -15 0 -15 -7 0
-10 5 -11 16 -5 9 4 19 7 23 7 3 -1 10 2 15 7 5 6 2 6 -6 1 -11 -6 -13 -4 -8
8 3 10 5 17 4 16 -1 0 -8 -3 -15 -6z"/>
<path d="M720 3940 c-8 -5 -11 -10 -6 -10 6 0 1 -7 -10 -16 -19 -15 -19 -15 1
-6 11 6 23 9 27 9 3 -1 10 2 15 7 5 6 2 6 -6 1 -11 -6 -13 -4 -8 8 7 20 7 20
-13 7z"/>
<path d="M795 3940 c-3 -5 -3 -10 1 -10 4 0 -1 -7 -12 -16 -18 -15 -18 -15 0
-6 11 5 21 17 22 26 3 18 -2 21 -11 6z"/>
<path d="M953 3943 c4 -3 1 -13 -6 -22 -11 -14 -10 -14 6 -2 20 15 22 31 5 31
-6 0 -8 -3 -5 -7z"/>
<path d="M1270 3940 c14 -9 7 -14 -13 -11 -5 1 -6 -2 -3 -7 6 -11 43 -9 53 3
5 4 2 4 -6 0 -10 -6 -13 -4 -9 6 4 10 -1 15 -15 17 -17 1 -19 -1 -7 -8z"/>
<path d="M1360 3940 c-8 -5 -11 -10 -6 -10 6 0 1 -7 -10 -16 -19 -15 -19 -15
1 -6 11 6 23 9 27 9 3 -1 10 2 15 7 5 6 2 6 -6 1 -11 -6 -13 -4 -8 8 7 20 7
20 -13 7z"/>
<path d="M1439 3948 c-5 -18 -6 -38 -1 -34 7 8 12 36 6 36 -2 0 -4 -1 -5 -2z"/>
<path d="M1787 3929 c6 -23 9 -24 16 -5 3 8 0 17 -7 19 -10 4 -12 -1 -9 -14z"/>
<path d="M1867 3929 c6 -22 20 -26 20 -4 0 8 -6 16 -13 19 -7 3 -10 -2 -7 -15z"/>
<path d="M1947 3929 c6 -22 20 -26 20 -4 0 8 -6 16 -13 19 -7 3 -10 -2 -7 -15z"/>
<path d="M2028 3928 c2 -10 9 -18 15 -18 6 0 7 3 4 7 -4 3 -3 11 3 17 6 8 3
12 -9 12 -12 0 -17 -6 -13 -18z"/>
<path d="M316 3927 c3 -10 9 -15 12 -12 3 3 0 11 -7 18 -10 9 -11 8 -5 -6z"/>
<path d="M2208 3933 c-10 -2 -18 -9 -18 -15 0 -6 3 -8 7 -5 3 4 11 3 17 -3 8
-6 12 -3 12 11 0 10 0 18 -1 18 0 -1 -8 -3 -17 -6z"/>
<path d="M20 3926 c0 -2 8 -10 18 -17 15 -13 16 -12 3 4 -13 16 -21 21 -21 13z"/>
<path d="M193 3915 c0 -8 6 -16 13 -19 7 -3 10 2 7 15 -6 22 -20 26 -20 4z"/>
<path d="M270 3919 c0 -3 9 -9 19 -12 13 -3 18 0 15 7 -5 13 -34 18 -34 5z"/>
<path d="M390 3920 c0 -4 7 -13 15 -20 13 -11 14 -10 9 5 -6 14 -4 16 7 10 8
-5 11 -4 6 0 -10 12 -37 15 -37 5z"/>
<path d="M2107 3911 c-3 -13 0 -18 7 -15 7 3 13 11 13 19 0 22 -14 18 -20 -4z"/>
<path d="M2310 3926 c0 -2 9 -6 20 -9 11 -3 18 -1 14 4 -5 9 -34 13 -34 5z"/>
<path d="M357 3897 c4 -6 0 -8 -8 -5 -10 4 -15 -1 -15 -13 0 -14 3 -16 15 -6
12 10 14 9 9 -4 -4 -9 -1 -16 7 -16 10 0 11 5 5 17 -6 10 -5 21 1 27 6 6 5 10
-5 10 -8 0 -12 -5 -9 -10z"/>
<path d="M2160 3894 c-11 -12 -10 -18 3 -30 9 -8 13 -9 7 -3 -6 8 -5 19 1 31
12 22 6 24 -11 2z"/>
<path d="M133 3885 c0 -7 8 -10 19 -7 10 2 18 6 18 7 0 1 -8 5 -18 7 -11 3
-19 0 -19 -7z"/>
<path d="M234 3889 c-3 -6 1 -18 11 -27 16 -16 17 -16 7 4 -6 12 -8 24 -5 28
3 3 4 6 0 6 -3 0 -9 -5 -13 -11z"/>
<path d="M1822 3884 c11 -11 21 -14 26 -9 4 6 6 9 3 8 -2 -1 -13 3 -25 9 -20
10 -20 10 -4 -8z"/>
<path d="M1902 3887 c10 -8 15 -16 12 -19 -2 -3 2 -8 10 -11 11 -4 13 -1 9 10
-5 12 -3 14 8 8 8 -4 12 -6 9 -2 -3 3 -9 6 -15 7 -5 1 -19 6 -30 12 -18 8 -19
8 -3 -5z"/>
<path d="M1982 3884 c11 -11 21 -14 26 -9 4 6 6 9 3 8 -2 -1 -13 3 -25 9 -20
10 -20 10 -4 -8z"/>
<path d="M2053 3885 c0 -8 7 -11 16 -7 14 5 14 4 1 -14 -14 -18 -14 -18 3 -5
22 17 22 27 -1 33 -11 3 -19 0 -19 -7z"/>
<path d="M2235 3889 c-4 -6 -5 -12 -2 -15 2 -3 7 2 10 11 7 17 1 20 -8 4z"/>
<path d="M60 3885 c0 -7 30 -13 34 -7 3 4 -4 9 -15 9 -10 1 -19 0 -19 -2z"/>
<path d="M430 3880 c0 -5 5 -10 10 -10 6 0 10 5 10 10 0 6 -4 10 -10 10 -5 0
-10 -4 -10 -10z"/>
<path d="M508 3872 c-3 -11 0 -19 7 -19 8 0 11 7 7 16 -5 14 -4 14 14 1 18
-14 18 -14 5 3 -17 22 -27 22 -33 -1z"/>
<path d="M580 3875 c-11 -13 -10 -14 5 -9 14 6 16 4 10 -7 -5 -8 -4 -11 0 -6
12 10 15 37 5 37 -4 0 -13 -7 -20 -15z"/>
<path d="M667 3871 c-4 -17 -3 -21 5 -13 5 5 8 16 6 23 -3 8 -7 3 -11 -10z"/>
<path d="M753 3871 c0 -11 5 -18 9 -15 4 3 5 11 1 19 -7 21 -12 19 -10 -4z"/>
<path d="M1307 3871 c-4 -17 -3 -21 5 -13 5 5 8 16 6 23 -3 8 -7 3 -11 -10z"/>
<path d="M1393 3871 c0 -11 5 -18 9 -15 4 3 5 11 1 19 -7 21 -12 19 -10 -4z"/>
<path d="M1762 3881 c-10 -6 -10 -10 3 -21 13 -11 14 -10 9 5 -6 14 -4 16 6
10 9 -5 11 -4 6 3 -8 14 -7 14 -24 3z"/>
<path d="M2370 3880 c0 -5 5 -10 11 -10 5 0 7 5 4 10 -3 6 -8 10 -11 10 -2 0
-4 -4 -4 -10z"/>
<path d="M100 3860 c-9 -6 -10 -10 -3 -10 6 0 15 5 18 10 8 12 4 12 -15 0z"/>
<path d="M145 3860 c-3 -6 1 -7 9 -4 18 7 21 14 7 14 -6 0 -13 -4 -16 -10z"/>
<path d="M187 3864 c7 -3 9 -13 6 -22 -4 -14 -3 -14 5 -2 12 16 7 30 -11 29
-9 0 -9 -2 0 -5z"/>
<path d="M402 3858 c-7 -7 -12 -16 -12 -22 0 -5 3 -6 7 -3 3 4 11 2 18 -3 8
-7 12 -5 12 5 0 8 -5 11 -10 8 -6 -4 -8 0 -4 10 8 20 5 21 -11 5z"/>
<path d="M470 3856 c13 -18 13 -19 -1 -14 -9 4 -16 1 -16 -7 0 -7 8 -10 19 -7
23 6 23 16 1 33 -17 13 -17 13 -3 -5z"/>
<path d="M953 3863 c4 -3 1 -13 -6 -22 -11 -14 -10 -14 6 -2 20 15 22 31 5 31
-6 0 -8 -3 -5 -7z"/>
<path d="M1707 3864 c7 -3 9 -13 6 -22 -4 -14 -3 -14 5 -2 12 16 7 30 -11 29
-9 0 -9 -2 0 -5z"/>
<path d="M2108 3848 c2 -10 9 -18 15 -18 6 0 7 3 4 7 -4 3 -3 11 3 17 6 8 3
12 -9 12 -12 0 -17 -6 -13 -18z"/>
<path d="M316 3847 c3 -10 9 -15 12 -12 3 3 0 11 -7 18 -10 9 -11 8 -5 -6z"/>
<path d="M1611 3853 c-1 -18 13 -23 29 -11 12 8 12 9 -2 5 -9 -3 -19 -1 -22 6
-3 9 -5 9 -5 0z"/>
<path d="M1856 3846 c3 -7 11 -13 19 -13 22 0 18 14 -4 20 -13 3 -18 0 -15 -7z"/>
<path d="M2014 3839 c0 -12 4 -15 12 -9 6 6 14 7 17 3 4 -3 7 -2 7 4 0 6 -8
13 -18 15 -12 4 -18 -1 -18 -13z"/>
<path d="M2208 3853 c-10 -2 -18 -9 -18 -15 0 -6 3 -8 7 -5 3 4 11 3 17 -3 8
-6 12 -3 12 11 0 10 0 18 -1 18 0 -1 -8 -3 -17 -6z"/>
<path d="M282 3841 c-11 -6 -9 -9 6 -13 15 -4 19 -2 15 8 -6 16 -4 16 -21 5z"/>
<path d="M550 3840 c0 -5 5 -10 10 -10 6 0 10 5 10 10 0 6 -4 10 -10 10 -5 0
-10 -4 -10 -10z"/>
<path d="M630 3840 c0 -5 5 -10 10 -10 6 0 10 5 10 10 0 6 -4 10 -10 10 -5 0
-10 -4 -10 -10z"/>
<path d="M710 3838 c0 -4 4 -8 9 -8 6 0 12 4 15 8 3 5 -1 9 -9 9 -8 0 -15 -4
-15 -9z"/>
<path d="M790 3845 c0 -7 30 -13 34 -7 3 4 -4 9 -15 9 -10 1 -19 0 -19 -2z"/>
<path d="M1350 3838 c0 -4 4 -8 9 -8 6 0 12 4 15 8 3 5 -1 9 -9 9 -8 0 -15 -4
-15 -9z"/>
<path d="M1430 3845 c0 -7 30 -13 34 -7 3 4 -4 9 -15 9 -10 1 -19 0 -19 -2z"/>
<path d="M1800 3838 c-12 -8 -12 -9 2 -5 9 3 19 1 22 -6 3 -9 5 -9 5 0 1 18
-13 23 -29 11z"/>
<path d="M1950 3839 c0 -3 9 -9 19 -12 13 -3 18 0 15 7 -5 13 -34 18 -34 5z"/>
<path d="M2415 3840 c-3 -5 -1 -10 4 -10 6 0 11 5 11 10 0 6 -2 10 -4 10 -3 0
-8 -4 -11 -10z"/>
<path d="M235 3821 c6 -11 4 -13 -8 -8 -23 9 -21 0 2 -13 15 -7 19 -7 17 5 -1
8 -6 18 -11 22 -4 5 -5 2 0 -6z"/>
<path d="M357 3817 c4 -7 -1 -8 -12 -3 -15 5 -16 4 -5 -9 7 -9 13 -14 14 -13
1 2 7 10 14 19 9 13 9 16 -3 16 -8 0 -11 -5 -8 -10z"/>
<path d="M514 3811 c13 -12 18 -13 28 -2 11 10 9 11 -6 5 -12 -5 -17 -4 -13 3
3 5 -1 10 -9 10 -13 0 -13 -2 0 -16z"/>
<path d="M604 3815 c-4 -8 -10 -13 -14 -10 -5 3 -11 1 -14 -4 -4 -5 1 -8 10
-7 15 2 42 36 29 36 -3 0 -8 -7 -11 -15z"/>
<path d="M679 3828 c-9 -30 -6 -37 12 -28 23 13 25 22 2 13 -11 -4 -14 -3 -9
5 4 7 5 12 2 12 -3 0 -6 -1 -7 -2z"/>
<path d="M1233 3809 c-2 -23 3 -25 10 -4 4 8 3 16 -1 19 -4 3 -9 -4 -9 -15z"/>
<path d="M1319 3828 c-11 -38 -1 -49 21 -23 11 13 10 14 -5 9 -13 -5 -16 -4
-11 4 4 7 5 12 2 12 -3 0 -6 -1 -7 -2z"/>
<path d="M1753 3809 c-2 -23 3 -25 10 -4 4 8 3 16 -1 19 -4 3 -9 -4 -9 -15z"/>
<path d="M1907 3813 c4 -10 2 -14 -5 -9 -6 3 -14 1 -18 -5 -4 -7 -3 -9 4 -5 5
3 13 0 15 -6 4 -10 6 -10 6 0 1 7 5 11 9 8 5 -3 9 1 9 9 0 8 -6 16 -13 19 -9
3 -11 -1 -7 -11z"/>
<path d="M2068 3808 c2 -10 6 -18 7 -18 1 0 5 8 7 18 3 11 0 19 -7 19 -7 0
-10 -8 -7 -19z"/>
<path d="M2158 3808 c2 -10 6 -18 7 -18 1 0 5 8 7 18 3 11 0 19 -7 19 -7 0
-10 -8 -7 -19z"/>
<path d="M974 3809 c1 -7 10 -13 19 -15 9 -1 15 2 11 7 -3 5 -9 7 -14 4 -4 -3
-11 0 -13 5 -3 6 -4 5 -3 -1z"/>
<path d="M1580 3809 c0 -5 -4 -8 -9 -4 -5 3 -12 1 -15 -4 -4 -5 2 -8 11 -7 15
3 33 26 19 26 -3 0 -6 -5 -6 -11z"/>
<path d="M1726 3803 c-6 -14 -5 -15 5 -6 7 7 10 15 7 18 -3 3 -9 -2 -12 -12z"/>
<path d="M2136 3807 c3 -10 9 -15 12 -12 3 3 0 11 -7 18 -10 9 -11 8 -5 -6z"/>
<path d="M2233 3803 c-3 -10 -8 -22 -11 -27 -3 -5 0 -6 5 -3 11 7 25 47 17 47
-3 0 -7 -8 -11 -17z"/>
<path d="M430 3799 c0 -5 5 -7 10 -4 6 3 10 8 10 11 0 2 -4 4 -10 4 -5 0 -10
-5 -10 -11z"/>
<path d="M486 3802 c-3 -5 1 -9 9 -9 8 0 12 4 9 9 -3 4 -7 8 -9 8 -2 0 -6 -4
-9 -8z"/>
<path d="M904 3795 c-18 -15 -18 -15 0 -8 15 5 17 3 11 -8 -5 -8 -4 -11 0 -6
8 7 17 37 11 37 -1 0 -11 -7 -22 -15z"/>
<path d="M1055 3799 c-6 -8 -4 -10 5 -4 10 6 12 4 6 -11 -6 -15 -5 -17 5 -6 9
9 10 15 2 23 -8 8 -13 7 -18 -2z"/>
<path d="M1136 3798 c3 -5 8 -7 12 -4 3 3 11 -2 19 -12 13 -16 14 -16 5 2 -5
11 -17 21 -26 22 -9 1 -13 -2 -10 -8z"/>
<path d="M1373 3796 c-4 -5 -1 -6 7 -1 10 6 12 3 7 -11 -7 -18 -6 -18 8 1 9
11 18 18 20 15 2 -3 6 -3 9 1 3 3 -6 5 -20 5 -14 0 -28 -4 -31 -10z"/>
<path d="M1466 3801 c-3 -4 6 -7 19 -7 14 0 22 2 19 5 -8 8 -34 10 -38 2z"/>
<path d="M1643 3797 c-3 -6 -1 -7 5 -3 5 3 12 1 14 -6 3 -8 6 -7 10 3 7 17
-19 22 -29 6z"/>
<path d="M1815 3799 c-3 -4 2 -6 10 -5 21 3 28 13 10 13 -9 0 -18 -4 -20 -8z"/>
<path d="M1990 3799 c0 -5 5 -7 10 -4 6 3 10 8 10 11 0 2 -4 4 -10 4 -5 0 -10
-5 -10 -11z"/>
<path d="M2051 3794 c0 -11 3 -14 6 -6 3 7 2 16 -1 19 -3 4 -6 -2 -5 -13z"/>
<path d="M2297 3796 c-4 -11 -1 -13 10 -9 12 5 14 3 8 -7 -5 -9 -4 -11 4 -6 9
6 9 11 0 22 -14 17 -16 17 -22 0z"/>
<path d="M170 3776 c0 -2 8 -10 18 -17 15 -13 16 -12 3 4 -13 16 -21 21 -21
13z"/>
<path d="M965 3770 c-16 -7 -17 -9 -3 -9 9 -1 20 4 23 9 7 11 7 11 -20 0z"/>
<path d="M1285 3770 c-16 -7 -17 -9 -3 -9 9 -1 20 4 23 9 7 11 7 11 -20 0z"/>
<path d="M2368 3773 c-22 -5 -24 -20 -3 -20 8 0 16 6 19 14 3 7 4 12 3 12 -1
-1 -10 -3 -19 -6z"/>
<path d="M2411 3773 c-1 -18 13 -23 29 -11 12 8 12 9 -2 5 -9 -3 -19 -1 -22 6
-3 9 -5 9 -5 0z"/>
<path d="M210 3760 c0 -5 5 -10 10 -10 6 0 10 5 10 10 0 6 -4 10 -10 10 -5 0
-10 -4 -10 -10z"/>
<path d="M865 3759 c-3 -4 2 -6 10 -5 21 3 28 13 10 13 -9 0 -18 -4 -20 -8z"/>
<path d="M1014 3758 c-5 -7 -2 -8 6 -3 10 6 12 4 6 -10 -5 -15 -4 -16 9 -5 19
15 19 16 0 23 -8 4 -17 1 -21 -5z"/>
<path d="M1110 3762 c0 -5 7 -9 15 -9 8 0 12 4 9 9 -3 4 -9 8 -15 8 -5 0 -9
-4 -9 -8z"/>
<path d="M1202 3761 c-10 -6 -10 -10 3 -21 13 -11 14 -10 9 5 -6 14 -4 16 6
10 9 -5 11 -4 6 3 -8 14 -7 14 -24 3z"/>
<path d="M1333 3757 c-4 -6 -1 -7 7 -2 10 6 12 4 6 -10 -5 -15 -4 -16 9 -5 8
7 15 16 15 20 0 10 -30 8 -37 -3z"/>
<path d="M1430 3762 c0 -5 7 -9 15 -9 8 0 12 4 9 9 -3 4 -9 8 -15 8 -5 0 -9
-4 -9 -8z"/>
<path d="M1520 3760 c-12 -7 -10 -9 7 -7 12 0 19 5 17 9 -6 10 -6 10 -24 -2z"/>
<path d="M2177 3756 c-4 -10 1 -12 14 -9 23 6 24 9 5 16 -8 3 -17 0 -19 -7z"/>
<path d="M2267 3751 c-3 -13 0 -18 7 -15 7 3 13 11 13 19 0 22 -14 18 -20 -4z"/>
<path d="M2470 3750 c-11 -7 -11 -10 -2 -10 8 0 10 -5 6 -12 -4 -7 -3 -9 1 -5
7 6 17 37 12 37 -1 0 -9 -5 -17 -10z"/>
<path d="M1075 3740 c-3 -5 -4 -10 0 -10 3 0 1 -10 -5 -22 -10 -21 -10 -21 3
-6 8 10 16 15 19 12 3 -2 8 2 11 10 4 11 1 13 -10 9 -11 -4 -14 -2 -9 5 4 7 5
12 2 12 -3 0 -8 -4 -11 -10z"/>
<path d="M1155 3740 c6 -10 4 -12 -8 -7 -11 4 -14 2 -10 -9 3 -8 8 -12 11 -10
3 3 11 -2 19 -12 13 -15 13 -15 4 4 -6 12 -8 24 -5 27 3 3 0 8 -7 13 -8 5 -10
3 -4 -6z"/>
<path d="M1395 3740 c-3 -5 -4 -10 0 -10 3 0 1 -8 -4 -18 -7 -14 -6 -19 4 -19
7 0 11 7 7 15 -3 9 -1 13 5 9 6 -4 13 0 16 8 4 10 1 12 -10 8 -11 -4 -14 -2
-9 5 4 7 5 12 2 12 -3 0 -8 -4 -11 -10z"/>
<path d="M1470 3745 c5 -22 -1 -29 -11 -15 -8 12 -10 12 -7 1 5 -18 37 -23 34
-5 -1 7 -6 17 -10 21 -4 4 -7 4 -6 -2z"/>
<path d="M2320 3735 c-10 -12 -10 -18 -2 -26 7 -5 10 -6 7 -3 -2 4 0 15 6 25
12 23 6 25 -11 4z"/>
<path d="M997 3733 c-10 -9 -9 -23 1 -23 5 0 9 7 9 15 0 17 -1 18 -10 8z"/>
<path d="M1233 3725 c0 -8 4 -15 9 -15 4 0 8 4 8 9 0 6 -4 12 -8 15 -5 3 -9
-1 -9 -9z"/>
<path d="M1554 3726 c1 -8 5 -18 8 -22 4 -3 5 1 4 10 -1 8 -5 18 -8 22 -4 3
-5 -1 -4 -10z"/>
<path d="M2501 3737 c2 -1 13 -9 24 -17 19 -14 19 -14 6 3 -7 9 -18 17 -24 17
-6 0 -8 -1 -6 -3z"/>
<path d="M250 3720 c0 -5 5 -10 10 -10 6 0 10 5 10 10 0 6 -4 10 -10 10 -5 0
-10 -4 -10 -10z"/>
<path d="M1310 3720 c0 -5 5 -10 10 -10 6 0 10 5 10 10 0 6 -4 10 -10 10 -5 0
-10 -4 -10 -10z"/>
<path d="M2070 3725 c0 -7 30 -13 34 -7 3 4 -4 9 -15 9 -10 1 -19 0 -19 -2z"/>
<path d="M2390 3722 c0 -5 7 -9 15 -9 8 0 12 4 9 9 -3 4 -9 8 -15 8 -5 0 -9
-4 -9 -8z"/>
<path d="M2216 3711 c-4 -5 3 -7 14 -4 23 6 26 13 6 13 -8 0 -17 -4 -20 -9z"/>
<path d="M964 3695 c-4 -8 -10 -13 -14 -10 -5 3 -11 1 -14 -3 -7 -12 41 -9 51
2 5 5 2 6 -6 1 -11 -6 -13 -4 -8 8 3 10 4 17 1 17 -2 0 -7 -7 -10 -15z"/>
<path d="M1268 3691 c4 -10 1 -12 -8 -6 -9 5 -11 4 -6 -4 4 -6 12 -9 17 -5 5
3 16 1 23 -5 9 -8 13 -7 13 4 0 8 -5 11 -10 8 -6 -4 -8 0 -5 8 4 10 -1 15 -12
15 -11 0 -16 -5 -12 -15z"/>
<path d="M1587 3693 c5 -12 3 -14 -8 -8 -8 5 -11 4 -6 0 4 -5 14 -10 22 -11
12 -2 12 2 5 17 -13 23 -22 25 -13 2z"/>
<path d="M2285 3702 c-13 -9 -17 -32 -6 -32 5 0 11 9 14 20 6 22 6 22 -8 12z"/>
<path d="M2507 3689 c6 -22 20 -26 20 -4 0 8 -6 16 -13 19 -7 3 -10 -2 -7 -15z"/>
<path d="M1035 3690 c6 -9 4 -12 -7 -8 -8 4 -15 1 -15 -7 0 -7 8 -10 19 -7 21
5 23 17 6 28 -7 5 -8 3 -3 -6z"/>
<path d="M1355 3690 c6 -9 4 -12 -7 -8 -8 4 -15 1 -15 -7 0 -7 8 -10 19 -7 21
5 23 17 6 28 -7 5 -8 3 -3 -6z"/>
<path d="M2368 3693 c-22 -5 -24 -20 -3 -20 8 0 16 6 19 14 3 7 4 12 3 12 -1
-1 -10 -3 -19 -6z"/>
<path d="M2411 3693 c-1 -18 13 -23 29 -11 12 8 12 9 -2 5 -9 -3 -19 -1 -22 6
-3 9 -5 9 -5 0z"/>
<path d="M276 3682 c-2 -4 -1 -14 4 -22 7 -11 9 -9 7 8 -1 24 -3 26 -11 14z"/>
<path d="M854 3678 c-3 -5 -2 -8 3 -7 20 4 27 -2 13 -12 -12 -8 -12 -10 -1 -7
19 5 23 35 4 35 -7 0 -16 -4 -19 -9z"/>
<path d="M1110 3680 c0 -5 5 -10 10 -10 6 0 10 5 10 10 0 6 -4 10 -10 10 -5 0
-10 -4 -10 -10z"/>
<path d="M1430 3682 c0 -5 7 -9 15 -9 8 0 12 4 9 9 -3 4 -9 8 -15 8 -5 0 -9
-4 -9 -8z"/>
<path d="M2113 3678 c3 -9 1 -19 -6 -22 -9 -3 -9 -5 0 -5 18 -1 23 13 11 29
-8 12 -9 12 -5 -2z"/>
<path d="M2193 3678 c3 -9 1 -19 -6 -22 -9 -3 -9 -5 0 -5 18 -1 23 13 11 29
-8 12 -9 12 -5 -2z"/>
<path d="M1190 3676 c0 -2 9 -6 20 -9 11 -3 18 -1 14 4 -5 9 -34 13 -34 5z"/>
<path d="M1510 3676 c0 -2 9 -6 20 -9 11 -3 18 -1 14 4 -5 9 -34 13 -34 5z"/>
<path d="M2559 3673 c-1 -5 -1 -12 0 -17 1 -5 -5 -6 -14 -2 -10 3 -14 2 -10
-5 9 -14 28 -6 31 14 1 9 0 17 -2 17 -2 0 -5 -3 -5 -7z"/>
<path d="M1079 3668 c-6 -20 -2 -55 7 -55 7 0 10 7 6 15 -3 9 -1 13 5 9 5 -3
10 0 10 7 0 8 -7 12 -15 8 -10 -3 -13 -1 -8 6 4 7 5 12 2 12 -3 0 -6 -1 -7 -2z"/>
<path d="M1155 3661 c6 -10 4 -13 -7 -9 -8 4 -15 1 -15 -7 0 -8 7 -11 16 -7
13 5 14 3 4 -9 -10 -13 -10 -16 2 -16 8 0 11 5 8 10 -4 7 1 8 13 4 17 -6 17
-6 3 5 -9 7 -16 17 -17 21 0 5 -4 12 -8 15 -4 4 -3 1 1 -7z"/>
<path d="M1399 3668 c-6 -20 -2 -55 7 -55 7 0 10 7 6 15 -3 9 -1 13 5 9 5 -3
10 0 10 7 0 8 -7 12 -15 8 -10 -3 -13 -1 -8 6 4 7 5 12 2 12 -3 0 -6 -1 -7 -2z"/>
<path d="M1475 3661 c6 -10 4 -13 -7 -9 -8 4 -15 1 -15 -7 0 -8 7 -11 15 -7
10 3 13 1 8 -6 -3 -6 -1 -14 5 -18 8 -5 9 -3 4 6 -6 10 -3 12 11 7 17 -6 17
-6 3 5 -9 7 -16 17 -17 21 0 5 -4 12 -8 15 -4 4 -3 1 1 -7z"/>
<path d="M2318 3652 c4 -11 1 -13 -8 -7 -9 5 -11 4 -6 -3 11 -17 23 -15 28 6
3 11 0 19 -7 19 -8 0 -11 -7 -7 -15z"/>
<path d="M620 3649 c0 -5 -4 -8 -9 -4 -5 3 -12 1 -15 -4 -4 -5 2 -8 11 -7 15
3 33 26 19 26 -3 0 -6 -5 -6 -11z"/>
<path d="M948 3653 c7 -3 16 -2 19 1 4 3 -2 6 -13 5 -11 0 -14 -3 -6 -6z"/>
<path d="M2246 3651 c-19 -7 -19 -8 0 -13 13 -3 21 0 21 8 0 8 -1 14 -1 13 -1
0 -10 -4 -20 -8z"/>
<path d="M2596 3645 c10 -8 23 -15 28 -15 6 0 1 7 -10 15 -10 8 -23 15 -28 15
-6 0 -1 -7 10 -15z"/>
<path d="M330 3638 c0 -6 3 -8 7 -5 3 4 13 1 22 -6 14 -11 14 -10 2 6 -15 20
-31 22 -31 5z"/>
<path d="M420 3640 c8 -5 20 -10 25 -10 6 0 3 5 -5 10 -8 5 -19 10 -25 10 -5
0 -3 -5 5 -10z"/>
<path d="M505 3639 c-3 -4 2 -6 10 -5 21 3 28 13 10 13 -9 0 -18 -4 -20 -8z"/>
<path d="M988 3632 c-3 -11 0 -19 7 -19 8 0 11 7 7 15 -4 11 -1 13 8 7 9 -5
11 -4 6 3 -11 17 -23 15 -28 -6z"/>
<path d="M1224 3638 c-4 -7 -4 -10 1 -6 4 4 14 0 21 -10 12 -15 12 -15 7 6 -6
24 -18 29 -29 10z"/>
<path d="M1308 3632 c-3 -11 0 -19 7 -19 8 0 11 7 7 16 -5 14 -4 14 14 1 18
-14 18 -14 5 3 -17 22 -27 22 -33 -1z"/>
<path d="M1560 3636 c0 -8 4 -17 9 -20 5 -4 7 3 4 14 -6 23 -13 26 -13 6z"/>
<path d="M2393 3643 c4 -3 3 -11 -3 -17 -6 -8 -3 -12 9 -12 12 0 17 6 13 18
-2 10 -9 18 -15 18 -6 0 -7 -3 -4 -7z"/>
<path d="M2470 3638 c0 -4 4 -8 9 -8 6 0 12 4 15 8 3 5 -1 9 -9 9 -8 0 -15 -4
-15 -9z"/>
<path d="M388 3611 c4 -10 1 -12 -8 -6 -9 6 -11 4 -6 -4 5 -7 10 -10 13 -7 3
3 13 1 23 -4 12 -6 17 -5 17 5 0 8 -7 11 -16 7 -13 -5 -14 -3 -4 9 10 12 8 15
-6 15 -12 0 -17 -5 -13 -15z"/>
<path d="M468 3612 c3 -9 1 -13 -5 -9 -5 3 -10 0 -10 -7 0 -11 5 -11 17 -4 19
12 22 35 4 35 -7 0 -10 -7 -6 -15z"/>
<path d="M1643 3622 c-7 -4 -9 -13 -4 -21 6 -9 10 -7 14 8 3 12 4 21 4 21 -1
0 -7 -4 -14 -8z"/>
<path d="M1716 3622 c-2 -4 0 -14 6 -22 8 -12 9 -12 5 2 -3 9 -1 19 6 22 9 3
9 5 0 5 -6 1 -14 -3 -17 -7z"/>
<path d="M2228 3623 c7 -3 16 -2 19 1 4 3 -2 6 -13 5 -11 0 -14 -3 -6 -6z"/>
<path d="M2288 3613 c-22 -5 -24 -20 -3 -20 8 0 16 6 19 14 3 7 4 12 3 12 -1
-1 -10 -3 -19 -6z"/>
<path d="M2334 3599 c0 -12 4 -15 12 -9 6 6 14 7 17 3 4 -3 7 -2 7 4 0 6 -8
13 -18 15 -12 4 -18 -1 -18 -13z"/>
<path d="M2455 3610 c-4 -6 -11 -8 -16 -5 -5 4 -9 2 -9 -3 0 -5 8 -12 18 -14
12 -4 18 1 18 13 0 22 -2 23 -11 9z"/>
<path d="M2496 3606 c3 -7 11 -13 19 -13 22 0 18 14 -4 20 -13 3 -18 0 -15 -7z"/>
<path d="M536 3602 c-3 -4 4 -9 15 -9 23 -2 25 3 4 10 -8 4 -16 3 -19 -1z"/>
<path d="M956 3593 c-6 -14 -5 -15 5 -6 7 7 10 15 7 18 -3 3 -9 -2 -12 -12z"/>
<path d="M1030 3600 c0 -5 5 -10 10 -10 6 0 10 5 10 10 0 6 -4 10 -10 10 -5 0
-10 -4 -10 -10z"/>
<path d="M1110 3600 c0 -5 5 -10 10 -10 6 0 10 5 10 10 0 6 -4 10 -10 10 -5 0
-10 -4 -10 -10z"/>
<path d="M1190 3600 c0 -5 5 -10 10 -10 6 0 10 5 10 10 0 6 -4 10 -10 10 -5 0
-10 -4 -10 -10z"/>
<path d="M1270 3600 c0 -5 5 -10 10 -10 6 0 10 5 10 10 0 6 -4 10 -10 10 -5 0
-10 -4 -10 -10z"/>
<path d="M1350 3600 c0 -5 5 -10 10 -10 6 0 10 5 10 10 0 6 -4 10 -10 10 -5 0
-10 -4 -10 -10z"/>
<path d="M1430 3600 c0 -5 5 -10 10 -10 6 0 10 5 10 10 0 6 -4 10 -10 10 -5 0
-10 -4 -10 -10z"/>
<path d="M1510 3600 c0 -5 5 -10 10 -10 6 0 10 5 10 10 0 6 -4 10 -10 10 -5 0
-10 -4 -10 -10z"/>
<path d="M595 3580 c-3 -5 -4 -10 0 -10 3 0 1 -10 -5 -22 -11 -22 -11 -23 5
-3 9 11 19 19 23 17 3 -2 8 2 10 10 2 9 0 8 -7 -2 -10 -13 -15 -8 -12 13 2 10
-7 9 -14 -3z"/>
<path d="M999 3588 c-11 -38 -1 -49 21 -23 11 13 10 14 -5 9 -13 -5 -16 -4
-11 4 4 7 5 12 2 12 -3 0 -6 -1 -7 -2z"/>
<path d="M1078 3571 c5 -14 4 -14 -14 -1 -18 14 -18 14 -5 -2 17 -23 27 -23
33 0 3 11 0 19 -7 19 -8 0 -11 -7 -7 -16z"/>
<path d="M1148 3568 c6 -23 16 -23 33 0 13 16 13 16 -5 2 -18 -13 -19 -13 -14
1 4 9 1 16 -7 16 -7 0 -10 -8 -7 -19z"/>
<path d="M1235 3581 c6 -11 4 -13 -10 -7 -15 5 -16 4 -5 -9 7 -8 16 -15 20
-15 10 0 7 27 -5 37 -4 5 -5 2 0 -6z"/>
<path d="M1310 3575 c5 -7 7 -15 3 -18 -3 -4 -2 -7 4 -7 6 0 16 7 23 15 11 13
10 14 -5 9 -11 -5 -16 -4 -12 3 3 5 0 10 -8 10 -10 0 -12 -4 -5 -12z"/>
<path d="M1397 3577 c4 -7 -1 -8 -12 -3 -15 5 -16 4 -5 -9 7 -8 17 -15 23 -15
6 0 7 3 4 7 -4 3 -2 11 3 18 7 8 5 12 -5 12 -8 0 -11 -5 -8 -10z"/>
<path d="M1468 3568 c5 -21 17 -23 28 -6 5 7 3 8 -6 3 -9 -6 -12 -4 -8 7 4 8
1 15 -7 15 -7 0 -10 -8 -7 -19z"/>
<path d="M1555 3581 c6 -11 4 -13 -10 -7 -15 5 -16 4 -5 -9 7 -8 16 -15 20
-15 10 0 7 27 -5 37 -4 5 -5 2 0 -6z"/>
<path d="M2244 3579 c-3 -6 0 -17 8 -25 13 -13 15 -13 15 0 0 8 -5 12 -10 9
-6 -4 -8 0 -4 10 7 19 2 23 -9 6z"/>
<path d="M2387 3573 c4 -10 2 -14 -4 -10 -5 3 -10 -1 -10 -9 0 -10 4 -11 10
-5 6 6 17 7 27 1 12 -6 17 -5 17 5 0 7 -7 11 -15 7 -9 -3 -13 -1 -9 5 4 6 0
13 -8 16 -10 4 -12 1 -8 -10z"/>
<path d="M2547 3573 c5 -12 3 -14 -8 -8 -8 5 -11 4 -6 0 4 -5 14 -10 22 -11
12 -2 12 2 5 17 -13 23 -22 25 -13 2z"/>
<path d="M2674 3561 c0 -16 4 -27 8 -25 4 2 5 14 3 26 -7 32 -13 32 -11 -1z"/>
<path d="M519 3578 c-5 -18 -6 -38 -1 -34 7 8 12 36 6 36 -2 0 -4 -1 -5 -2z"/>
<path d="M1610 3570 c-9 -6 -10 -10 -3 -10 6 0 15 5 18 10 8 12 4 12 -15 0z"/>
<path d="M1690 3570 c-8 -5 -12 -12 -9 -15 4 -3 12 1 19 10 14 17 11 19 -10 5z"/>
<path d="M2617 3569 c7 -7 15 -10 18 -7 3 3 -2 9 -12 12 -14 6 -15 5 -6 -5z"/>
<path d="M419 3553 c-13 -17 -13 -17 5 -3 18 13 19 13 14 -1 -4 -9 -1 -16 7
-16 7 0 10 8 7 19 -6 23 -16 23 -33 1z"/>
<path d="M1736 3562 c-3 -4 4 -9 15 -9 23 -2 25 3 4 10 -8 4 -16 3 -19 -1z"/>
<path d="M2299 3553 c-13 -15 -12 -15 7 -5 16 8 24 8 34 -1 12 -10 12 -9 1 6
-17 21 -25 21 -42 0z"/>
<path d="M2464 3558 c-4 -7 -4 -10 1 -6 4 4 17 2 29 -4 19 -10 20 -10 7 5 -16
20 -27 21 -37 5z"/>
<path d="M2651 3554 c0 -11 3 -14 6 -6 3 7 2 16 -1 19 -3 4 -6 -2 -5 -13z"/>
<path d="M481 3536 c-9 -10 -8 -15 3 -19 9 -4 18 -1 22 5 5 7 2 8 -6 3 -10 -6
-12 -4 -7 8 8 21 3 22 -12 3z"/>
<path d="M891 3533 c-1 -18 13 -23 29 -11 12 8 12 9 -2 5 -9 -3 -19 -1 -22 6
-3 9 -5 9 -5 0z"/>
<path d="M972 3531 c-11 -7 -11 -9 0 -14 9 -3 15 1 15 9 0 8 -1 14 -1 14 -1 0
-7 -4 -14 -9z"/>
<path d="M1013 3526 c0 -8 5 -12 10 -9 6 4 8 0 5 -8 -4 -10 1 -15 13 -15 14 0
16 3 6 15 -10 12 -9 14 4 9 9 -4 16 -1 16 7 0 10 -5 11 -17 5 -10 -6 -21 -5
-27 1 -6 6 -10 5 -10 -5z"/>
<path d="M1093 3525 c0 -8 5 -11 10 -8 6 4 8 0 5 -8 -4 -10 1 -15 12 -15 11 0
16 5 12 15 -3 8 -1 12 5 8 5 -3 10 0 10 8 0 11 -4 12 -14 4 -9 -8 -17 -8 -26
0 -10 8 -14 7 -14 -4z"/>
<path d="M1173 3525 c0 -7 7 -11 15 -7 9 3 13 1 9 -5 -4 -6 0 -13 8 -16 10 -4
12 -1 8 10 -5 12 -3 14 8 8 8 -4 12 -6 9 -2 -3 3 -9 6 -15 7 -5 1 -17 6 -26
10 -11 6 -16 5 -16 -5z"/>
<path d="M1253 3525 c0 -5 12 -10 27 -10 15 0 27 5 27 10 0 6 -12 10 -27 10
-15 0 -27 -4 -27 -10z"/>
<path d="M1333 3525 c0 -8 7 -11 16 -7 13 5 14 3 4 -9 -10 -12 -8 -15 6 -15
12 0 17 5 13 15 -3 8 -1 12 5 8 5 -3 10 1 10 9 0 10 -4 11 -10 5 -6 -6 -17 -7
-27 -1 -12 6 -17 5 -17 -5z"/>
<path d="M1413 3525 c0 -8 7 -11 16 -7 13 5 14 3 4 -9 -10 -12 -8 -15 6 -15
12 0 17 5 13 15 -4 10 -1 12 9 6 8 -4 12 -6 9 -2 -3 3 -9 6 -15 7 -5 1 -17 6
-26 10 -11 6 -16 5 -16 -5z"/>
<path d="M1493 3525 c0 -7 7 -11 15 -7 9 3 13 1 9 -5 -4 -6 0 -13 8 -16 10 -4
12 -1 8 10 -5 12 -3 14 8 8 8 -4 12 -6 9 -2 -3 3 -9 6 -15 7 -5 1 -17 6 -26
10 -11 6 -16 5 -16 -5z"/>
<path d="M1577 3529 c7 -7 15 -10 18 -7 3 3 -2 9 -12 12 -14 6 -15 5 -6 -5z"/>
<path d="M1646 3531 c-17 -6 -17 -8 -4 -14 10 -3 19 0 22 9 3 8 4 14 3 13 -1
0 -11 -4 -21 -8z"/>
<path d="M1694 3519 c-3 -6 -3 -13 0 -16 3 -4 6 -1 6 5 0 6 7 9 15 6 8 -4 15
-4 15 -1 0 11 -30 16 -36 6z"/>
<path d="M2268 3512 c-4 -12 1 -18 13 -18 12 0 15 4 9 12 -6 6 -7 14 -3 17 3
4 2 7 -4 7 -6 0 -13 -8 -15 -18z"/>
<path d="M2348 3512 c-4 -12 1 -18 13 -18 12 0 15 4 9 12 -6 6 -7 14 -3 17 3
4 2 7 -4 7 -6 0 -13 -8 -15 -18z"/>
<path d="M2433 3515 c0 -8 6 -16 13 -19 7 -3 10 2 7 15 -6 22 -20 26 -20 4z"/>
<path d="M2513 3515 c0 -8 6 -16 13 -19 7 -3 10 2 7 15 -6 22 -20 26 -20 4z"/>
<path d="M536 3511 c-4 -5 3 -7 14 -4 23 6 26 13 6 13 -8 0 -17 -4 -20 -9z"/>
<path d="M437 3493 c3 -7 6 -13 8 -13 2 0 5 6 8 13 3 8 -1 14 -8 14 -7 0 -11
-6 -8 -14z"/>
<path d="M595 3501 c-9 -15 15 -25 28 -12 9 9 7 10 -7 5 -13 -5 -17 -4 -12 4
4 7 5 12 2 12 -3 0 -7 -4 -11 -9z"/>
<path d="M948 3503 c7 -3 16 -2 19 1 4 3 -2 6 -13 5 -11 0 -14 -3 -6 -6z"/>
<path d="M1270 3506 c0 -2 7 -7 16 -10 8 -3 12 -2 9 4 -6 10 -25 14 -25 6z"/>
<path d="M1597 3493 c3 -7 6 -13 8 -13 2 0 5 6 8 13 3 8 -1 14 -8 14 -7 0 -11
-6 -8 -14z"/>
<path d="M1755 3500 c-3 -5 -4 -10 0 -10 3 0 1 -8 -4 -18 -7 -14 -6 -19 4 -19
8 0 11 7 7 16 -5 13 -3 14 9 4 12 -10 15 -8 16 10 2 17 0 19 -7 7 -9 -14 -14
-7 -11 13 2 10 -7 9 -14 -3z"/>
<path d="M2190 3505 c5 -22 -1 -29 -11 -15 -8 12 -10 12 -7 1 5 -18 37 -23 34
-5 -1 7 -6 17 -10 21 -4 4 -7 4 -6 -2z"/>
<path d="M2753 3495 c0 -8 4 -12 9 -9 5 3 6 10 3 15 -9 13 -12 11 -12 -6z"/>
<path d="M774 3490 c1 -7 6 -12 11 -12 6 -1 16 -8 23 -17 11 -14 11 -13 2 7
-6 12 -15 20 -20 17 -4 -3 -11 0 -13 5 -4 7 -5 6 -3 0z"/>
<path d="M1934 3490 c1 -7 6 -12 11 -12 6 -1 16 -8 23 -17 11 -14 11 -13 2 7
-6 12 -15 20 -20 17 -4 -3 -11 0 -13 5 -4 7 -5 6 -3 0z"/>
<path d="M505 3479 c-4 -6 -5 -12 -2 -15 2 -3 7 2 10 11 7 17 1 20 -8 4z"/>
<path d="M533 3475 c0 -8 4 -12 9 -9 5 3 6 10 3 15 -9 13 -12 11 -12 -6z"/>
<path d="M714 3475 c1 -8 6 -18 11 -22 4 -5 5 -2 0 6 -6 11 -4 13 8 8 23 -9
21 0 -2 13 -15 7 -19 7 -17 -5z"/>
<path d="M864 3482 c4 -3 14 -7 22 -8 9 -1 13 0 10 4 -4 3 -14 7 -22 8 -9 1
-13 0 -10 -4z"/>
<path d="M990 3480 c0 -5 5 -10 10 -10 6 0 10 5 10 10 0 6 -4 10 -10 10 -5 0
-10 -4 -10 -10z"/>
<path d="M1070 3480 c0 -5 5 -10 10 -10 6 0 10 5 10 10 0 6 -4 10 -10 10 -5 0
-10 -4 -10 -10z"/>
<path d="M1150 3480 c0 -5 5 -10 10 -10 6 0 10 5 10 10 0 6 -4 10 -10 10 -5 0
-10 -4 -10 -10z"/>
<path d="M1230 3480 c0 -5 5 -10 10 -10 6 0 10 5 10 10 0 6 -4 10 -10 10 -5 0
-10 -4 -10 -10z"/>
<path d="M1313 3475 c0 -8 4 -12 9 -9 4 3 8 9 8 15 0 5 -4 9 -8 9 -5 0 -9 -7
-9 -15z"/>
<path d="M1400 3480 c8 -5 20 -10 25 -10 6 0 3 5 -5 10 -8 5 -19 10 -25 10 -5
0 -3 -5 5 -10z"/>
<path d="M1480 3480 c18 -12 30 -13 30 -2 0 4 -10 9 -22 9 -18 2 -20 0 -8 -7z"/>
<path d="M1560 3480 c18 -12 30 -13 30 -2 0 4 -10 9 -22 9 -18 2 -20 0 -8 -7z"/>
<path d="M1670 3478 c0 -4 4 -8 9 -8 6 0 12 4 15 8 3 5 -1 9 -9 9 -8 0 -15 -4
-15 -9z"/>
<path d="M1824 3475 c-18 -15 -18 -15 0 -8 12 4 17 3 13 -4 -3 -5 0 -10 8 -10
10 0 12 4 5 12 -5 7 -7 15 -3 18 12 13 -3 7 -23 -8z"/>
<path d="M1910 3481 c0 -6 4 -13 10 -16 6 -3 7 1 4 9 -7 18 -14 21 -14 7z"/>
<path d="M2027 3479 c7 -7 15 -10 18 -7 3 3 -2 9 -12 12 -14 6 -15 5 -6 -5z"/>
<path d="M2114 3475 c1 -8 6 -18 11 -22 4 -5 5 -2 0 6 -6 11 -4 13 8 8 23 -9
21 0 -2 13 -15 7 -19 7 -17 -5z"/>
<path d="M2305 3480 c-3 -6 1 -7 9 -4 18 7 21 14 7 14 -6 0 -13 -4 -16 -10z"/>
<path d="M2380 3480 c-8 -5 -10 -10 -5 -10 6 0 17 5 25 10 8 5 11 10 5 10 -5
0 -17 -5 -25 -10z"/>
<path d="M2460 3480 c-8 -5 -10 -10 -5 -10 6 0 17 5 25 10 8 5 11 10 5 10 -5
0 -17 -5 -25 -10z"/>
<path d="M2540 3480 c-12 -7 -10 -9 7 -7 12 0 19 5 17 9 -6 10 -6 10 -24 -2z"/>
<path d="M2666 3478 c3 -5 10 -6 15 -3 13 9 11 12 -6 12 -8 0 -12 -4 -9 -9z"/>
<path d="M557 3467 c-3 -8 1 -14 8 -14 7 0 11 6 8 14 -3 7 -6 13 -8 13 -2 0
-5 -6 -8 -13z"/>
<path d="M1027 3453 c5 -12 3 -14 -7 -8 -9 6 -11 4 -6 -4 5 -7 10 -10 13 -7 3
3 13 1 23 -4 12 -6 17 -5 17 5 0 7 -7 11 -15 7 -9 -3 -13 -1 -9 5 4 6 0 13 -8
16 -10 4 -12 1 -8 -10z"/>
<path d="M1108 3451 c4 -10 1 -12 -8 -6 -9 6 -11 4 -6 -4 5 -7 10 -10 13 -7 3
3 13 1 23 -4 12 -6 17 -5 17 5 0 8 -7 11 -16 7 -13 -5 -14 -3 -4 9 10 12 8 15
-6 15 -12 0 -17 -5 -13 -15z"/>
<path d="M1188 3451 c3 -8 1 -12 -5 -8 -5 3 -10 0 -10 -8 0 -11 4 -12 14 -4 9
8 17 8 26 0 10 -8 14 -7 14 4 0 8 -5 11 -10 8 -6 -4 -8 0 -5 8 4 10 -1 15 -12
15 -11 0 -16 -5 -12 -15z"/>
<path d="M1273 3451 c10 -12 9 -14 -4 -9 -9 4 -16 1 -16 -7 0 -10 5 -11 19 -4
10 6 16 14 13 19 -3 4 1 10 7 13 7 3 3 4 -9 4 -18 -1 -20 -4 -10 -16z"/>
<path d="M2239 3468 c-6 -21 -5 -37 2 -32 5 3 7 9 4 14 -3 4 1 11 7 13 10 4
10 6 1 6 -7 1 -13 0 -14 -1z"/>
<path d="M2710 3460 c0 -5 5 -10 10 -10 6 0 10 5 10 10 0 6 -4 10 -10 10 -5 0
-10 -4 -10 -10z"/>
<path d="M615 3450 c-4 -6 -11 -8 -16 -5 -5 4 -9 2 -9 -3 0 -5 8 -12 18 -14
12 -4 18 1 18 13 0 22 -2 23 -11 9z"/>
<path d="M656 3446 c3 -7 11 -13 19 -13 22 0 18 14 -4 20 -13 3 -18 0 -15 -7z"/>
<path d="M891 3453 c-1 -18 13 -23 29 -11 12 8 12 9 -2 5 -9 -3 -19 -1 -22 6
-3 9 -5 9 -5 0z"/>
<path d="M1648 3453 c-22 -5 -24 -20 -3 -20 8 0 16 6 19 14 3 7 4 12 3 12 -1
-1 -10 -3 -19 -6z"/>
<path d="M1888 3453 c-10 -2 -18 -9 -18 -15 0 -6 3 -8 7 -5 3 4 11 3 17 -3 8
-6 12 -3 12 11 0 10 0 18 -1 18 0 -1 -8 -3 -17 -6z"/>
<path d="M2058 3448 c5 -5 16 -8 23 -6 8 3 3 7 -10 11 -17 4 -21 3 -13 -5z"/>
<path d="M517 3436 c-3 -8 0 -17 7 -19 10 -4 12 1 9 14 -6 23 -9 24 -16 5z"/>
<path d="M753 3435 c0 -8 6 -16 13 -19 7 -3 10 2 7 15 -6 22 -20 26 -20 4z"/>
<path d="M830 3439 c0 -3 9 -9 19 -12 13 -3 18 0 15 7 -5 13 -34 18 -34 5z"/>
<path d="M1696 3434 c-3 -7 2 -10 15 -7 22 6 26 20 4 20 -8 0 -16 -6 -19 -13z"/>
<path d="M1788 3432 c-4 -12 1 -18 13 -18 12 0 15 4 9 12 -6 6 -7 14 -3 17 3
4 2 7 -4 7 -6 0 -13 -8 -15 -18z"/>
<path d="M1990 3440 c0 -4 7 -13 15 -20 13 -11 14 -10 9 5 -6 14 -4 16 7 10 8
-5 11 -4 6 0 -10 12 -37 15 -37 5z"/>
<path d="M2150 3442 c0 -5 7 -9 15 -9 8 0 12 4 9 9 -3 4 -9 8 -15 8 -5 0 -9
-4 -9 -8z"/>
<path d="M960 3436 c0 -2 7 -7 16 -10 8 -3 12 -2 9 4 -6 10 -25 14 -25 6z"/>
<path d="M708 3414 c6 -12 8 -25 4 -30 -4 -5 0 -3 8 4 12 10 12 15 -4 30 -18
16 -18 16 -8 -4z"/>
<path d="M947 3413 c5 -12 3 -14 -7 -8 -9 5 -11 4 -6 -4 6 -9 11 -9 22 0 17
14 17 16 0 22 -11 4 -13 1 -9 -10z"/>
<path d="M1601 3416 c-9 -10 -8 -15 3 -19 9 -4 18 -1 22 5 5 7 2 8 -6 3 -10
-6 -12 -4 -7 8 8 21 3 22 -12 3z"/>
<path d="M1840 3414 c-11 -12 -10 -18 5 -32 16 -16 17 -16 7 4 -8 15 -8 24 0
32 7 7 9 12 6 12 -3 0 -11 -7 -18 -16z"/>
<path d="M1955 3421 c6 -11 4 -13 -8 -8 -11 4 -14 2 -10 -8 3 -8 10 -12 16 -8
6 4 8 0 5 -9 -4 -8 0 -15 7 -15 11 0 12 5 3 21 -6 12 -10 23 -9 24 2 2 -1 7
-5 10 -4 4 -3 1 1 -7z"/>
<path d="M2107 3409 c4 -13 8 -18 11 -10 2 7 -1 18 -6 23 -8 8 -9 4 -5 -13z"/>
<path d="M2193 3409 c-2 -23 3 -25 10 -4 4 8 3 16 -1 19 -4 3 -9 -4 -9 -15z"/>
<path d="M554 3409 c-3 -6 1 -18 11 -27 16 -16 17 -16 7 4 -6 12 -8 24 -5 28
3 3 4 6 0 6 -3 0 -9 -5 -13 -11z"/>
<path d="M797 3413 c-12 -12 -7 -21 16 -26 20 -5 20 -5 5 7 -10 7 -15 16 -11
19 3 4 4 7 1 7 -2 0 -8 -3 -11 -7z"/>
<path d="M1755 3410 c6 -9 4 -12 -7 -8 -8 4 -15 1 -15 -7 0 -7 8 -10 19 -7 21
5 23 17 6 28 -7 5 -8 3 -3 -6z"/>
<path d="M2828 3413 c7 -3 16 -2 19 1 4 3 -2 6 -13 5 -11 0 -14 -3 -6 -6z"/>
<path d="M630 3400 c0 -5 5 -10 10 -10 6 0 10 5 10 10 0 6 -4 10 -10 10 -5 0
-10 -4 -10 -10z"/>
<path d="M864 3398 c-4 -7 -4 -10 1 -6 4 4 17 2 29 -4 19 -10 20 -10 7 5 -16
20 -27 21 -37 5z"/>
<path d="M994 3395 c1 -8 6 -18 11 -22 4 -5 5 -2 0 6 -6 11 -4 13 10 7 15 -5
16 -4 5 9 -16 19 -29 19 -26 0z"/>
<path d="M1064 3398 c-5 -7 -3 -8 6 -3 9 6 12 4 8 -7 -4 -8 -1 -15 7 -15 7 0
10 8 7 19 -5 21 -17 23 -28 6z"/>
<path d="M1153 3403 c4 -3 2 -11 -3 -18 -7 -8 -5 -12 5 -12 8 0 11 5 8 10 -4
7 1 8 12 3 15 -5 16 -4 5 9 -7 8 -17 15 -23 15 -6 0 -7 -3 -4 -7z"/>
<path d="M1220 3395 c-11 -13 -10 -14 5 -9 11 5 16 4 12 -3 -3 -5 0 -10 8 -10
10 0 12 4 5 12 -5 7 -7 15 -3 18 3 4 2 7 -4 7 -6 0 -16 -7 -23 -15z"/>
<path d="M1659 3393 c-13 -15 -12 -15 7 -5 12 6 25 8 29 4 5 -4 5 -1 1 6 -10
16 -21 15 -37 -5z"/>
<path d="M1910 3401 c0 -6 4 -13 10 -16 6 -3 7 1 4 9 -7 18 -14 21 -14 7z"/>
<path d="M2030 3400 c0 -5 5 -10 10 -10 6 0 10 5 10 10 0 6 -4 10 -10 10 -5 0
-10 -4 -10 -10z"/>
<path d="M748 3368 c2 -10 9 -18 15 -18 6 0 7 3 4 7 -4 3 -3 11 3 17 6 8 3 12
-9 12 -12 0 -17 -6 -13 -18z"/>
<path d="M1788 3368 c2 -10 9 -18 15 -18 6 0 7 3 4 7 -4 3 -3 11 3 17 6 8 3
12 -9 12 -12 0 -17 -6 -13 -18z"/>
<path d="M2067 3376 c4 -12 3 -17 -4 -13 -5 3 -10 0 -10 -8 0 -12 3 -12 16 -2
12 10 14 9 9 -4 -4 -9 -1 -16 7 -16 8 0 11 7 7 15 -4 11 -1 13 8 7 9 -6 11 -4
6 4 -5 7 -10 10 -14 7 -3 -3 -11 2 -19 12 -12 16 -13 16 -6 -2z"/>
<path d="M2234 3365 c0 -13 3 -22 7 -19 8 4 6 30 -2 38 -3 3 -5 -5 -5 -19z"/>
<path d="M2710 3380 c0 -5 5 -10 10 -10 6 0 10 5 10 10 0 6 -4 10 -10 10 -5 0
-10 -4 -10 -10z"/>
<path d="M656 3366 c3 -7 11 -13 19 -13 22 0 18 14 -4 20 -13 3 -18 0 -15 -7z"/>
<path d="M1277 3373 c-10 -9 -9 -23 1 -23 5 0 9 7 9 15 0 17 -1 18 -10 8z"/>
<path d="M1895 3370 c-4 -6 -11 -8 -16 -5 -5 4 -9 2 -9 -3 0 -5 8 -12 18 -14
12 -4 18 1 18 13 0 22 -2 23 -11 9z"/>
<path d="M1997 3373 c-12 -11 -8 -20 11 -25 11 -3 19 0 19 7 0 8 -7 11 -15 7
-10 -3 -13 -1 -8 6 8 13 3 16 -7 5z"/>
<path d="M2142 3367 c10 -8 15 -16 12 -19 -2 -3 2 -8 10 -11 11 -4 13 -1 9 10
-5 12 -3 14 8 8 8 -4 12 -6 9 -2 -3 3 -9 6 -15 7 -5 1 -19 6 -30 12 -18 8 -19
8 -3 -5z"/>
<path d="M596 3359 c2 -4 -1 -9 -8 -11 -7 -3 -5 -7 6 -11 11 -5 15 -3 10 5 -5
7 -2 9 9 5 10 -4 14 -2 11 7 -3 7 -11 13 -19 13 -8 0 -12 -4 -9 -8z"/>
<path d="M837 3356 c-3 -8 0 -17 7 -19 10 -4 12 1 9 14 -6 23 -9 24 -16 5z"/>
<path d="M917 3356 c-3 -8 0 -17 7 -19 10 -4 12 1 9 14 -6 23 -9 24 -16 5z"/>
<path d="M1030 3360 c0 -5 5 -10 10 -10 6 0 10 5 10 10 0 6 -4 10 -10 10 -5 0
-10 -4 -10 -10z"/>
<path d="M1110 3360 c0 -5 5 -10 10 -10 6 0 10 5 10 10 0 6 -4 10 -10 10 -5 0
-10 -4 -10 -10z"/>
<path d="M1190 3360 c0 -5 5 -10 10 -10 6 0 10 5 10 10 0 6 -4 10 -10 10 -5 0
-10 -4 -10 -10z"/>
<path d="M1627 3351 c-3 -13 0 -18 7 -15 7 3 13 11 13 19 0 22 -14 18 -20 -4z"/>
<path d="M1707 3351 c-3 -13 0 -18 7 -15 7 3 13 11 13 19 0 22 -14 18 -20 -4z"/>
<path d="M2856 3351 c-3 -4 6 -6 19 -3 14 2 25 6 25 8 0 8 -39 4 -44 -5z"/>
<path d="M705 3320 c0 -15 5 -27 10 -27 6 0 10 12 10 27 0 15 -4 27 -10 27 -5
0 -10 -12 -10 -27z"/>
<path d="M987 3329 c4 -13 8 -18 11 -10 2 7 -1 18 -6 23 -8 8 -9 4 -5 -13z"/>
<path d="M1077 3337 c4 -7 -1 -8 -13 -4 -17 6 -17 6 -3 -5 9 -7 16 -17 17 -21
0 -5 4 -12 8 -15 4 -4 3 -1 -1 7 -6 10 -4 13 7 9 8 -4 15 -1 15 7 0 8 -7 11
-16 7 -13 -5 -14 -3 -4 9 10 13 10 16 -2 16 -8 0 -11 -5 -8 -10z"/>
<path d="M1148 3332 c3 -9 1 -13 -5 -9 -5 3 -10 0 -10 -7 0 -8 7 -12 15 -8 11
4 13 1 7 -9 -4 -8 -4 -11 0 -6 13 11 12 54 -1 54 -7 0 -10 -7 -6 -15z"/>
<path d="M1238 3331 c5 -14 4 -14 -14 -1 -18 14 -18 14 -5 -2 17 -23 27 -23
33 0 3 11 0 19 -7 19 -8 0 -11 -7 -7 -16z"/>
<path d="M1837 3337 c4 -6 0 -8 -10 -4 -11 4 -14 2 -10 -8 3 -8 10 -12 16 -8
6 4 8 0 5 -9 -4 -8 0 -15 7 -15 10 0 11 5 5 17 -6 10 -5 21 1 27 6 6 5 10 -5
10 -8 0 -12 -5 -9 -10z"/>
<path d="M1955 3341 c6 -10 4 -13 -6 -9 -10 4 -15 -1 -15 -13 0 -14 3 -16 15
-6 12 10 14 9 9 -4 -4 -9 -1 -16 7 -16 11 0 12 5 3 21 -6 12 -10 23 -9 24 2 2
-1 7 -5 10 -4 4 -3 1 1 -7z"/>
<path d="M734 3329 c-3 -6 -2 -15 3 -20 5 -5 9 -1 9 11 0 23 -2 24 -12 9z"/>
<path d="M774 3319 c0 -12 4 -15 12 -8 6 5 19 7 28 3 10 -4 16 -1 16 7 0 7 -3
10 -6 6 -3 -3 -16 -2 -28 3 -17 6 -22 4 -22 -11z"/>
<path d="M879 3327 c8 -9 16 -15 19 -12 3 3 12 -1 21 -8 14 -11 14 -10 2 6 -8
9 -16 15 -19 12 -3 -3 -12 1 -21 8 -14 11 -14 10 -2 -6z"/>
<path d="M1175 3331 c-3 -5 -2 -12 3 -15 5 -3 9 1 9 9 0 17 -3 19 -12 6z"/>
<path d="M1775 3330 c-4 -6 -11 -8 -16 -5 -5 4 -9 2 -9 -3 0 -5 8 -12 18 -14
12 -4 18 1 18 13 0 22 -2 23 -11 9z"/>
<path d="M2113 3325 c0 -8 4 -15 9 -15 4 0 8 4 8 9 0 6 -4 12 -8 15 -5 3 -9
-1 -9 -9z"/>
<path d="M2193 3325 c0 -8 4 -15 9 -15 4 0 8 4 8 9 0 6 -4 12 -8 15 -5 3 -9
-1 -9 -9z"/>
<path d="M2818 3323 c-4 -17 -2 -20 10 -16 11 5 13 3 7 -8 -5 -8 -4 -11 0 -6
12 10 16 39 5 32 -5 -3 -10 0 -12 7 -3 7 -7 3 -10 -9z"/>
<path d="M2880 3326 c7 -7 13 -7 20 0 6 6 3 10 -10 10 -13 0 -16 -4 -10 -10z"/>
<path d="M626 3322 c-3 -5 1 -9 9 -9 8 0 15 4 15 9 0 4 -4 8 -9 8 -6 0 -12 -4
-15 -8z"/>
<path d="M1396 3322 c-3 -5 1 -9 9 -9 8 0 12 4 9 9 -3 4 -7 8 -9 8 -2 0 -6 -4
-9 -8z"/>
<path d="M1670 3321 c0 -6 4 -12 8 -15 5 -3 9 1 9 9 0 8 -4 15 -9 15 -4 0 -8
-4 -8 -9z"/>
<path d="M2030 3320 c0 -5 5 -10 10 -10 6 0 10 5 10 10 0 6 -4 10 -10 10 -5 0
-10 -4 -10 -10z"/>
<path d="M2356 3322 c-3 -5 1 -9 9 -9 8 0 12 4 9 9 -3 4 -7 8 -9 8 -2 0 -6 -4
-9 -8z"/>
<path d="M1627 3304 c7 -3 9 -13 6 -22 -4 -14 -3 -14 5 -2 12 16 7 30 -11 29
-9 0 -9 -2 0 -5z"/>
<path d="M1707 3289 c6 -23 9 -24 16 -5 3 8 0 17 -7 19 -10 4 -12 -1 -9 -14z"/>
<path d="M2077 3297 c4 -6 0 -8 -9 -5 -8 4 -15 1 -15 -6 0 -13 43 -14 54 -1 5
4 2 4 -6 0 -10 -6 -13 -4 -9 7 4 8 0 15 -8 15 -7 0 -10 -5 -7 -10z"/>
<path d="M2162 3303 c-6 -2 -9 -10 -5 -16 4 -6 0 -8 -9 -5 -8 4 -15 0 -15 -7
0 -10 5 -11 16 -5 9 4 19 7 23 7 3 -1 10 2 15 7 5 6 2 6 -6 1 -11 -6 -13 -4
-8 8 3 10 5 17 4 16 -1 0 -8 -3 -15 -6z"/>
<path d="M2235 3300 c-3 -5 -3 -10 1 -10 4 0 -1 -7 -12 -15 -18 -15 -18 -15 0
-8 15 5 17 3 11 -8 -5 -8 -4 -11 1 -6 4 4 9 19 10 32 1 27 -1 30 -11 15z"/>
<path d="M2926 3298 c3 -5 10 -6 15 -3 13 9 11 12 -6 12 -8 0 -12 -4 -9 -9z"/>
<path d="M656 3286 c7 -18 34 -22 34 -4 0 6 -3 8 -7 5 -3 -4 -12 -2 -20 5 -11
8 -12 7 -7 -6z"/>
<path d="M1018 3288 c5 -5 16 -8 23 -6 8 3 3 7 -10 11 -17 4 -21 3 -13 -5z"/>
<path d="M1208 3293 c-21 -5 -23 -19 -6 -29 7 -5 8 -3 3 6 -6 9 -4 12 7 8 9
-4 15 0 15 8 0 8 -1 13 -1 13 -1 -1 -9 -3 -18 -6z"/>
<path d="M1916 3287 c3 -10 9 -15 12 -12 3 3 0 11 -7 18 -10 9 -11 8 -5 -6z"/>
<path d="M2015 3290 c-4 -6 -11 -8 -16 -5 -15 10 -10 -12 6 -25 13 -11 14 -10
9 5 -5 11 -4 16 3 12 5 -3 10 0 10 8 0 18 -3 19 -12 5z"/>
<path d="M2719 3298 c-5 -18 -6 -38 -1 -34 7 8 12 36 6 36 -2 0 -4 -1 -5 -2z"/>
<path d="M753 3283 c4 -3 3 -11 -3 -17 -6 -8 -3 -12 9 -12 12 0 17 6 13 18 -2
10 -9 18 -15 18 -6 0 -7 -3 -4 -7z"/>
<path d="M960 3269 c13 -23 22 -25 13 -2 -5 12 -3 14 8 8 8 -5 11 -4 6 0 -4 5
-14 10 -22 11 -12 2 -12 -2 -5 -17z"/>
<path d="M1106 3278 c3 -4 9 -8 15 -8 5 0 9 4 9 8 0 5 -7 9 -15 9 -8 0 -12 -4
-9 -9z"/>
<path d="M1253 3277 c-4 -6 -1 -7 7 -2 10 6 12 4 7 -8 -4 -10 -2 -14 7 -11 7
3 13 11 13 18 0 15 -25 17 -34 3z"/>
<path d="M1336 3282 c-3 -4 4 -9 15 -9 23 -2 25 3 4 10 -8 4 -16 3 -19 -1z"/>
<path d="M1793 3275 c0 -8 6 -16 13 -19 7 -3 10 2 7 15 -6 22 -20 26 -20 4z"/>
<path d="M1870 3279 c0 -3 9 -9 19 -12 13 -3 18 0 15 7 -5 13 -34 18 -34 5z"/>
<path d="M2296 3282 c-3 -4 4 -9 15 -9 23 -2 25 3 4 10 -8 4 -16 3 -19 -1z"/>
<path d="M2785 3279 c-3 -4 2 -6 10 -5 21 3 28 13 10 13 -9 0 -18 -4 -20 -8z"/>
<path d="M2873 3273 c0 -6 5 -9 11 -5 6 4 14 7 18 7 19 0 14 11 -6 11 -12 0
-23 -6 -23 -13z"/>
<path d="M706 3256 c3 -8 13 -17 21 -20 25 -10 23 -3 -3 17 -18 13 -22 14 -18
3z"/>
<path d="M1068 3255 c6 -11 11 -24 12 -30 1 -5 4 -12 7 -15 2 -3 4 0 3 5 -5
22 1 29 11 15 7 -10 9 -11 7 -2 -2 8 -7 12 -10 10 -4 -2 -14 6 -23 17 l-16 20
9 -20z"/>
<path d="M1158 3252 c3 -9 1 -13 -5 -9 -6 4 -13 0 -16 -8 -4 -10 -1 -12 10 -8
12 5 14 3 8 -8 -4 -8 -6 -12 -2 -9 3 3 6 10 7 15 1 6 6 17 10 26 6 11 5 16 -5
16 -7 0 -11 -7 -7 -15z"/>
<path d="M1395 3260 c-3 -5 -4 -10 0 -10 3 0 1 -10 -5 -22 -11 -22 -11 -23 5
-3 9 11 19 19 23 17 3 -2 8 2 10 10 2 9 0 8 -7 -2 -10 -13 -15 -8 -12 13 2 10
-7 9 -14 -3z"/>
<path d="M1958 3251 c5 -13 3 -14 -9 -4 -12 10 -15 8 -15 -6 0 -12 5 -17 15
-13 8 3 12 1 8 -5 -3 -5 1 -10 9 -10 10 0 11 4 5 10 -6 6 -7 17 -1 27 6 12 5
17 -5 17 -8 0 -11 -7 -7 -16z"/>
<path d="M2066 3262 c-3 -5 1 -9 9 -9 8 0 12 4 9 9 -3 4 -7 8 -9 8 -2 0 -6 -4
-9 -8z"/>
<path d="M2359 3268 c-7 -25 -5 -36 9 -34 9 2 18 9 20 17 3 11 1 11 -7 -1 -10
-13 -15 -8 -12 13 1 6 -8 11 -10 5z"/>
<path d="M2756 3262 c-2 -4 -1 -14 4 -22 7 -11 9 -9 7 8 -1 24 -3 26 -11 14z"/>
<path d="M2843 3255 c-3 -9 -3 -18 -1 -21 3 -3 8 4 11 16 6 23 -1 27 -10 5z"/>
<path d="M2919 3268 c-6 -20 -5 -37 1 -33 5 3 10 0 12 -7 3 -7 7 -3 10 9 4 17
2 20 -10 16 -10 -4 -13 -2 -8 5 4 7 5 12 2 12 -3 0 -6 -1 -7 -2z"/>
<path d="M994 3246 c1 -8 5 -18 8 -22 4 -3 5 1 4 10 -1 8 -5 18 -8 22 -4 3 -5
-1 -4 -10z"/>
<path d="M1319 3258 c-5 -18 -6 -38 -1 -34 7 8 12 36 6 36 -2 0 -4 -1 -5 -2z"/>
<path d="M1742 3246 c10 -7 14 -17 10 -21 -4 -5 -1 -5 6 -1 19 11 14 23 -10
29 -21 5 -21 5 -6 -7z"/>
<path d="M1834 3249 c-3 -6 1 -18 11 -27 16 -16 17 -16 7 4 -6 12 -8 24 -5 28
3 3 4 6 0 6 -3 0 -9 -5 -13 -11z"/>
<path d="M2279 3258 c-5 -18 -6 -38 -1 -34 7 8 12 36 6 36 -2 0 -4 -1 -5 -2z"/>
<path d="M1230 3240 c0 -5 5 -10 10 -10 6 0 10 5 10 10 0 6 -4 10 -10 10 -5 0
-10 -4 -10 -10z"/>
<path d="M1600 3240 c-12 -7 -10 -9 7 -7 12 0 19 5 17 9 -6 10 -6 10 -24 -2z"/>
<path d="M2030 3240 c0 -5 5 -10 10 -10 6 0 10 5 10 10 0 6 -4 10 -10 10 -5 0
-10 -4 -10 -10z"/>
<path d="M2108 3232 c-3 -11 0 -19 7 -19 8 0 11 7 7 15 -4 11 -1 13 8 7 9 -5
11 -4 6 3 -11 17 -23 15 -28 -6z"/>
<path d="M2180 3235 c-11 -13 -10 -14 5 -9 14 6 16 4 10 -7 -5 -8 -4 -11 0 -6
12 10 15 37 5 37 -4 0 -13 -7 -20 -15z"/>
<path d="M1202 3218 c-7 -7 -12 -15 -12 -19 0 -9 27 -5 37 6 5 4 2 5 -6 0 -11
-6 -13 -4 -8 8 8 20 5 21 -11 5z"/>
<path d="M1280 3220 c-8 -5 -11 -10 -6 -10 6 0 1 -7 -10 -16 -19 -15 -19 -15
1 -6 11 6 23 9 27 9 3 -1 10 2 15 7 5 6 2 6 -6 1 -11 -6 -13 -4 -8 8 7 20 7
20 -13 7z"/>
<path d="M1787 3209 c6 -22 20 -26 20 -4 0 8 -6 16 -13 19 -7 3 -10 -2 -7 -15z"/>
<path d="M2002 3218 c-7 -7 -12 -16 -12 -22 0 -5 3 -6 7 -3 3 4 11 2 18 -3 8
-7 12 -5 12 5 0 8 -5 11 -10 8 -6 -4 -8 0 -4 10 8 20 5 21 -11 5z"/>
<path d="M2070 3216 c13 -18 13 -19 -1 -14 -9 4 -16 1 -16 -7 0 -7 8 -10 19
-7 23 6 23 16 1 33 -17 13 -17 13 -3 -5z"/>
<path d="M2241 3216 c-9 -10 -8 -15 3 -19 9 -4 18 -1 22 5 5 7 2 8 -6 3 -10
-6 -12 -4 -7 8 8 21 3 22 -12 3z"/>
<path d="M1697 3204 c2 -7 11 -10 19 -7 19 7 18 10 -5 16 -13 3 -18 1 -14 -9z"/>
<path d="M1916 3207 c3 -10 9 -15 12 -12 3 3 0 11 -7 18 -10 9 -11 8 -5 -6z"/>
<path d="M2810 3211 c-8 -6 -17 -8 -21 -5 -4 2 -11 0 -14 -6 -4 -6 -3 -10 2
-9 20 4 27 -2 13 -12 -10 -7 -11 -9 -2 -7 8 2 13 7 12 12 -1 4 7 14 17 22 20
15 16 19 -7 5z"/>
<path d="M2890 3211 c-8 -6 -17 -8 -21 -5 -4 2 -11 -1 -15 -7 -5 -8 -3 -9 6
-4 10 6 12 4 7 -8 -4 -11 -2 -14 8 -10 8 3 12 10 8 16 -4 6 0 8 9 5 9 -4 15 0
15 8 0 8 -1 14 -1 14 -1 0 -8 -4 -16 -9z"/>
<path d="M1016 3198 c3 -4 11 -5 19 -1 21 7 19 12 -4 10 -11 0 -18 -5 -15 -9z"/>
<path d="M1106 3198 c3 -4 9 -8 15 -8 5 0 9 4 9 8 0 5 -7 9 -15 9 -8 0 -12 -4
-9 -9z"/>
<path d="M1640 3198 c-12 -8 -12 -9 2 -5 9 3 19 1 22 -6 3 -9 5 -9 5 0 1 18
-13 23 -29 11z"/>
<path d="M1870 3199 c0 -3 9 -9 19 -12 13 -3 18 0 15 7 -5 13 -34 18 -34 5z"/>
<path d="M2150 3200 c0 -5 5 -10 10 -10 6 0 10 5 10 10 0 6 -4 10 -10 10 -5 0
-10 -4 -10 -10z"/>
<path d="M2715 3200 c-3 -5 -3 -10 2 -10 4 0 1 -5 -7 -11 -12 -8 -12 -10 -1
-7 8 2 15 12 17 21 3 19 -2 22 -11 7z"/>
<path d="M1336 3191 c-4 -5 3 -7 14 -4 23 6 26 13 6 13 -8 0 -17 -4 -20 -9z"/>
<path d="M2296 3191 c-4 -5 3 -7 14 -4 23 6 26 13 6 13 -8 0 -17 -4 -20 -9z"/>
<path d="M913 3170 c-1 -11 2 -20 7 -20 4 0 7 7 6 15 -3 23 -12 26 -13 5z"/>
<path d="M1164 3175 c-4 -8 -11 -12 -17 -8 -6 3 -7 1 -3 -5 11 -18 23 -14 29
8 6 23 -1 27 -9 5z"/>
<path d="M1399 3188 c0 -2 -2 -10 -4 -19 -3 -19 22 -21 29 -3 3 9 -1 11 -11 7
-11 -4 -14 -2 -9 5 4 7 5 12 2 12 -3 0 -6 -1 -7 -2z"/>
<path d="M1591 3183 c3 -19 -2 -27 -10 -15 -7 11 -9 11 -14 -1 -6 -17 17 -17
34 0 8 8 8 13 0 18 -6 3 -11 3 -10 -2z"/>
<path d="M1747 3176 c4 -13 3 -17 -5 -12 -6 3 -14 1 -18 -5 -4 -7 -3 -9 4 -5
5 3 13 0 15 -6 4 -10 6 -10 6 0 1 7 5 11 10 7 5 -3 13 0 17 7 4 7 4 10 -1 6
-4 -4 -14 0 -22 10 -12 16 -13 16 -6 -2z"/>
<path d="M1835 3181 c6 -10 4 -13 -7 -9 -8 4 -15 0 -15 -8 0 -7 5 -10 10 -7 6
4 8 0 5 -9 -4 -8 -1 -15 6 -15 13 0 14 43 1 54 -4 5 -4 2 0 -6z"/>
<path d="M1957 3173 c3 -7 6 -13 8 -13 2 0 5 6 8 13 3 8 -1 14 -8 14 -7 0 -11
-6 -8 -14z"/>
<path d="M2115 3181 c-3 -6 3 -14 13 -20 14 -7 19 -6 19 4 0 7 -7 11 -15 7
-10 -3 -13 -1 -8 6 4 7 5 12 2 12 -3 0 -7 -4 -11 -9z"/>
<path d="M2205 3179 c-4 -6 -5 -12 -2 -15 2 -3 7 2 10 11 7 17 1 20 -8 4z"/>
<path d="M2355 3181 c-3 -6 3 -14 13 -20 14 -7 19 -6 19 4 0 7 -7 11 -15 7
-10 -3 -13 -1 -8 6 4 7 5 12 2 12 -3 0 -7 -4 -11 -9z"/>
<path d="M1936 3167 c3 -10 9 -15 12 -12 3 3 0 11 -7 18 -10 9 -11 8 -5 -6z"/>
<path d="M2675 3170 c-4 -6 -10 -8 -15 -5 -4 3 -14 -3 -21 -13 -12 -15 -12
-16 2 -5 9 7 18 11 21 8 3 -3 11 1 18 10 7 8 10 15 7 15 -3 0 -9 -5 -12 -10z"/>
<path d="M2757 3173 c-10 -9 -9 -23 1 -23 5 0 9 7 9 15 0 17 -1 18 -10 8z"/>
<path d="M814 3154 c1 -7 6 -17 10 -21 4 -4 7 -3 6 2 -5 24 1 27 16 9 15 -18
15 -18 6 0 -11 23 -41 30 -38 10z"/>
<path d="M993 3152 c-9 -15 -8 -19 3 -19 7 0 10 5 7 10 -4 7 1 8 12 3 15 -5
16 -4 5 9 -15 18 -13 19 -27 -3z"/>
<path d="M1053 3154 c0 -7 7 -10 15 -6 11 4 13 1 7 -8 -5 -8 -4 -11 3 -6 6 4
9 12 6 20 -6 16 -31 17 -31 0z"/>
<path d="M1228 3152 c-3 -11 0 -19 7 -19 7 0 10 8 7 19 -2 10 -6 18 -7 18 -1
0 -5 -8 -7 -18z"/>
<path d="M1306 3161 c-3 -4 6 -7 19 -7 14 0 22 2 19 5 -8 8 -34 10 -38 2z"/>
<path d="M1479 3154 c-7 -8 -7 -14 1 -19 6 -4 10 -3 9 2 -3 19 2 27 10 15 7
-11 9 -11 14 0 6 18 -19 19 -34 2z"/>
<path d="M1655 3159 c-3 -4 2 -6 10 -5 21 3 28 13 10 13 -9 0 -18 -4 -20 -8z"/>
<path d="M1900 3155 c-11 -13 -10 -14 5 -9 14 6 16 4 10 -6 -5 -8 -4 -11 3 -6
6 4 9 13 5 21 -7 19 -8 19 -23 0z"/>
<path d="M1987 3159 c7 -7 15 -10 18 -7 3 3 -2 9 -12 12 -14 6 -15 5 -6 -5z"/>
<path d="M2030 3166 c0 -2 7 -7 16 -10 8 -3 12 -2 9 4 -6 10 -25 14 -25 6z"/>
<path d="M2077 3152 c-14 -15 -15 -19 -2 -19 8 0 11 5 8 10 -4 6 0 8 10 4 11
-4 14 -2 10 9 -7 18 -7 18 -26 -4z"/>
<path d="M2227 3159 c7 -7 15 -10 18 -7 3 3 -2 9 -12 12 -14 6 -15 5 -6 -5z"/>
<path d="M2400 3156 c0 -8 4 -17 9 -20 5 -4 7 3 4 14 -6 23 -13 26 -13 6z"/>
<path d="M2553 3153 c0 -9 4 -10 12 -3 7 5 15 7 18 3 4 -3 7 -1 7 5 0 6 -8 10
-18 9 -10 0 -19 -7 -19 -14z"/>
<path d="M2157 3147 c-3 -8 1 -14 8 -14 7 0 11 6 8 14 -3 7 -6 13 -8 13 -2 0
-5 -6 -8 -13z"/>
<path d="M2315 3151 c-3 -5 0 -13 6 -17 8 -5 9 -3 4 6 -6 10 -4 12 9 7 10 -4
15 -3 11 3 -8 13 -22 13 -30 1z"/>
<path d="M2603 3142 c-7 -4 -9 -13 -4 -21 6 -9 10 -7 14 8 3 12 4 21 4 21 -1
0 -7 -4 -14 -8z"/>
<path d="M2676 3142 c-2 -4 0 -14 6 -22 8 -12 9 -12 5 2 -3 9 -1 19 6 22 9 3
9 5 0 5 -6 1 -14 -3 -17 -7z"/>
<path d="M2721 3129 c12 -24 26 -31 26 -14 0 8 -5 11 -10 8 -6 -4 -8 0 -5 9 4
8 0 15 -7 15 -10 0 -11 -5 -4 -18z"/>
<path d="M2786 3138 c3 -5 10 -6 15 -3 13 9 11 12 -6 12 -8 0 -12 -4 -9 -9z"/>
<path d="M2827 3129 c6 -23 9 -24 16 -5 3 8 0 17 -7 19 -10 4 -12 -1 -9 -14z"/>
<path d="M895 3130 c-4 -6 -10 -8 -14 -6 -4 3 -8 -1 -8 -9 0 -8 6 -16 13 -19
9 -3 11 1 7 11 -4 10 -2 14 4 10 5 -3 10 0 10 8 0 18 -3 19 -12 5z"/>
<path d="M933 3125 c0 -8 7 -11 16 -7 14 5 14 4 1 -14 -14 -18 -14 -18 3 -5
22 17 22 27 -1 33 -11 3 -19 0 -19 -7z"/>
<path d="M1128 3133 c-21 -5 -23 -19 -5 -29 6 -4 9 -4 5 1 -4 4 0 14 10 21 18
14 17 14 -10 7z"/>
<path d="M1968 3133 c-10 -2 -18 -9 -18 -15 0 -6 3 -8 7 -5 3 4 11 3 17 -3 8
-6 12 -3 12 11 0 10 0 18 -1 18 0 -1 -8 -3 -17 -6z"/>
<path d="M2014 3119 c0 -12 4 -15 12 -9 6 6 14 7 17 3 4 -3 7 -2 7 4 0 6 -8
13 -18 15 -12 4 -18 -1 -18 -13z"/>
<path d="M2256 3126 c3 -7 11 -13 19 -13 22 0 18 14 -4 20 -13 3 -18 0 -15 -7z"/>
<path d="M2491 3133 c-1 -18 13 -23 29 -11 12 8 12 9 -2 5 -9 -3 -19 -1 -22 6
-3 9 -5 9 -5 0z"/>
<path d="M1030 3120 c0 -5 5 -10 10 -10 6 0 10 5 10 10 0 6 -4 10 -10 10 -5 0
-10 -4 -10 -10z"/>
<path d="M1173 3117 c-4 -6 -1 -7 7 -2 10 6 12 4 6 -10 -5 -15 -4 -16 9 -5 8
7 15 16 15 20 0 10 -30 8 -37 -3z"/>
<path d="M1270 3122 c0 -5 7 -9 15 -9 8 0 12 4 9 9 -3 4 -9 8 -15 8 -5 0 -9
-4 -9 -8z"/>
<path d="M1360 3120 c-12 -7 -10 -9 7 -7 12 0 19 5 17 9 -6 10 -6 10 -24 -2z"/>
<path d="M1776 3114 c-3 -7 2 -10 15 -7 22 6 26 20 4 20 -8 0 -16 -6 -19 -13z"/>
<path d="M1867 3111 c-3 -13 0 -18 7 -15 7 3 13 11 13 19 0 22 -14 18 -20 -4z"/>
<path d="M2113 3123 c4 -3 3 -11 -3 -17 -6 -8 -3 -12 9 -12 12 0 17 6 13 18
-2 10 -9 18 -15 18 -6 0 -7 -3 -4 -7z"/>
<path d="M2190 3119 c0 -3 9 -9 19 -12 13 -3 18 0 15 7 -5 13 -34 18 -34 5z"/>
<path d="M2353 3115 c0 -8 6 -16 13 -19 7 -3 10 2 7 15 -6 22 -20 26 -20 4z"/>
<path d="M2442 3121 c-11 -6 -9 -9 6 -13 15 -4 19 -2 15 8 -6 16 -4 16 -21 5z"/>
<path d="M2773 3115 c0 -7 6 -11 14 -8 7 3 13 6 13 8 0 2 -6 5 -13 8 -8 3 -14
-1 -14 -8z"/>
<path d="M988 3088 c6 -23 16 -23 33 0 13 16 13 16 -5 2 -18 -13 -19 -13 -14
1 4 9 1 16 -7 16 -7 0 -10 -8 -7 -19z"/>
<path d="M1083 3095 c-3 -9 -3 -18 -1 -21 3 -3 8 4 11 16 6 23 -1 27 -10 5z"/>
<path d="M1235 3100 c-3 -5 -4 -10 0 -10 3 0 1 -8 -4 -18 -7 -14 -6 -19 4 -19
7 0 11 7 7 15 -3 9 -1 13 5 9 6 -4 13 0 16 8 4 10 1 12 -10 8 -11 -4 -14 -2
-9 5 4 7 5 12 2 12 -3 0 -8 -4 -11 -10z"/>
<path d="M1310 3105 c5 -22 -1 -29 -11 -15 -7 10 -9 11 -7 2 2 -8 8 -14 13
-14 6 -1 16 -8 23 -17 11 -13 11 -12 1 9 -7 14 -11 27 -10 28 2 2 0 7 -4 10
-4 4 -6 3 -5 -3z"/>
<path d="M1750 3105 c0 -5 5 -17 10 -25 5 -8 10 -10 10 -5 0 6 -5 17 -10 25
-5 8 -10 11 -10 5z"/>
<path d="M1922 3097 c-8 -9 -6 -16 7 -24 14 -9 18 -8 18 3 0 7 -5 10 -10 7 -6
-4 -8 0 -4 10 8 20 3 22 -11 4z"/>
<path d="M2066 3095 c5 -11 4 -16 -3 -12 -5 3 -10 0 -10 -8 0 -10 4 -12 12 -5
7 5 15 7 18 3 4 -3 7 -2 7 4 0 6 -7 16 -15 23 -13 11 -14 10 -9 -5z"/>
<path d="M2308 3094 c6 -12 8 -25 4 -30 -4 -5 0 -3 8 4 12 10 12 15 -4 30 -18
16 -18 16 -8 -4z"/>
<path d="M2548 3103 c7 -3 16 -2 19 1 4 3 -2 6 -13 5 -11 0 -14 -3 -6 -6z"/>
<path d="M1394 3086 c1 -8 5 -18 8 -22 4 -3 5 1 4 10 -1 8 -5 18 -8 22 -4 3
-5 -1 -4 -10z"/>
<path d="M1836 3092 c2 -2 -2 -14 -8 -26 -10 -20 -10 -20 8 -4 12 12 15 21 8
27 -6 5 -9 6 -8 3z"/>
<path d="M2154 3089 c-3 -6 1 -18 11 -27 16 -16 17 -16 7 4 -6 12 -8 24 -5 28
3 3 4 6 0 6 -3 0 -9 -5 -13 -11z"/>
<path d="M2397 3093 c-12 -12 -7 -21 16 -26 20 -5 20 -5 5 7 -10 7 -15 16 -11
19 3 4 4 7 1 7 -2 0 -8 -3 -11 -7z"/>
<path d="M2565 3091 c-11 -5 -24 -6 -29 -3 -5 3 -6 0 -3 -6 8 -11 44 -5 53 9
6 10 6 10 -21 0z"/>
<path d="M910 3081 c0 -6 4 -12 8 -15 5 -3 9 1 9 9 0 8 -4 15 -9 15 -4 0 -8
-4 -8 -9z"/>
<path d="M1150 3080 c0 -5 5 -10 10 -10 6 0 10 5 10 10 0 6 -4 10 -10 10 -5 0
-10 -4 -10 -10z"/>
<path d="M1979 3073 c-13 -15 -12 -15 7 -5 16 8 24 8 34 -1 12 -10 12 -9 1 6
-17 21 -25 21 -42 0z"/>
<path d="M2230 3080 c0 -5 5 -10 10 -10 6 0 10 5 10 10 0 6 -4 10 -10 10 -5 0
-10 -4 -10 -10z"/>
<path d="M2480 3081 c0 -5 7 -12 16 -15 14 -5 15 -4 4 9 -14 17 -20 19 -20 6z"/>
<path d="M2696 3082 c-3 -5 1 -9 9 -9 8 0 12 4 9 9 -3 4 -7 8 -9 8 -2 0 -6 -4
-9 -8z"/>
<path d="M948 3063 c7 -3 16 -2 19 1 4 3 -2 6 -13 5 -11 0 -14 -3 -6 -6z"/>
<path d="M1124 3055 c-4 -8 -10 -13 -14 -10 -5 3 -12 0 -16 -6 -5 -8 -3 -9 6
-4 9 6 12 4 8 -7 -4 -8 -1 -15 7 -15 8 0 11 7 7 16 -5 13 -3 14 9 4 13 -10 16
-10 16 2 0 8 -5 11 -10 8 -6 -4 -8 0 -4 10 3 10 4 17 1 17 -2 0 -7 -7 -10 -15z"/>
<path d="M1190 3056 c13 -18 13 -19 -1 -14 -9 4 -16 1 -16 -7 0 -7 8 -10 19
-7 23 6 23 16 1 33 -17 13 -17 13 -3 -5z"/>
<path d="M1427 3053 c5 -12 3 -14 -8 -8 -8 5 -11 4 -6 0 4 -5 14 -10 22 -11
12 -2 12 2 5 17 -13 23 -22 25 -13 2z"/>
<path d="M1885 3062 c-13 -9 -17 -32 -6 -32 5 0 11 9 14 20 6 22 6 22 -8 12z"/>
<path d="M2107 3049 c6 -22 20 -26 20 -4 0 8 -6 16 -13 19 -7 3 -10 -2 -7 -15z"/>
<path d="M2347 3049 c6 -22 20 -26 20 -4 0 8 -6 16 -13 19 -7 3 -10 -2 -7 -15z"/>
<path d="M1050 3051 c-8 -6 -17 -8 -21 -5 -4 2 -11 -1 -15 -7 -5 -8 -3 -9 6
-4 10 6 12 4 7 -8 -4 -11 -2 -14 9 -10 8 3 12 8 10 11 -3 3 2 11 12 18 19 15
14 18 -8 5z"/>
<path d="M2256 3046 c3 -7 11 -13 19 -13 22 0 18 14 -4 20 -13 3 -18 0 -15 -7z"/>
<path d="M2606 3051 c-17 -6 -17 -8 -4 -14 10 -3 19 0 22 9 3 8 4 14 3 13 -1
0 -11 -4 -21 -8z"/>
<path d="M2700 3056 c0 -2 7 -7 16 -10 8 -3 12 -2 9 4 -6 10 -25 14 -25 6z"/>
<path d="M957 3033 c3 -7 6 -13 8 -13 2 0 5 6 8 13 3 8 -1 14 -8 14 -7 0 -11
-6 -8 -14z"/>
<path d="M1270 3042 c0 -5 7 -9 15 -9 8 0 12 4 9 9 -3 4 -9 8 -15 8 -5 0 -9
-4 -9 -8z"/>
<path d="M1776 3034 c-3 -7 2 -10 15 -7 22 6 26 20 4 20 -8 0 -16 -6 -19 -13z"/>
<path d="M1948 3032 c-4 -12 1 -18 13 -18 12 0 15 4 9 12 -6 6 -7 14 -3 17 3
4 2 7 -4 7 -6 0 -13 -8 -15 -18z"/>
<path d="M2028 3032 c-4 -12 1 -18 13 -18 12 0 15 4 9 12 -6 6 -7 14 -3 17 3
4 2 7 -4 7 -6 0 -13 -8 -15 -18z"/>
<path d="M2190 3039 c0 -3 9 -9 19 -12 13 -3 18 0 15 7 -5 13 -34 18 -34 5z"/>
<path d="M2437 3036 c-3 -8 0 -17 7 -19 10 -4 12 1 9 14 -6 23 -9 24 -16 5z"/>
<path d="M2517 3035 c-6 -15 10 -32 20 -21 4 3 1 6 -5 6 -6 0 -9 7 -6 15 4 8
4 15 1 15 -3 0 -7 -7 -10 -15z"/>
<path d="M2654 3039 c-3 -6 -3 -13 0 -16 3 -4 6 -1 6 5 0 6 7 9 15 6 8 -4 15
-4 15 -1 0 11 -30 16 -36 6z"/>
<path d="M1350 3036 c0 -2 9 -6 20 -9 11 -3 18 -1 14 4 -5 9 -34 13 -34 5z"/>
<path d="M1231 3013 c8 -9 8 -17 0 -26 -8 -10 -7 -14 4 -14 8 0 11 5 8 10 -4
6 0 8 8 5 10 -4 15 1 15 12 0 11 -5 16 -15 12 -8 -3 -12 -1 -8 5 3 5 0 10 -8
10 -11 0 -12 -4 -4 -14z"/>
<path d="M1315 3020 c6 -10 4 -12 -8 -7 -11 4 -14 2 -10 -9 3 -8 8 -12 11 -10
3 3 11 -2 19 -12 13 -15 13 -15 4 4 -6 12 -8 24 -5 27 3 3 0 8 -7 13 -8 5 -10
3 -4 -6z"/>
<path d="M1753 3011 c0 -11 5 -18 9 -15 4 3 5 11 1 19 -7 21 -12 19 -10 -4z"/>
<path d="M1836 3022 c-2 -4 -1 -14 3 -20 6 -10 11 -9 21 3 11 13 10 14 -5 9
-13 -5 -16 -4 -11 4 4 7 5 12 2 12 -3 0 -7 -4 -10 -8z"/>
<path d="M2155 3020 c6 -10 4 -12 -8 -7 -11 4 -14 2 -10 -9 3 -8 8 -12 11 -10
3 3 11 -2 19 -12 13 -15 13 -15 4 4 -6 12 -8 24 -5 27 3 3 0 8 -7 13 -8 5 -10
3 -4 -6z"/>
<path d="M2310 3010 c6 -10 5 -21 -1 -27 -6 -6 -5 -10 5 -10 8 0 12 5 9 10 -4
6 0 8 10 4 11 -4 14 -2 10 8 -3 8 -10 12 -16 8 -6 -4 -8 0 -5 9 4 8 0 15 -7
15 -10 0 -11 -5 -5 -17z"/>
<path d="M2562 3021 c-10 -6 -10 -10 2 -20 11 -9 16 -9 22 0 5 8 3 9 -6 4 -10
-6 -12 -4 -7 8 7 19 7 20 -11 8z"/>
<path d="M995 3009 c-4 -6 -5 -12 -2 -15 2 -3 7 2 10 11 7 17 1 20 -8 4z"/>
<path d="M1473 3005 c0 -8 4 -15 9 -15 4 0 8 4 8 9 0 6 -4 12 -8 15 -5 3 -9
-1 -9 -9z"/>
<path d="M2374 2999 c0 -14 3 -16 16 -6 8 6 16 12 18 13 1 1 -5 4 -15 6 -13 4
-19 0 -19 -13z"/>
<path d="M1050 2998 c0 -11 12 -10 30 2 12 7 10 9 -8 7 -12 0 -22 -5 -22 -9z"/>
<path d="M1150 3000 c0 -5 5 -10 10 -10 6 0 10 5 10 10 0 6 -4 10 -10 10 -5 0
-10 -4 -10 -10z"/>
<path d="M1386 2998 c3 -4 9 -8 15 -8 5 0 9 4 9 8 0 5 -7 9 -15 9 -8 0 -12 -4
-9 -9z"/>
<path d="M1560 3000 c-8 -5 -10 -10 -5 -10 6 0 17 5 25 10 8 5 11 10 5 10 -5
0 -17 -5 -25 -10z"/>
<path d="M1893 2997 c-4 -6 -1 -7 7 -2 10 6 12 4 7 -8 -4 -10 -2 -14 7 -11 7
3 13 11 13 18 0 15 -25 17 -34 3z"/>
<path d="M1990 3001 c0 -6 4 -12 8 -15 5 -3 9 1 9 9 0 8 -4 15 -9 15 -4 0 -8
-4 -8 -9z"/>
<path d="M2070 2999 c0 -3 9 -9 19 -12 13 -3 18 0 15 7 -5 13 -34 18 -34 5z"/>
<path d="M2230 3000 c0 -5 5 -10 10 -10 6 0 10 5 10 10 0 6 -4 10 -10 10 -5 0
-10 -4 -10 -10z"/>
<path d="M2427 2999 c7 -7 15 -10 18 -7 3 3 -2 9 -12 12 -14 6 -15 5 -6 -5z"/>
<path d="M2507 2999 c7 -7 15 -10 18 -7 3 3 -2 9 -12 12 -14 6 -15 5 -6 -5z"/>
<path d="M2599 2998 c-5 -19 -8 -50 -4 -46 7 7 15 48 9 48 -2 0 -4 -1 -5 -2z"/>
<path d="M1435 2981 c6 -11 4 -13 -11 -8 -17 6 -17 6 -3 -5 9 -7 16 -17 17
-21 0 -5 4 -12 8 -15 4 -4 3 -1 -1 7 -6 11 -4 13 11 8 17 -6 17 -6 3 5 -9 7
-16 17 -17 21 0 5 -4 12 -8 15 -4 4 -3 1 1 -7z"/>
<path d="M1507 2973 c5 -12 3 -14 -7 -8 -9 6 -11 4 -6 -4 5 -7 10 -10 13 -7 3
3 15 1 27 -5 19 -9 19 -9 4 4 -10 8 -15 16 -12 19 2 3 -2 8 -10 11 -11 4 -13
1 -9 -10z"/>
<path d="M1586 2976 c6 -15 4 -17 -6 -11 -9 6 -11 4 -5 -4 5 -9 10 -10 18 -2
8 8 7 14 -2 24 -10 10 -11 8 -5 -7z"/>
<path d="M2400 2980 c-9 -6 -10 -10 -3 -10 6 0 15 5 18 10 8 12 4 12 -15 0z"/>
<path d="M2473 2971 c10 -12 9 -14 -4 -9 -9 4 -16 1 -16 -7 0 -10 5 -11 17 -5
10 6 21 5 27 -1 6 -6 10 -5 10 5 0 8 -5 12 -10 9 -6 -4 -8 0 -5 8 4 10 -1 15
-13 15 -14 0 -16 -3 -6 -15z"/>
<path d="M1126 2971 c-19 -7 -19 -8 0 -13 13 -3 21 0 21 8 0 8 -1 14 -1 13 -1
0 -10 -4 -20 -8z"/>
<path d="M1173 2965 c0 -8 7 -11 16 -7 14 5 14 4 1 -14 -14 -18 -14 -18 3 -5
22 17 22 27 -1 33 -11 3 -19 0 -19 -7z"/>
<path d="M1820 2972 c0 -6 -8 -9 -17 -6 -15 5 -16 4 -3 -5 16 -11 40 3 27 16
-4 3 -7 1 -7 -5z"/>
<path d="M2254 2959 c0 -12 4 -15 12 -9 6 6 14 7 17 3 4 -3 7 -2 7 4 0 6 -8
13 -18 15 -12 4 -18 -1 -18 -13z"/>
<path d="M1270 2960 c0 -5 5 -10 10 -10 6 0 10 5 10 10 0 6 -4 10 -10 10 -5 0
-10 -4 -10 -10z"/>
<path d="M1350 2960 c0 -4 7 -13 15 -20 13 -11 14 -10 9 5 -6 14 -4 16 7 10 8
-5 11 -4 6 0 -10 12 -37 15 -37 5z"/>
<path d="M1857 2956 c-4 -10 1 -12 14 -9 23 6 24 9 5 16 -8 3 -17 0 -19 -7z"/>
<path d="M2113 2955 c0 -8 6 -16 13 -19 7 -3 10 2 7 15 -6 22 -20 26 -20 4z"/>
<path d="M2202 2961 c-11 -6 -9 -9 6 -13 15 -4 19 -2 15 8 -6 16 -4 16 -21 5z"/>
<path d="M2353 2963 c4 -3 3 -11 -3 -17 -6 -8 -3 -12 9 -12 12 0 17 6 13 18
-2 10 -9 18 -15 18 -6 0 -7 -3 -4 -7z"/>
<path d="M2412 2961 c-11 -7 -11 -9 0 -14 9 -3 15 1 15 9 0 8 -1 14 -1 14 -1
0 -7 -4 -14 -9z"/>
<path d="M2533 2955 c0 -7 6 -11 14 -8 7 3 13 6 13 8 0 2 -6 5 -13 8 -8 3 -14
-1 -14 -8z"/>
<path d="M1230 2930 c6 -10 5 -21 -1 -27 -6 -6 -5 -10 5 -10 8 0 12 5 9 10 -4
6 0 8 8 5 10 -4 15 1 15 13 0 14 -3 16 -15 6 -12 -10 -14 -9 -9 4 4 9 1 16 -7
16 -10 0 -11 -5 -5 -17z"/>
<path d="M1315 2941 c6 -11 4 -13 -8 -8 -11 4 -14 2 -10 -8 3 -8 10 -12 16 -8
6 4 8 0 5 -9 -4 -8 0 -15 7 -15 11 0 12 5 3 21 -6 12 -10 23 -9 24 2 2 -1 7
-5 10 -4 4 -3 1 1 -7z"/>
<path d="M2310 2939 c6 -8 5 -20 -2 -33 -10 -20 -10 -20 8 -3 17 16 17 18 1
32 -9 8 -13 10 -7 4z"/>
<path d="M2395 2929 c-4 -6 -5 -12 -2 -15 2 -3 7 2 10 11 7 17 1 20 -8 4z"/>
<path d="M1160 2920 c8 -5 20 -10 25 -10 6 0 3 5 -5 10 -8 5 -19 10 -25 10 -5
0 -3 -5 5 -10z"/>
<path d="M1390 2921 c0 -6 4 -12 8 -15 5 -3 9 1 9 9 0 8 -4 15 -9 15 -4 0 -8
-4 -8 -9z"/>
<path d="M1477 2915 c-4 -8 -1 -17 5 -21 7 -5 8 -2 3 6 -6 10 -4 12 10 6 15
-5 16 -4 5 9 -15 19 -16 19 -23 0z"/>
<path d="M1544 2918 c-4 -7 -4 -10 1 -6 4 4 14 0 21 -10 12 -15 12 -15 7 6 -6
24 -18 29 -29 10z"/>
<path d="M1755 2919 c-3 -4 2 -6 10 -5 21 3 28 13 10 13 -9 0 -18 -4 -20 -8z"/>
<path d="M2226 2918 c3 -4 9 -8 15 -8 5 0 9 4 9 8 0 5 -7 9 -15 9 -8 0 -12 -4
-9 -9z"/>
<path d="M2433 2923 c4 -3 2 -11 -3 -18 -7 -8 -5 -12 5 -12 8 0 11 5 8 10 -4
7 1 8 12 3 15 -5 16 -4 5 9 -7 8 -17 15 -23 15 -6 0 -7 -3 -4 -7z"/>
<path d="M2515 2920 c3 -5 8 -10 11 -10 2 0 4 5 4 10 0 6 -5 10 -11 10 -5 0
-7 -4 -4 -10z"/>
<path d="M1896 2911 c-4 -5 3 -7 14 -4 23 6 26 13 6 13 -8 0 -17 -4 -20 -9z"/>
<path d="M2150 2916 c0 -2 7 -9 15 -16 13 -11 14 -10 9 4 -5 14 -24 23 -24 12z"/>
<path d="M1427 2893 c5 -12 3 -14 -7 -8 -8 5 -11 4 -6 -3 4 -6 13 -9 22 -5 11
4 12 9 3 19 -15 19 -20 18 -12 -3z"/>
<path d="M2107 2904 c7 -3 9 -13 6 -22 -4 -14 -3 -14 5 -2 12 16 7 30 -11 29
-9 0 -9 -2 0 -5z"/>
<path d="M2350 2894 c6 -6 7 -14 3 -17 -3 -4 -2 -7 4 -7 6 0 13 8 15 18 4 12
-1 18 -13 18 -12 0 -15 -4 -9 -12z"/>
<path d="M1357 2893 c-10 -9 -9 -23 1 -23 5 0 9 7 9 15 0 17 -1 18 -10 8z"/>
<path d="M1918 2893 c7 -3 16 -2 19 1 4 3 -2 6 -13 5 -11 0 -14 -3 -6 -6z"/>
<path d="M2011 2893 c-1 -18 13 -23 29 -11 12 8 12 9 -2 5 -9 -3 -19 -1 -22 6
-3 9 -5 9 -5 0z"/>
<path d="M2254 2881 c0 -12 6 -17 18 -13 10 2 18 9 18 15 0 6 -3 7 -7 4 -3 -4
-11 -3 -17 3 -8 6 -12 3 -12 -9z"/>
<path d="M1270 2880 c0 -5 5 -10 10 -10 6 0 10 5 10 10 0 6 -4 10 -10 10 -5 0
-10 -4 -10 -10z"/>
<path d="M1506 2878 c3 -4 9 -8 15 -8 5 0 9 4 9 8 0 5 -7 9 -15 9 -8 0 -12 -4
-9 -9z"/>
<path d="M1793 2878 c3 -9 1 -19 -6 -22 -9 -3 -9 -5 0 -5 18 -1 23 13 11 29
-8 12 -9 12 -5 -2z"/>
<path d="M1867 2871 c-3 -13 -1 -18 9 -14 7 2 10 11 7 19 -7 19 -10 18 -16 -5z"/>
<path d="M2202 2881 c-11 -6 -9 -9 6 -13 15 -4 19 -2 15 8 -6 16 -4 16 -21 5z"/>
<path d="M2407 2879 c7 -7 15 -10 18 -7 3 3 -2 9 -12 12 -14 6 -15 5 -6 -5z"/>
<path d="M1313 2855 c0 -8 4 -12 9 -9 5 3 6 10 3 15 -9 13 -12 11 -12 -6z"/>
<path d="M1466 2856 c5 -13 4 -17 -4 -12 -15 9 -26 -14 -13 -27 9 -9 10 -7 5
7 -5 13 -4 17 4 12 15 -9 26 14 13 27 -9 9 -10 7 -5 -7z"/>
<path d="M1555 2861 c6 -11 4 -13 -8 -8 -11 4 -14 2 -10 -8 3 -8 10 -12 16 -8
6 4 8 0 5 -9 -4 -8 0 -15 7 -15 11 0 12 5 3 21 -6 12 -10 23 -9 24 2 2 -1 7
-5 10 -4 4 -3 1 1 -7z"/>
<path d="M2153 2855 c0 -8 4 -12 9 -9 5 3 6 10 3 15 -9 13 -12 11 -12 -6z"/>
<path d="M1755 2850 c-4 -6 -11 -8 -16 -5 -5 4 -9 2 -9 -4 0 -5 8 -9 18 -8 10
0 19 7 19 14 0 16 -4 16 -12 3z"/>
<path d="M1839 2858 c-5 -18 -6 -38 -1 -34 7 8 12 36 6 36 -2 0 -4 -1 -5 -2z"/>
<path d="M1650 2840 c0 -5 5 -10 10 -10 6 0 10 5 10 10 0 6 -4 10 -10 10 -5 0
-10 -4 -10 -10z"/>
<path d="M1914 2836 c1 -8 5 -18 8 -22 4 -3 5 1 4 10 -1 8 -5 18 -8 22 -4 3
-5 -1 -4 -10z"/>
<path d="M2093 2835 c0 -7 7 -11 15 -7 11 4 13 1 7 -8 -5 -9 -4 -11 3 -6 16
10 15 14 -6 25 -14 7 -19 6 -19 -4z"/>
<path d="M2240 2841 c0 -5 7 -12 16 -15 14 -5 15 -4 4 9 -14 17 -20 19 -20 6z"/>
<path d="M1415 2831 c-3 -5 -2 -12 3 -15 5 -3 9 1 9 9 0 17 -3 19 -12 6z"/>
<path d="M1796 2822 c-2 -4 0 -14 6 -22 8 -12 9 -12 5 2 -3 9 -1 19 6 22 9 3
9 5 0 5 -6 1 -14 -3 -17 -7z"/>
<path d="M2165 2810 c-16 -7 -17 -9 -3 -9 9 -1 20 4 23 9 7 11 7 11 -20 0z"/>
</g>
</svg>
