<svg width="32" height="32" viewBox="0 0 32 32" fill="none" xmlns="http://www.w3.org/2000/svg">
<path fill-rule="evenodd" clip-rule="evenodd" d="M16.6349 3.22741C16.66 3.24796 16.6841 3.2698 16.7071 3.29289L23.3738 9.95956C23.7643 10.3501 23.7643 10.9832 23.3738 11.3738C22.9833 11.7643 22.3501 11.7643 21.9596 11.3738L17 6.41417V20C17 20.5523 16.5523 21 16 21C15.4477 21 15 20.5523 15 20V6.41425L10.0405 11.3738C9.64996 11.7643 9.01679 11.7643 8.62627 11.3738C8.23574 10.9832 8.23574 10.3501 8.62627 9.95956L15.2875 3.29828C15.4689 3.11415 15.7211 3 16 3M16 3C16.2411 3.00001 16.4623 3.08533 16.6349 3.22741L16 3ZM4 19C4.55228 19 5 19.4477 5 20V25.3333C5 25.7754 5.17559 26.1993 5.48816 26.5118C5.80072 26.8244 6.22464 27 6.66667 27H25.3333C25.7754 27 26.1993 26.8244 26.5118 26.5118C26.8244 26.1993 27 25.7754 27 25.3333V20C27 19.4477 27.4477 19 28 19C28.5523 19 29 19.4477 29 20V25.3333C29 26.3058 28.6137 27.2384 27.9261 27.9261C27.2384 28.6137 26.3058 29 25.3333 29H6.66667C5.69421 29 4.76157 28.6137 4.07394 27.9261C3.38631 27.2384 3 26.3058 3 25.3333V20C3 19.4477 3.44772 19 4 19Z" fill="#26292B"/>
</svg>
