<svg width="16" height="16" viewBox="0 0 16 16" xmlns="http://www.w3.org/2000/svg">
<path fill-rule="evenodd" clip-rule="evenodd" d="M7.66667 2.33325C4.26091 2.33325 1.5 5.09416 1.5 8.49992C1.5 11.9057 4.26091 14.6666 7.66667 14.6666C11.0724 14.6666 13.8333 11.9057 13.8333 8.49992C13.8333 5.09416 11.0724 2.33325 7.66667 2.33325ZM0.5 8.49992C0.5 4.54188 3.70863 1.33325 7.66667 1.33325C11.6247 1.33325 14.8333 4.54188 14.8333 8.49992C14.8333 12.458 11.6247 15.6666 7.66667 15.6666C3.70863 15.6666 0.5 12.458 0.5 8.49992ZM7.64645 4.9797C7.84171 4.78444 8.15829 4.78444 8.35355 4.9797L11.0202 7.64637C11.0463 7.67241 11.0691 7.70104 11.0886 7.73165C11.1311 7.79836 11.1583 7.87584 11.165 7.95908C11.1661 7.97262 11.1667 7.98624 11.1667 7.99992C11.1667 8.00941 11.1664 8.01888 11.1659 8.02831C11.1587 8.15747 11.1024 8.27354 11.0155 8.35823L8.35355 11.0201C8.15829 11.2154 7.84171 11.2154 7.64645 11.0201C7.45118 10.8249 7.45118 10.5083 7.64645 10.313L9.45948 8.5H5.33331C5.05717 8.5 4.83331 8.27614 4.83331 8C4.83331 7.72386 5.05717 7.5 5.33331 7.5H9.45964L7.64645 5.68681C7.45118 5.49154 7.45118 5.17496 7.64645 4.9797Z"/>
</svg>
