<svg width="16" height="16" viewBox="0 0 16 16" xmlns="http://www.w3.org/2000/svg">
<path fill-rule="evenodd" clip-rule="evenodd" d="M3.6 1.03325C3.69443 0.907349 3.84262 0.833252 4 0.833252H12C12.1574 0.833252 12.3056 0.907349 12.4 1.03325L14.3958 3.69433C14.4611 3.77883 14.5 3.88481 14.5 3.99988V3.99992V13.3333C14.5 13.8195 14.3068 14.2858 13.963 14.6296C13.6192 14.9734 13.1529 15.1666 12.6667 15.1666H3.33333C2.8471 15.1666 2.38079 14.9734 2.03697 14.6296C1.69315 14.2858 1.5 13.8195 1.5 13.3333V3.99992V3.99988C1.5 3.88481 1.53887 3.77881 1.6042 3.69431L3.6 1.03325ZM11.75 1.83325L13 3.49988H3.00003L4.25 1.83325H11.75ZM2.5 13.3333V4.49988H13.5V13.3333C13.5 13.5543 13.4122 13.7662 13.2559 13.9225C13.0996 14.0788 12.8877 14.1666 12.6667 14.1666H3.33333C3.11232 14.1666 2.90036 14.0788 2.74408 13.9225C2.5878 13.7662 2.5 13.5543 2.5 13.3333ZM5.83331 6.6665C5.83331 6.39036 5.60946 6.1665 5.33331 6.1665C5.05717 6.1665 4.83331 6.39036 4.83331 6.6665C4.83331 7.50636 5.16694 8.31181 5.76081 8.90568C6.35467 9.49954 7.16013 9.83317 7.99998 9.83317C8.83983 9.83317 9.64529 9.49954 10.2392 8.90568C10.833 8.31181 11.1666 7.50636 11.1666 6.6665C11.1666 6.39036 10.9428 6.1665 10.6666 6.1665C10.3905 6.1665 10.1666 6.39036 10.1666 6.6665C10.1666 7.24114 9.93837 7.79224 9.53204 8.19857C9.12572 8.6049 8.57462 8.83317 7.99998 8.83317C7.42534 8.83317 6.87424 8.6049 6.46791 8.19857C6.06159 7.79224 5.83331 7.24114 5.83331 6.6665Z"/>
</svg>
