<svg width="16" height="16" viewBox="0 0 16 16" xmlns="http://www.w3.org/2000/svg">
<path fill-rule="evenodd" clip-rule="evenodd" d="M1 2.5C1 2.22386 1.22386 2 1.5 2H3.5C3.77614 2 4 2.22386 4 2.5C4 2.77614 3.77614 3 3.5 3H2V4.5C2 4.77614 1.77614 5 1.5 5C1.22386 5 1 4.77614 1 4.5V2.5ZM1.5 14C1.22386 14 1 13.7761 1 13.5V11.5C1 11.2239 1.22386 11 1.5 11C1.77614 11 2 11.2239 2 11.5L2 13H3.5C3.77614 13 4 13.2239 4 13.5C4 13.7761 3.77614 14 3.5 14H1.5ZM14.5 14C14.7761 14 15 13.7761 15 13.5V11.5C15 11.2239 14.7761 11 14.5 11C14.2239 11 14 11.2239 14 11.5V13H12.5C12.2239 13 12 13.2239 12 13.5C12 13.7761 12.2239 14 12.5 14H14.5ZM14.5 2C14.7761 2 15 2.22386 15 2.5V4.5C15 4.77614 14.7761 5 14.5 5C14.2239 5 14 4.77614 14 4.5V3H12.5C12.2239 3 12 2.77614 12 2.5C12 2.22386 12.2239 2 12.5 2H14.5ZM4 4C3.72386 4 3.5 4.22386 3.5 4.5V11.5C3.5 11.7761 3.72386 12 4 12C4.27614 12 4.5 11.7761 4.5 11.5V4.5C4.5 4.22386 4.27614 4 4 4ZM5.5 4.5C5.5 4.22386 5.72386 4 6 4C6.27614 4 6.5 4.22386 6.5 4.5V10.1667C6.5 10.4428 6.27614 10.6667 6 10.6667C5.72386 10.6667 5.5 10.4428 5.5 10.1667V4.5ZM8 4C7.72386 4 7.5 4.22386 7.5 4.5V11.5C7.5 11.7761 7.72386 12 8 12C8.27614 12 8.5 11.7761 8.5 11.5V4.5C8.5 4.22386 8.27614 4 8 4ZM9.5 4.5C9.5 4.22386 9.72386 4 10 4C10.2761 4 10.5 4.22386 10.5 4.5V10.1667C10.5 10.4428 10.2761 10.6667 10 10.6667C9.72386 10.6667 9.5 10.4428 9.5 10.1667V4.5ZM12 4C11.7239 4 11.5 4.22386 11.5 4.5V11.5C11.5 11.7761 11.7239 12 12 12C12.2761 12 12.5 11.7761 12.5 11.5V4.5C12.5 4.22386 12.2761 4 12 4Z"/>
</svg>
