<svg width="16" height="16" viewBox="0 0 16 16" xmlns="http://www.w3.org/2000/svg">
<path fill-rule="evenodd" clip-rule="evenodd" d="M1.33325 0.833252C1.05711 0.833252 0.833252 1.05711 0.833252 1.33325V7.99992C0.833252 8.13263 0.88601 8.25989 0.979905 8.35368L6.70617 14.0733L6.70639 14.0735C6.87661 14.2438 7.07873 14.379 7.3012 14.4712C7.52376 14.5635 7.76233 14.611 8.00325 14.611C8.24418 14.611 8.48274 14.5635 8.70531 14.4712C8.92787 14.379 9.13007 14.2437 9.30033 14.0733L14.0801 9.29347L13.7266 8.93992L14.0812 9.29242C14.4226 8.94892 14.6143 8.48426 14.6143 7.99992C14.6143 7.51558 14.4226 7.05092 14.0812 6.70742L14.0801 6.70637L8.35347 0.979699C8.2597 0.88593 8.13253 0.833252 7.99992 0.833252H1.33325ZM13.3725 8.58693L13.372 8.58742L8.59303 13.3664L8.59284 13.3666C8.51544 13.444 8.42353 13.5055 8.32237 13.5474C8.22121 13.5894 8.11277 13.611 8.00325 13.611C7.89374 13.611 7.7853 13.5894 7.68414 13.5474C7.58297 13.5055 7.49106 13.444 7.41367 13.3666L7.41327 13.3662L1.83325 7.79264V1.83325H7.79281L13.372 7.41242L13.3725 7.41291C13.5274 7.569 13.6143 7.78 13.6143 7.99992C13.6143 8.21984 13.5274 8.43084 13.3725 8.58693ZM4.66663 4.1665C4.39048 4.1665 4.16663 4.39036 4.16663 4.6665C4.16663 4.94265 4.39048 5.1665 4.66663 5.1665H4.67329C4.94944 5.1665 5.17329 4.94265 5.17329 4.6665C5.17329 4.39036 4.94944 4.1665 4.67329 4.1665H4.66663Z"/>
</svg>
