<svg width="16" height="16" viewBox="0 0 16 16" xmlns="http://www.w3.org/2000/svg">
<path fill-rule="evenodd" clip-rule="evenodd" d="M3.50833 2.17496C3.72713 1.95617 4.02387 1.83325 4.33329 1.83325H12.8333V10.8333H4.33329C3.91662 10.8333 3.51233 10.9533 3.16663 11.1742V2.99992C3.16663 2.6905 3.28954 2.39375 3.50833 2.17496ZM3.16663 12.9999C3.16663 13.3093 3.28954 13.6061 3.50833 13.8249C3.72713 14.0437 4.02387 14.1666 4.33329 14.1666H12.8333V11.8333H4.33329C4.02387 11.8333 3.72713 11.9562 3.50833 12.175C3.28954 12.3938 3.16663 12.6905 3.16663 12.9999ZM13.8333 11.3333V1.33325C13.8333 1.05711 13.6094 0.833252 13.3333 0.833252H4.33329C3.75866 0.833252 3.20756 1.06153 2.80123 1.46785C2.3949 1.87418 2.16663 2.42528 2.16663 2.99992V12.9999C2.16663 13.5746 2.3949 14.1257 2.80123 14.532C3.20756 14.9383 3.75866 15.1666 4.33329 15.1666H13.3333C13.6094 15.1666 13.8333 14.9427 13.8333 14.6666V11.3333Z"/>
</svg>
