<svg width="16" height="16" viewBox="0 0 16 16" xmlns="http://www.w3.org/2000/svg">
<g clip-path="url(#clip0)">
<path fill-rule="evenodd" clip-rule="evenodd" d="M0.853553 0.146447C0.658291 -0.0488155 0.341709 -0.0488155 0.146447 0.146447C-0.0488155 0.341709 -0.0488155 0.658291 0.146447 0.853553L2.62627 3.33337H1.83333C1.3471 3.33337 0.880787 3.52653 0.536971 3.87035C0.193154 4.21416 7.45058e-09 4.68048 7.45058e-09 5.16671V12.5C7.45058e-09 12.9863 0.193154 13.4526 0.536971 13.7964C0.880788 14.1402 1.3471 14.3334 1.83333 14.3334H13.6263L14.8131 15.5202C15.0084 15.7155 15.325 15.7155 15.5202 15.5202C15.7155 15.325 15.7155 15.0084 15.5202 14.8131L10.3795 9.67237C10.3759 9.66865 10.3722 9.66498 10.3685 9.66136L6.67199 5.96488C6.66839 5.96116 6.66473 5.95751 6.66103 5.95392L0.853553 0.146447ZM5.83333 1.33337C5.55719 1.33337 5.33333 1.55723 5.33333 1.83337C5.33333 2.10952 5.55719 2.33337 5.83333 2.33337H9.56574L10.7506 4.11072C10.8434 4.24982 10.9995 4.33337 11.1667 4.33337H13.8333C14.0543 4.33337 14.2663 4.42117 14.4226 4.57745C14.5789 4.73373 14.6667 4.94569 14.6667 5.16671V11.3934C14.6667 11.6695 14.8905 11.8934 15.1667 11.8934C15.4428 11.8934 15.6667 11.6695 15.6667 11.3934V5.16671C15.6667 4.68048 15.4735 4.21416 15.1297 3.87035C14.7859 3.52653 14.3196 3.33337 13.8333 3.33337H11.4343L10.2494 1.55602C10.1566 1.41692 10.0005 1.33337 9.83333 1.33337H5.83333ZM1.24408 4.57745C1.40036 4.42117 1.61232 4.33337 1.83333 4.33337H3.62623L5.57395 6.2811C5.38744 6.46863 5.2246 6.67936 5.08971 6.90869C4.85382 7.30974 4.7092 7.75786 4.66615 8.22115C4.6231 8.68444 4.68267 9.15153 4.84063 9.58918C4.99859 10.0268 5.25105 10.4243 5.58006 10.7533C5.90907 11.0823 6.30654 11.3348 6.74419 11.4927C7.18185 11.6507 7.64893 11.7103 8.11223 11.6672C8.57552 11.6242 9.02363 11.4796 9.42469 11.2437C9.65402 11.1088 9.86474 10.9459 10.0523 10.7594L12.6262 13.3334H1.83333C1.61232 13.3334 1.40036 13.2456 1.24408 13.0893C1.0878 12.933 1 12.7211 1 12.5V5.16671C1 4.94569 1.0878 4.73373 1.24408 4.57745ZM5.95166 7.41567C6.04349 7.25955 6.15425 7.11604 6.28106 6.98821L9.34516 10.0523C9.21734 10.1791 9.07382 10.2899 8.9177 10.3817C8.64329 10.5431 8.33669 10.6421 8.0197 10.6715C7.70271 10.701 7.38313 10.6602 7.08368 10.5521C6.78423 10.4441 6.51228 10.2713 6.28717 10.0462C6.06206 9.8211 5.88932 9.54914 5.78124 9.2497C5.67316 8.95025 5.6324 8.63066 5.66186 8.31367C5.69131 7.99668 5.79026 7.69008 5.95166 7.41567Z"/>
</g>
<defs>
<clipPath id="clip0">
<rect width="16" height="16"/>
</clipPath>
</defs>
</svg>
