<svg width="16" height="16" viewBox="0 0 16 16" xmlns="http://www.w3.org/2000/svg">
<g clip-path="url(#clip0)">
<path fill-rule="evenodd" clip-rule="evenodd" d="M0.666748 0.166748C0.390606 0.166748 0.166748 0.390606 0.166748 0.666748C0.166748 0.94289 0.390606 1.16675 0.666748 1.16675H2.92357L3.50565 4.07499C3.50806 4.09101 3.51123 4.10678 3.51512 4.12227L4.62966 9.69082L4.62974 9.69124C4.71364 10.1131 4.94319 10.492 5.27824 10.7618C5.61207 11.0305 6.02945 11.1738 6.45784 11.1667H12.929C13.3574 11.1738 13.7748 11.0305 14.1086 10.7618C14.4438 10.492 14.6733 10.1129 14.7572 9.69082L14.7579 9.68708L15.8246 4.09375C15.8525 3.94737 15.8137 3.79617 15.7187 3.68136C15.6237 3.56655 15.4824 3.50008 15.3334 3.50008H4.41042L3.82369 0.56862C3.77692 0.334941 3.57173 0.166748 3.33341 0.166748H0.666748ZM5.61036 9.49529L4.61057 4.50008H14.7291L13.7763 9.49601L13.776 9.49764C13.7376 9.68881 13.6334 9.8605 13.4815 9.9828C13.3292 10.1054 13.1385 10.1706 12.943 10.1668L12.943 10.1667H12.9334H6.45341V10.1667L6.44383 10.1668C6.24829 10.1706 6.05766 10.1054 5.90531 9.9828C5.75296 9.86016 5.6486 9.68784 5.6105 9.49601L5.61036 9.49529ZM6.00004 13.8335C5.90799 13.8335 5.83337 13.9081 5.83337 14.0002C5.83337 14.0922 5.90799 14.1668 6.00004 14.1668C6.09209 14.1668 6.16671 14.0922 6.16671 14.0002C6.16671 13.9081 6.09209 13.8335 6.00004 13.8335ZM4.83337 14.0002C4.83337 13.3558 5.35571 12.8335 6.00004 12.8335C6.64437 12.8335 7.16671 13.3558 7.16671 14.0002C7.16671 14.6445 6.64437 15.1668 6.00004 15.1668C5.35571 15.1668 4.83337 14.6445 4.83337 14.0002ZM13.3334 13.8335C13.2414 13.8335 13.1667 13.9081 13.1667 14.0002C13.1667 14.0922 13.2414 14.1668 13.3334 14.1668C13.4255 14.1668 13.5001 14.0922 13.5001 14.0002C13.5001 13.9081 13.4255 13.8335 13.3334 13.8335ZM12.1667 14.0002C12.1667 13.3558 12.6891 12.8335 13.3334 12.8335C13.9777 12.8335 14.5001 13.3558 14.5001 14.0002C14.5001 14.6445 13.9777 15.1668 13.3334 15.1668C12.6891 15.1668 12.1667 14.6445 12.1667 14.0002Z"/>
</g>
<defs>
<clipPath id="clip0">
<rect width="16" height="16"/>
</clipPath>
</defs>
</svg>
