<svg width="16" height="16" viewBox="0 0 16 16" xmlns="http://www.w3.org/2000/svg">
<path fill-rule="evenodd" clip-rule="evenodd" d="M2 8C2 4.68629 4.68629 2 8 2C11.3137 2 14 4.68629 14 8C14 11.3137 11.3137 14 8 14C4.68629 14 2 11.3137 2 8ZM8 1C4.13401 1 1 4.13401 1 8C1 11.866 4.13401 15 8 15C11.866 15 15 11.866 15 8C15 4.13401 11.866 1 8 1ZM11.8782 6.35355C12.0735 6.15828 12.0735 5.8417 11.8782 5.64644C11.6829 5.45118 11.3664 5.45119 11.1711 5.64645L7.52466 9.29302L5.85354 7.62191C5.65828 7.42665 5.3417 7.42665 5.14644 7.62191C4.95117 7.81717 4.95118 8.13376 5.14644 8.32902L7.17111 10.3537C7.26488 10.4475 7.39206 10.5001 7.52467 10.5001C7.65728 10.5001 7.78446 10.4474 7.87823 10.3537L11.8782 6.35355Z"/>
</svg>
