<svg width="16" height="16" viewBox="0 0 16 16" xmlns="http://www.w3.org/2000/svg">
<path fill-rule="evenodd" clip-rule="evenodd" d="M12.0202 4.02022C12.2155 3.82496 12.2155 3.50838 12.0202 3.31311C11.825 3.11785 11.5084 3.11785 11.3131 3.31311L7.66667 6.95956L4.02022 3.31311C3.82496 3.11785 3.50838 3.11785 3.31311 3.31311C3.11785 3.50838 3.11785 3.82496 3.31311 4.02022L6.95956 7.66667L3.31311 11.3131C3.11785 11.5084 3.11785 11.825 3.31311 12.0202C3.50838 12.2155 3.82496 12.2155 4.02022 12.0202L7.66667 8.37377L11.3131 12.0202C11.5084 12.2155 11.825 12.2155 12.0202 12.0202C12.2155 11.825 12.2155 11.5084 12.0202 11.3131L8.37377 7.66667L12.0202 4.02022Z"/>
</svg>
