<svg width="16" height="16" viewBox="0 0 16 16" xmlns="http://www.w3.org/2000/svg">
<path fill-rule="evenodd" clip-rule="evenodd" d="M2.07745 2.07757C2.23373 1.92129 2.44569 1.8335 2.66671 1.8335H8.66671C8.88772 1.8335 9.09968 1.92129 9.25596 2.07757C9.41224 2.23385 9.50004 2.44582 9.50004 2.66683V3.3335C9.50004 3.60964 9.7239 3.8335 10 3.8335C10.2762 3.8335 10.5 3.60964 10.5 3.3335V2.66683C10.5 2.1806 10.3069 1.71428 9.96307 1.37047C9.61925 1.02665 9.15294 0.833496 8.66671 0.833496H2.66671C2.18048 0.833496 1.71416 1.02665 1.37034 1.37047C1.02653 1.71428 0.833374 2.1806 0.833374 2.66683V8.66683C0.833374 9.15306 1.02653 9.61938 1.37034 9.96319C1.71416 10.307 2.18048 10.5002 2.66671 10.5002H3.33337C3.60952 10.5002 3.83337 10.2763 3.83337 10.0002C3.83337 9.72402 3.60952 9.50016 3.33337 9.50016H2.66671C2.44569 9.50016 2.23373 9.41237 2.07745 9.25608C1.92117 9.0998 1.83337 8.88784 1.83337 8.66683V2.66683C1.83337 2.44582 1.92117 2.23385 2.07745 2.07757ZM6.5 7.33346C6.5 6.87322 6.8731 6.50012 7.33333 6.50012H13.3333C13.7936 6.50012 14.1667 6.87322 14.1667 7.33346V13.3335C14.1667 13.7937 13.7936 14.1668 13.3333 14.1668H7.33333C6.8731 14.1668 6.5 13.7937 6.5 13.3335V7.33346ZM7.33333 5.50012C6.32081 5.50012 5.5 6.32093 5.5 7.33346V13.3335C5.5 14.346 6.32081 15.1668 7.33333 15.1668H13.3333C14.3459 15.1668 15.1667 14.346 15.1667 13.3335V7.33346C15.1667 6.32093 14.3459 5.50012 13.3333 5.50012H7.33333Z"/>
</svg>
