<svg width="16" height="16" viewBox="0 0 16 16" xmlns="http://www.w3.org/2000/svg">
<path fill-rule="evenodd" clip-rule="evenodd" d="M5.5 3.5C6.32843 3.5 7 2.82843 7 2C7 1.17157 6.32843 0.5 5.5 0.5C4.67157 0.5 4 1.17157 4 2C4 2.82843 4.67157 3.5 5.5 3.5ZM7 8C7 8.82843 6.32843 9.5 5.5 9.5C4.67157 9.5 4 8.82843 4 8C4 7.17157 4.67157 6.5 5.5 6.5C6.32843 6.5 7 7.17157 7 8ZM7 14C7 14.8284 6.32843 15.5 5.5 15.5C4.67157 15.5 4 14.8284 4 14C4 13.1716 4.67157 12.5 5.5 12.5C6.32843 12.5 7 13.1716 7 14Z"/>
<path fill-rule="evenodd" clip-rule="evenodd" d="M10.5 3.5C11.3284 3.5 12 2.82843 12 2C12 1.17157 11.3284 0.5 10.5 0.5C9.67157 0.5 9 1.17157 9 2C9 2.82843 9.67157 3.5 10.5 3.5ZM12 8C12 8.82843 11.3284 9.5 10.5 9.5C9.67157 9.5 9 8.82843 9 8C9 7.17157 9.67157 6.5 10.5 6.5C11.3284 6.5 12 7.17157 12 8ZM12 14C12 14.8284 11.3284 15.5 10.5 15.5C9.67157 15.5 9 14.8284 9 14C9 13.1716 9.67157 12.5 10.5 12.5C11.3284 12.5 12 13.1716 12 14Z"/>
</svg>
