<svg width="16" height="16" viewBox="0 0 16 16" xmlns="http://www.w3.org/2000/svg">
<g clip-path="url(#clip0)">
<path fill-rule="evenodd" clip-rule="evenodd" d="M12.6869 2.02021C12.8584 1.84876 13.0909 1.75244 13.3334 1.75244C13.5758 1.75244 13.8084 1.84876 13.9798 2.02021C14.1513 2.19166 14.2476 2.42419 14.2476 2.66665C14.2476 2.90912 14.1513 3.14165 13.9798 3.3131L7.74442 9.54851L6.02056 9.97947L6.45152 8.25561L12.6869 2.02021ZM13.3334 0.752441C12.8257 0.752441 12.3388 0.954117 11.9798 1.3131L5.64649 7.64644C5.58241 7.71052 5.53695 7.7908 5.51497 7.87872L4.8483 10.5454C4.80571 10.7158 4.85563 10.896 4.97982 11.0202C5.10401 11.1444 5.28425 11.1943 5.45464 11.1517L8.12131 10.4851C8.20922 10.4631 8.28951 10.4176 8.35359 10.3535L14.6869 4.02021C15.0459 3.66122 15.2476 3.17434 15.2476 2.66665C15.2476 2.15897 15.0459 1.67209 14.6869 1.3131C14.3279 0.954117 13.8411 0.752441 13.3334 0.752441ZM2.66671 2.16663C2.18048 2.16663 1.71416 2.35978 1.37034 2.7036C1.02653 3.04741 0.833374 3.51373 0.833374 3.99996V13.3333C0.833374 13.8195 1.02653 14.2858 1.37034 14.6297C1.71416 14.9735 2.18048 15.1666 2.66671 15.1666H12C12.4863 15.1666 12.9526 14.9735 13.2964 14.6297C13.6402 14.2858 13.8334 13.8195 13.8334 13.3333V8.66663C13.8334 8.39048 13.6095 8.16663 13.3334 8.16663C13.0572 8.16663 12.8334 8.39048 12.8334 8.66663V13.3333C12.8334 13.5543 12.7456 13.7663 12.5893 13.9225C12.433 14.0788 12.2211 14.1666 12 14.1666H2.66671C2.44569 14.1666 2.23373 14.0788 2.07745 13.9225C1.92117 13.7663 1.83337 13.5543 1.83337 13.3333V3.99996C1.83337 3.77895 1.92117 3.56698 2.07745 3.4107C2.23373 3.25442 2.44569 3.16663 2.66671 3.16663H7.33337C7.60952 3.16663 7.83337 2.94277 7.83337 2.66663C7.83337 2.39048 7.60952 2.16663 7.33337 2.16663H2.66671Z"/>
</g>
<defs>
<clipPath id="clip0">
<rect width="16" height="16"/>
</clipPath>
</defs>
</svg>
