<svg width="16" height="16" viewBox="0 0 16 16" xmlns="http://www.w3.org/2000/svg">
<path fill-rule="evenodd" clip-rule="evenodd" d="M1.4096 8.3954C1.26018 8.16404 1.14607 7.97059 1.06849 7.83333C1.14607 7.69607 1.26018 7.50262 1.4096 7.27126C1.72084 6.78934 2.182 6.14804 2.78144 5.50864C3.98943 4.22011 5.69975 3 7.83333 3C9.96691 3 11.6772 4.22011 12.8852 5.50864C13.4847 6.14804 13.9458 6.78934 14.2571 7.27126C14.4065 7.50262 14.5206 7.69607 14.5982 7.83333C14.5206 7.97059 14.4065 8.16404 14.2571 8.3954C13.9458 8.87732 13.4847 9.51863 12.8852 10.158C11.6772 11.4466 9.96691 12.6667 7.83333 12.6667C5.69975 12.6667 3.98943 11.4466 2.78144 10.158C2.182 9.51863 1.72084 8.87732 1.4096 8.3954ZM15.6137 7.60936C15.6138 7.60955 15.6139 7.60973 15.1667 7.83333C15.6139 8.05694 15.6138 8.05711 15.6137 8.05731L15.6135 8.0578L15.6128 8.05914L15.6107 8.06328L15.6035 8.07725C15.5975 8.08904 15.5888 8.10577 15.5775 8.12709C15.555 8.16972 15.522 8.23078 15.4788 8.30763C15.3923 8.46126 15.2647 8.67841 15.0971 8.93793C14.7625 9.45601 14.2653 10.148 13.6148 10.842C12.3228 12.2201 10.3664 13.6667 7.83333 13.6667C5.30025 13.6667 3.34391 12.2201 2.0519 10.842C1.40133 10.148 0.904158 9.45601 0.569564 8.93793C0.401956 8.67841 0.274328 8.46126 0.18791 8.30763C0.144682 8.23078 0.11171 8.16972 0.0891485 8.12709C0.0778663 8.10577 0.0691826 8.08904 0.063117 8.07725L0.0559826 8.06328L0.0538915 8.05914L0.0532156 8.0578L0.0529701 8.05731C0.0528732 8.05711 0.0527864 8.05694 0.5 7.83333C0.0527864 7.60973 0.0528732 7.60955 0.0529701 7.60936L0.0532156 7.60887L0.0538915 7.60752L0.0559826 7.60339L0.063117 7.58942C0.0691826 7.57762 0.0778663 7.5609 0.0891485 7.53958C0.11171 7.49694 0.144682 7.43589 0.18791 7.35904C0.274328 7.2054 0.401956 6.98826 0.569564 6.72874C0.904158 6.21066 1.40133 5.51863 2.0519 4.8247C3.34391 3.44655 5.30025 2 7.83333 2C10.3664 2 12.3228 3.44655 13.6148 4.8247C14.2653 5.51863 14.7625 6.21066 15.0971 6.72874C15.2647 6.98826 15.3923 7.2054 15.4788 7.35904C15.522 7.43589 15.555 7.49694 15.5775 7.53958C15.5888 7.5609 15.5975 7.57762 15.6035 7.58942L15.6107 7.60339L15.6128 7.60752L15.6135 7.60887L15.6137 7.60936ZM0.5 7.83333L0.0527864 8.05694C-0.0175955 7.91618 -0.0175955 7.75049 0.0527864 7.60973L0.5 7.83333ZM15.1667 7.83333L15.6139 7.60973C15.6843 7.75049 15.6843 7.91618 15.6139 8.05694L15.1667 7.83333ZM6.33337 7.83325C6.33337 7.00482 7.00495 6.33325 7.83337 6.33325C8.6618 6.33325 9.33337 7.00482 9.33337 7.83325C9.33337 8.66168 8.6618 9.33325 7.83337 9.33325C7.00495 9.33325 6.33337 8.66168 6.33337 7.83325ZM7.83337 5.33325C6.45266 5.33325 5.33337 6.45254 5.33337 7.83325C5.33337 9.21396 6.45266 10.3333 7.83337 10.3333C9.21409 10.3333 10.3334 9.21396 10.3334 7.83325C10.3334 6.45254 9.21409 5.33325 7.83337 5.33325Z"/>
</svg>
