<svg width="16" height="16" viewBox="0 0 16 16" xmlns="http://www.w3.org/2000/svg">
<path fill-rule="evenodd" clip-rule="evenodd" d="M2.95154 12.3824C3.99736 13.4282 5.69298 13.4282 6.7388 12.3824L13.4804 5.64083C13.9806 5.14061 13.9822 4.15319 13.2556 3.42659C12.529 2.7 11.5416 2.70165 11.0414 3.20188L6.0976 8.14568C5.79643 8.44685 5.79643 8.93515 6.0976 9.23632C6.39877 9.53749 6.88707 9.53749 7.18824 9.23632L10.7837 5.64083C10.979 5.44556 11.2956 5.44556 11.4908 5.64083C11.6861 5.83609 11.6861 6.15267 11.4908 6.34793L7.89535 9.94343C7.20365 10.6351 6.08219 10.6351 5.39049 9.94343C4.69879 9.25173 4.69879 8.13027 5.39049 7.43857L10.3343 2.49477C11.3234 1.50569 12.9518 1.70856 13.9627 2.71949C14.9737 3.73042 15.1765 5.35885 14.1875 6.34793L7.44591 13.0895C6.00956 14.5258 3.68078 14.5258 2.24443 13.0895C0.808085 11.6531 0.808085 9.32436 2.24443 7.88801L7.63768 2.49477C7.83294 2.29951 8.14952 2.29951 8.34478 2.49477C8.54004 2.69003 8.54004 3.00661 8.34478 3.20188L2.95154 8.59512C1.90572 9.64094 1.90572 11.3366 2.95154 12.3824Z"/>
</svg>
