<svg width="16" height="16" viewBox="0 0 16 16" xmlns="http://www.w3.org/2000/svg">
<path fill-rule="evenodd" clip-rule="evenodd" d="M1.5 13.3333C1.5 13.0571 1.72386 12.8333 2 12.8333L6.66667 12.8333C6.94281 12.8333 7.16667 13.0571 7.16667 13.3333C7.16667 13.6094 6.94281 13.8333 6.66667 13.8333L2 13.8333C1.72386 13.8333 1.5 13.6094 1.5 13.3333ZM9.83334 12.8333L9.83334 11.3333C9.83334 11.0571 9.60949 10.8333 9.33334 10.8333C9.0572 10.8333 8.83334 11.0571 8.83334 11.3333L8.83334 13.3333L8.83334 15.3333C8.83334 15.6094 9.0572 15.8333 9.33334 15.8333C9.60949 15.8333 9.83334 15.6094 9.83334 15.3333L9.83334 13.8333L14 13.8333C14.2762 13.8333 14.5 13.6094 14.5 13.3333C14.5 13.0571 14.2762 12.8333 14 12.8333L9.83334 12.8333ZM8 7.49991C7.72386 7.49991 7.5 7.72377 7.5 7.99991C7.5 8.27605 7.72386 8.49991 8 8.49991L14 8.49991C14.2761 8.49991 14.5 8.27605 14.5 7.99991C14.5 7.72377 14.2761 7.49991 14 7.49991L8 7.49991ZM1.5 7.99991C1.5 7.72377 1.72386 7.49991 2 7.49991L4.83334 7.49991L4.83334 5.99991C4.83334 5.72377 5.0572 5.49991 5.33334 5.49991C5.60949 5.49991 5.83334 5.72377 5.83334 5.99991L5.83334 9.99991C5.83334 10.2761 5.60949 10.4999 5.33334 10.4999C5.0572 10.4999 4.83334 10.2761 4.83334 9.99991L4.83334 8.49991L2 8.49991C1.72386 8.49991 1.5 8.27605 1.5 7.99991ZM10.1667 2.66656L10.1667 0.666565C10.1667 0.390422 10.3905 0.166565 10.6667 0.166565C10.9428 0.166565 11.1667 0.390422 11.1667 0.666565L11.1667 2.16656L14 2.16656C14.2761 2.16656 14.5 2.39042 14.5 2.66656C14.5 2.94271 14.2761 3.16656 14 3.16656L11.1667 3.16656L11.1667 4.66656C11.1667 4.94271 10.9428 5.16656 10.6667 5.16656C10.3905 5.16656 10.1667 4.94271 10.1667 4.66656L10.1667 2.66656ZM1.5 2.66656C1.5 2.39042 1.72386 2.16656 2 2.16656L8 2.16656C8.27614 2.16656 8.5 2.39042 8.5 2.66656C8.5 2.94271 8.27614 3.16656 8 3.16656L2 3.16656C1.72386 3.16656 1.5 2.94271 1.5 2.66656Z"/>
</svg>
