<svg width="16" height="16" viewBox="0 0 16 16" xmlns="http://www.w3.org/2000/svg">
<path fill-rule="evenodd" clip-rule="evenodd" d="M2.66671 2.5C2.44569 2.5 2.23373 2.5878 2.07745 2.74408C1.92117 2.90036 1.83337 3.11232 1.83337 3.33333V12.6667C1.83337 12.8877 1.92117 13.0996 2.07745 13.2559C2.23373 13.4122 2.44569 13.5 2.66671 13.5H13.3334C13.5544 13.5 13.7663 13.4122 13.9226 13.2559C14.0789 13.0996 14.1667 12.8877 14.1667 12.6667V5.33333C14.1667 5.11232 14.0789 4.90036 13.9226 4.74408C13.7663 4.5878 13.5544 4.5 13.3334 4.5H7.33337C7.1662 4.5 7.01008 4.41645 6.91735 4.27735L5.73245 2.5H2.66671ZM1.37034 2.03697C1.71416 1.69315 2.18048 1.5 2.66671 1.5H6.00004C6.16722 1.5 6.32333 1.58355 6.41607 1.72265L7.60097 3.5H13.3334C13.8196 3.5 14.2859 3.69315 14.6297 4.03697C14.9736 4.38079 15.1667 4.8471 15.1667 5.33333V12.6667C15.1667 13.1529 14.9736 13.6192 14.6297 13.963C14.2859 14.3068 13.8196 14.5 13.3334 14.5H2.66671C2.18048 14.5 1.71416 14.3068 1.37034 13.963C1.02653 13.6192 0.833374 13.1529 0.833374 12.6667V3.33333C0.833374 2.8471 1.02653 2.38079 1.37034 2.03697Z"/>
</svg>
