<svg width="16" height="16" viewBox="0 0 16 16" xmlns="http://www.w3.org/2000/svg">
<path fill-rule="evenodd" clip-rule="evenodd" d="M2.07745 2.74408C2.23373 2.5878 2.44569 2.5 2.66671 2.5H5.73245L6.91735 4.27735C7.01008 4.41645 7.1662 4.5 7.33337 4.5H13.3334C13.5544 4.5 13.7663 4.5878 13.9226 4.74408C14.0789 4.90036 14.1667 5.11232 14.1667 5.33333V6.70034C13.911 6.56986 13.6258 6.5 13.3334 6.5H7.60097L6.41607 4.72265C6.32333 4.58355 6.16722 4.5 6.00004 4.5H2.66671C2.37429 4.5 2.08907 4.56986 1.83337 4.70034V3.33333C1.83337 3.11232 1.92117 2.90036 2.07745 2.74408ZM1.83337 6.33333C1.83337 6.11232 1.92117 5.90036 2.07745 5.74408C2.23373 5.5878 2.44569 5.5 2.66671 5.5H5.73245L6.91735 7.27735C7.01008 7.41645 7.1662 7.5 7.33337 7.5H13.3334C13.5544 7.5 13.7663 7.5878 13.9226 7.74408C14.0789 7.90036 14.1667 8.11232 14.1667 8.33333V12.6667C14.1667 12.8877 14.0789 13.0996 13.9226 13.2559C13.7663 13.4122 13.5544 13.5 13.3334 13.5H2.66671C2.44569 13.5 2.23373 13.4122 2.07745 13.2559C1.92117 13.0996 1.83337 12.8877 1.83337 12.6667V6.33333ZM15.1667 8.33333V5.33333C15.1667 4.8471 14.9736 4.38079 14.6297 4.03697C14.2859 3.69315 13.8196 3.5 13.3334 3.5H7.60097L6.41607 1.72265C6.32333 1.58355 6.16722 1.5 6.00004 1.5H2.66671C2.18048 1.5 1.71416 1.69315 1.37034 2.03697C1.02653 2.38079 0.833374 2.8471 0.833374 3.33333V6.33333V12.6667C0.833374 13.1529 1.02653 13.6192 1.37034 13.963C1.71416 14.3068 2.18048 14.5 2.66671 14.5H13.3334C13.8196 14.5 14.2859 14.3068 14.6297 13.963C14.9736 13.6192 15.1667 13.1529 15.1667 12.6667V8.33333Z"/>
</svg>
