<svg width="16" height="16" viewBox="0 0 16 16" xmlns="http://www.w3.org/2000/svg">
<path fill-rule="evenodd" clip-rule="evenodd" d="M5.00001 1.8335C4.69059 1.8335 4.39384 1.95641 4.17505 2.1752C3.95626 2.394 3.83334 2.69074 3.83334 3.00016C3.83334 3.30958 3.95626 3.60633 4.17505 3.82512C4.3906 4.04067 4.6818 4.16316 4.98625 4.16675H7.33997C7.24771 3.89545 7.1159 3.56658 6.9369 3.24112C6.50784 2.461 5.88863 1.8335 5.00001 1.8335ZM2.83334 3.00016C2.83334 3.4168 2.95334 3.82106 3.17421 4.16675H1.33334C1.0572 4.16675 0.833344 4.39061 0.833344 4.66675V8.00008C0.833344 8.27622 1.0572 8.50008 1.33334 8.50008H2.16666V14.6668C2.16666 14.9429 2.39051 15.1668 2.66666 15.1668H13.3333C13.6095 15.1668 13.8333 14.9429 13.8333 14.6668V8.50008H14.6667C14.9428 8.50008 15.1667 8.27622 15.1667 8.00008V4.66675C15.1667 4.39061 14.9428 4.16675 14.6667 4.16675H12.8258C13.0467 3.82106 13.1667 3.4168 13.1667 3.00016C13.1667 2.42553 12.9384 1.87443 12.5321 1.4681C12.1257 1.06177 11.5746 0.833496 11 0.833496C9.55528 0.833496 8.67449 1.87266 8.18689 2.7592C8.11862 2.88334 8.05645 3.00713 8.00001 3.12829C7.94356 3.00713 7.88139 2.88334 7.81312 2.7592C7.32552 1.87266 6.44473 0.833496 5.00001 0.833496C4.42537 0.833496 3.87427 1.06177 3.46795 1.4681C3.06162 1.87443 2.83334 2.42553 2.83334 3.00016ZM11.0138 4.16675H8.66004C8.7523 3.89545 8.88411 3.56658 9.06311 3.24112C9.49217 2.461 10.1114 1.8335 11 1.8335C11.3094 1.8335 11.6062 1.95641 11.825 2.1752C12.0438 2.394 12.1667 2.69074 12.1667 3.00016C12.1667 3.30958 12.0438 3.60633 11.825 3.82512C11.6094 4.04067 11.3182 4.16316 11.0138 4.16675ZM8.5 5.16683V7.50008H14.1667V5.16675H11.0188C11.0125 5.1668 11.0063 5.16683 11 5.16683H8.5ZM1.83334 5.16675H4.98126L5.00001 5.16683H7.5V7.50008H1.83334V5.16675ZM7.5 8.50008H3.16666V14.1668H7.5V8.50008ZM8.5 14.1668V8.50008H12.8333V14.1668H8.5Z"/>
</svg>
