<svg width="16" height="16" viewBox="0 0 16 16" xmlns="http://www.w3.org/2000/svg">
<path fill-rule="evenodd" clip-rule="evenodd" d="M1.85335 7.49992H4.8549C4.98902 5.48931 5.68799 3.56209 6.86406 1.93766C4.16064 2.44108 2.07735 4.70822 1.85335 7.49992ZM8.00004 2.09907C6.75109 3.6376 6.00291 5.52276 5.85735 7.49992H10.1427C9.99717 5.52276 9.24899 3.6376 8.00004 2.09907ZM10.1427 8.49992C9.99717 10.4771 9.24899 12.3622 8.00004 13.9008C6.75109 12.3622 6.00291 10.4771 5.85735 8.49992H10.1427ZM4.8549 8.49992H1.85335C2.07735 11.2916 4.16064 13.5588 6.86406 14.0622C5.68799 12.4377 4.98902 10.5105 4.8549 8.49992ZM9.13602 14.0622C10.3121 12.4377 11.0111 10.5105 11.1452 8.49992H14.1467C13.9227 11.2916 11.8394 13.5588 9.13602 14.0622ZM14.1467 7.49992H11.1452C11.0111 5.48931 10.3121 3.56209 9.13602 1.93766C11.8394 2.44108 13.9227 4.70822 14.1467 7.49992ZM0.833374 7.99992C0.833374 4.04188 4.042 0.833252 8.00004 0.833252C11.9581 0.833252 15.1667 4.04188 15.1667 7.99992C15.1667 11.958 11.9581 15.1666 8.00004 15.1666C4.042 15.1666 0.833374 11.958 0.833374 7.99992Z"/>
</svg>
