<svg width="16" height="16" viewBox="0 0 16 16" xmlns="http://www.w3.org/2000/svg">
<path fill-rule="evenodd" clip-rule="evenodd" d="M8.67968 13.8428C11.9065 13.8428 14.5223 11.2269 14.5223 8.00011C14.5223 4.7733 11.9065 2.15745 8.67968 2.15745C5.84986 2.15745 3.48992 4.16923 2.95207 6.8406L3.34254 6.4499C3.53775 6.25458 3.85433 6.25449 4.04965 6.4497C4.24497 6.64491 4.24506 6.96149 4.04985 7.15681L2.69066 8.51676C2.59688 8.61059 2.46966 8.66331 2.33701 8.66331C2.20435 8.66331 2.07713 8.61059 1.98335 8.51676L0.624165 7.1568C0.428958 6.96149 0.429047 6.64491 0.624365 6.4497C0.819682 6.25449 1.13626 6.25458 1.33147 6.4499L1.906 7.02475C2.37939 3.70765 5.23172 1.15745 8.67968 1.15745C12.4588 1.15745 15.5223 4.22101 15.5223 8.00011C15.5223 11.7792 12.4588 14.8428 8.67968 14.8428C5.87297 14.8428 3.46205 13.153 2.4066 10.7374C2.29604 10.4843 2.41155 10.1896 2.66459 10.079C2.91764 9.96844 3.2124 10.0839 3.32296 10.337C4.225 12.4016 6.28459 13.8428 8.67968 13.8428ZM7.07023 8.9518C6.81381 9.05429 6.68903 9.34525 6.79153 9.60167C6.89402 9.85808 7.18497 9.98286 7.44139 9.88037L9.32051 9.12926C9.3731 9.10824 9.42015 9.0793 9.46084 9.04434C9.57384 8.95267 9.64606 8.81269 9.64606 8.65585L9.64606 4.7907C9.64606 4.51456 9.42221 4.2907 9.14606 4.2907C8.86992 4.2907 8.64606 4.51456 8.64606 4.7907L8.64606 8.32192L7.07023 8.9518Z"/>
</svg>
