<svg viewBox="0 0 16 16" xmlns="http://www.w3.org/2000/svg">
<path fill-rule="evenodd" clip-rule="evenodd" d="M8.31747 1.6137C8.32998 1.62398 8.34203 1.6349 8.35357 1.64645L11.6869 4.97978C11.8822 5.17504 11.8822 5.49162 11.6869 5.68689C11.4916 5.88215 11.1751 5.88215 10.9798 5.68689L8.5 3.20709V10C8.5 10.2761 8.27614 10.5 8 10.5C7.72386 10.5 7.5 10.2761 7.5 10V3.20713L5.02024 5.68689C4.82498 5.88215 4.5084 5.88215 4.31313 5.68689C4.11787 5.49162 4.11787 5.17504 4.31313 4.97978L7.64377 1.64914C7.73446 1.55708 7.86056 1.5 8 1.5M8.00002 1.5C8.12056 1.5 8.23113 1.54266 8.31747 1.6137L8.00002 1.5ZM2 9.5C2.27614 9.5 2.5 9.72386 2.5 10V12.6667C2.5 12.8877 2.5878 13.0996 2.74408 13.2559C2.90036 13.4122 3.11232 13.5 3.33333 13.5H12.6667C12.8877 13.5 13.0996 13.4122 13.2559 13.2559C13.4122 13.0996 13.5 12.8877 13.5 12.6667V10C13.5 9.72386 13.7239 9.5 14 9.5C14.2761 9.5 14.5 9.72386 14.5 10V12.6667C14.5 13.1529 14.3068 13.6192 13.963 13.963C13.6192 14.3068 13.1529 14.5 12.6667 14.5H3.33333C2.8471 14.5 2.38079 14.3068 2.03697 13.963C1.69315 13.6192 1.5 13.1529 1.5 12.6667V10C1.5 9.72386 1.72386 9.5 2 9.5Z"/>
</svg>
