<svg width="16" height="16" viewBox="0 0 16 16" xmlns="http://www.w3.org/2000/svg">
<path fill-rule="evenodd" clip-rule="evenodd" d="M7.77636 0.886038C7.91712 0.815656 8.08281 0.815656 8.22357 0.886038L14.8902 4.21937C15.0596 4.30407 15.1666 4.4772 15.1666 4.66658C15.1666 4.85597 15.0596 5.0291 14.8902 5.1138L8.22357 8.44713C8.08281 8.51751 7.91712 8.51751 7.77636 8.44713L1.10969 5.1138C0.940302 5.0291 0.8333 4.85597 0.8333 4.66658C0.8333 4.4772 0.940302 4.30407 1.10969 4.21937L7.77636 0.886038ZM2.45133 4.66659L7.99997 7.4409L13.5486 4.66659L7.99997 1.89227L2.45133 4.66659ZM0.886087 11.1096C1.00958 10.8627 1.30992 10.7625 1.55691 10.886L7.99997 14.1076L14.443 10.886C14.69 10.7625 14.9904 10.8627 15.1138 11.1096C15.2373 11.3566 15.1372 11.657 14.8902 11.7805L8.22357 15.1138C8.08281 15.1842 7.91712 15.1842 7.77636 15.1138L1.10969 11.7805C0.862704 11.657 0.762592 11.3566 0.886087 11.1096ZM1.55691 7.55266C1.30992 7.42917 1.00958 7.52928 0.886087 7.77627C0.762592 8.02326 0.862704 8.3236 1.10969 8.44709L7.77636 11.7804C7.91712 11.8508 8.08281 11.8508 8.22357 11.7804L14.8902 8.44709C15.1372 8.3236 15.2373 8.02326 15.1138 7.77627C14.9904 7.52928 14.69 7.42917 14.443 7.55266L7.99997 10.7742L1.55691 7.55266Z"/>
</svg>
