<svg width="16" height="16" viewBox="0 0 16 16" xmlns="http://www.w3.org/2000/svg">
<path fill-rule="evenodd" clip-rule="evenodd" d="M11.329 0.87783C10.3239 0.869097 9.35561 1.25547 8.63263 1.95375L8.6326 1.95371L8.62747 1.95881L7.4808 3.09881C7.28497 3.2935 7.28405 3.61008 7.47874 3.80591C7.67343 4.00174 7.99001 4.00267 8.18584 3.80797L9.32985 2.67062C9.86395 2.15603 10.5786 1.87135 11.3203 1.87779C12.0632 1.88425 12.7738 2.18223 13.2992 2.70755C13.8245 3.23287 14.1225 3.94351 14.1289 4.6864C14.1354 5.42791 13.8509 6.14233 13.3366 6.67638L11.3398 8.67317L11.3397 8.67324C11.0525 8.96058 10.7068 9.18278 10.3261 9.32478C9.94547 9.46678 9.53872 9.52525 9.13347 9.49622C8.72823 9.4672 8.33396 9.35136 7.97742 9.15657C7.62087 8.96177 7.3104 8.69257 7.06704 8.36724C6.90164 8.14611 6.58829 8.10094 6.36717 8.26634C6.14604 8.43175 6.10087 8.74509 6.26627 8.96621C6.59552 9.40638 7.01558 9.77059 7.49796 10.0341C7.98034 10.2977 8.51376 10.4544 9.06204 10.4937C9.61032 10.5329 10.1606 10.4538 10.6756 10.2617C11.1906 10.0696 11.6583 9.769 12.0469 9.38028L12.0469 9.38021L14.0469 7.38028L14.0469 7.38033L14.053 7.37408C14.7512 6.65111 15.1376 5.6828 15.1289 4.67771C15.1202 3.67262 14.717 2.71117 14.0063 2.00044C13.2955 1.28971 12.3341 0.886564 11.329 0.87783ZM6.93796 5.50638C6.38969 5.46711 5.83938 5.54622 5.32436 5.73833C4.80938 5.93044 4.34172 6.23104 3.95312 6.61977L3.95306 6.61983L1.95312 8.61977L1.95307 8.61971L1.94703 8.62597C1.24876 9.34894 0.862383 10.3172 0.871117 11.3223C0.879851 12.3274 1.283 13.2889 1.99373 13.9996C2.70446 14.7103 3.66591 15.1135 4.671 15.1222C5.67608 15.1309 6.64439 14.7446 7.36737 14.0463L7.36742 14.0464L7.37356 14.0402L8.51356 12.9002C8.70883 12.7049 8.70883 12.3884 8.51356 12.1931C8.3183 11.9978 8.00172 11.9978 7.80646 12.1931L6.66964 13.3299C6.13559 13.8442 5.42118 14.1287 4.67969 14.1223C3.93679 14.1158 3.22616 13.8178 2.70084 13.2925C2.17551 12.7672 1.87753 12.0565 1.87108 11.3136C1.86464 10.5721 2.14914 9.85773 2.66343 9.32368L4.66023 7.32687L4.6603 7.32681C4.94753 7.03947 5.2932 6.81727 5.67387 6.67527C6.05453 6.53327 6.46128 6.4748 6.86653 6.50382C7.27177 6.53284 7.66604 6.64868 8.02258 6.84348C8.37913 7.03827 8.68961 7.30747 8.93296 7.63281C9.09837 7.85394 9.41171 7.89911 9.63283 7.7337C9.85396 7.5683 9.89913 7.25496 9.73373 7.03383C9.40448 6.59367 8.98442 6.22946 8.50204 5.96591C8.01966 5.70236 7.48624 5.54564 6.93796 5.50638Z"/>
</svg>
