<svg width="16" height="16" viewBox="0 0 16 16" xmlns="http://www.w3.org/2000/svg">
<path fill-rule="evenodd" clip-rule="evenodd" d="M2 3.5C1.72386 3.5 1.5 3.72386 1.5 4C1.5 4.27614 1.72386 4.5 2 4.5H2.00667C2.28281 4.5 2.50667 4.27614 2.50667 4C2.50667 3.72386 2.28281 3.5 2.00667 3.5H2ZM5.33331 3.5C5.05717 3.5 4.83331 3.72386 4.83331 4C4.83331 4.27614 5.05717 4.5 5.33331 4.5H14C14.2761 4.5 14.5 4.27614 14.5 4C14.5 3.72386 14.2761 3.5 14 3.5H5.33331ZM5.33331 7.5C5.05717 7.5 4.83331 7.72386 4.83331 8C4.83331 8.27614 5.05717 8.5 5.33331 8.5H14C14.2761 8.5 14.5 8.27614 14.5 8C14.5 7.72386 14.2761 7.5 14 7.5H5.33331ZM4.83331 12C4.83331 11.7239 5.05717 11.5 5.33331 11.5H14C14.2761 11.5 14.5 11.7239 14.5 12C14.5 12.2761 14.2761 12.5 14 12.5H5.33331C5.05717 12.5 4.83331 12.2761 4.83331 12ZM1.5 8C1.5 7.72386 1.72386 7.5 2 7.5H2.00667C2.28281 7.5 2.50667 7.72386 2.50667 8C2.50667 8.27614 2.28281 8.5 2.00667 8.5H2C1.72386 8.5 1.5 8.27614 1.5 8ZM2 11.5C1.72386 11.5 1.5 11.7239 1.5 12C1.5 12.2761 1.72386 12.5 2 12.5H2.00667C2.28281 12.5 2.50667 12.2761 2.50667 12C2.50667 11.7239 2.28281 11.5 2.00667 11.5H2Z"/>
</svg>
