<svg width="16" height="16" viewBox="0 0 16 16" xmlns="http://www.w3.org/2000/svg">
<g clip-path="url(#clip0)">
<path fill-rule="evenodd" clip-rule="evenodd" d="M8.01522 1.5C9.95155 1.5 11.5222 3.06563 11.5304 5.00005L4.50005 5.00009C4.50819 3.06565 6.07886 1.5 8.01522 1.5ZM13.6265 5.00004L12.5304 5.00004C12.5222 2.51334 10.5038 0.5 8.01522 0.5C5.52658 0.5 3.50819 2.51337 3.50005 5.0001L2.49997 5.00011C1.67155 5.00011 0.999986 5.67167 0.999975 6.50009L0.999878 14.5001C0.999868 15.3285 1.67144 16.0001 2.49988 16.0001H13.6265C14.4549 16.0001 15.1265 15.3285 15.1265 14.5001V6.50004C15.1265 5.67161 14.4549 5.00003 13.6265 5.00004ZM13.6265 6.00004L2.49997 6.00011C2.22383 6.00011 1.99998 6.22396 1.99998 6.5001L1.99988 14.5001C1.99987 14.7763 2.22373 15.0001 2.49988 15.0001H13.6265C13.9026 15.0001 14.1265 14.7763 14.1265 14.5001V6.50004C14.1265 6.22389 13.9026 6.00004 13.6265 6.00004ZM6.92845 9.40968C6.92845 8.86392 7.41978 8.3554 8.11067 8.3554C8.80156 8.3554 9.29288 8.86392 9.29288 9.40968C9.29288 9.77931 9.07576 10.1228 8.71609 10.3151C8.59121 10.3818 8.51908 10.4793 8.4804 10.5448C8.44057 10.6121 8.41624 10.6793 8.4006 10.7309C8.36965 10.833 8.3516 10.9469 8.33866 11.0437C8.32583 11.1396 8.31663 11.2249 8.30765 11.3081L8.30765 11.3081L8.30764 11.3082C8.29476 11.4276 8.28231 11.543 8.26022 11.68C8.22513 11.8978 8.18064 12.0467 8.13096 12.1313C8.12255 12.1456 8.11564 12.1552 8.11067 12.1613C8.1057 12.1552 8.09879 12.1456 8.09038 12.1313C8.0407 12.0467 7.99621 11.8978 7.96112 11.68C7.93903 11.543 7.92658 11.4276 7.91369 11.3081C7.9047 11.2249 7.8955 11.1396 7.88268 11.0437C7.86974 10.9469 7.85169 10.833 7.82074 10.7309C7.80509 10.6793 7.78077 10.6121 7.74094 10.5448C7.70226 10.4793 7.63013 10.3818 7.50525 10.3151C7.14558 10.1228 6.92845 9.77931 6.92845 9.40968ZM8.11067 7.3554C6.94344 7.3554 5.92845 8.23863 5.92845 9.40968C5.92845 10.1277 6.31683 10.7444 6.88144 11.1075C6.88458 11.1269 6.88795 11.1496 6.8915 11.1762C6.89773 11.2228 6.90502 11.2882 6.91338 11.3633L6.91339 11.3634C6.92953 11.5083 6.94967 11.6891 6.97386 11.8391C7.01298 12.0819 7.0798 12.3851 7.22802 12.6376C7.39142 12.9159 7.67816 13.164 8.11067 13.164C8.54318 13.164 8.82992 12.9159 8.99332 12.6376C9.14154 12.3851 9.20836 12.0819 9.24748 11.8391C9.27167 11.6891 9.2918 11.5083 9.30795 11.3634L9.30797 11.3632C9.31632 11.2882 9.32361 11.2228 9.32984 11.1762C9.33339 11.1496 9.33675 11.1269 9.33989 11.1075C9.90451 10.7444 10.2929 10.1277 10.2929 9.40968C10.2929 8.23863 9.2779 7.3554 8.11067 7.3554Z"/>
</g>
<defs>
<clipPath id="clip0">
<rect width="16" height="16"/>
</clipPath>
</defs>
</svg>
