<svg width="16" height="16" viewBox="0 0 16 16" xmlns="http://www.w3.org/2000/svg">
<path fill-rule="evenodd" clip-rule="evenodd" d="M1.90106 3.67259C2.02932 3.37625 2.32538 3.16675 2.66659 3.16675H13.3333C13.6745 3.16675 13.9705 3.37626 14.0988 3.67261L7.99992 8.05127L1.90106 3.67259ZM1.83325 4.85494V12.0001C1.83325 12.4573 2.20939 12.8334 2.66659 12.8334H13.3333C13.7904 12.8334 14.1666 12.4573 14.1666 12.0001V4.85497L8.29152 9.07295C8.11725 9.19807 7.88259 9.19807 7.70831 9.07295L1.83325 4.85494ZM2.66659 2.16675C1.65711 2.16675 0.833252 2.99061 0.833252 4.00008V12.0001C0.833252 13.0096 1.65711 13.8334 2.66659 13.8334H13.3333C14.3427 13.8334 15.1666 13.0096 15.1666 12.0001V4.00008C15.1666 2.99061 14.3427 2.16675 13.3333 2.16675H2.66659Z"/>
</svg>
