<svg width="16" height="16" viewBox="0 0 16 16" xmlns="http://www.w3.org/2000/svg">
<path fill-rule="evenodd" clip-rule="evenodd" d="M7.08436 1.07975C7.36281 0.919221 7.67858 0.834717 8 0.834717C8.32142 0.834717 8.63719 0.919221 8.91564 1.07975C8.91598 1.07994 8.91633 1.08014 8.91667 1.08034L13.5814 3.74589L13.5833 3.747C13.8136 3.87997 14.0117 4.06111 14.1643 4.27728C14.1982 4.30951 14.2282 4.34709 14.2528 4.38966C14.2743 4.42685 14.2905 4.46566 14.3016 4.50521C14.4315 4.76128 14.4997 5.04475 14.5 5.33284V5.33335V10.6667V10.6672C14.4997 10.9887 14.4148 11.3045 14.2539 11.5828C14.093 11.8611 13.8618 12.0923 13.5833 12.253L13.5814 12.2541L8.91667 14.9197C8.91637 14.9199 8.91608 14.92 8.91578 14.9202C8.71317 15.037 8.49079 15.1136 8.26085 15.1467C8.18491 15.1932 8.09559 15.22 8 15.22C7.90441 15.22 7.81509 15.1932 7.73915 15.1467C7.50921 15.1136 7.28683 15.037 7.08422 14.9202C7.08392 14.92 7.08363 14.9199 7.08333 14.9197L2.4186 12.2541L2.41667 12.253C2.13824 12.0923 1.90698 11.8611 1.74609 11.5828C1.5852 11.3045 1.50033 10.9887 1.5 10.6672L1.5 10.6667V5.33335L1.5 5.33284C1.5003 5.04476 1.56847 4.76129 1.69839 4.50522C1.70949 4.46567 1.72568 4.42685 1.7472 4.38966C1.77182 4.34708 1.80176 4.3095 1.8357 4.27727C1.98833 4.0611 2.18636 3.87997 2.41667 3.747L2.41859 3.74589L2.4186 3.74589L4.78618 2.39299C4.79136 2.3899 4.7966 2.38691 4.80188 2.38402L7.08333 1.08034C7.08367 1.08014 7.08402 1.07994 7.08436 1.07975ZM5.04105 3.3991L3.02495 4.55116L8 7.42906L10.0052 6.26911L5.04105 3.3991ZM11.0039 5.6914L6.04585 2.82493L7.5814 1.94747L7.58141 1.94748L7.58333 1.94636C7.71002 1.87322 7.85372 1.83472 8 1.83472C8.14628 1.83472 8.28998 1.87322 8.41667 1.94636L8.41666 1.94637L8.4186 1.94747L12.9751 4.55116L11.0039 5.6914ZM13.5 5.40275L8.5 8.29508V14.006L13.0833 11.387C13.0836 11.3869 13.0839 11.3867 13.0841 11.3866C13.2103 11.3135 13.3152 11.2086 13.3881 11.0824C13.4613 10.9558 13.4999 10.8123 13.5 10.6662V5.40275ZM7.5 14.006V8.29508L2.5 5.40276V10.6664C2.50019 10.8125 2.53876 10.9559 2.61186 11.0824C2.68484 11.2086 2.78968 11.3135 2.91589 11.3866C2.91615 11.3867 2.91641 11.3869 2.91667 11.387L7.5 14.006Z"/>
</svg>
