<svg width="16" height="16" viewBox="0 0 16 16" xmlns="http://www.w3.org/2000/svg">
<path fill-rule="evenodd" clip-rule="evenodd" d="M4.33332 3.1665C3.68899 3.1665 3.16666 3.68884 3.16666 4.33317C3.16666 4.9775 3.68899 5.49984 4.33332 5.49984C4.97766 5.49984 5.49999 4.9775 5.49999 4.33317C5.49999 3.68884 4.97766 3.1665 4.33332 3.1665ZM2.16666 4.33317C2.16666 3.13655 3.13671 2.1665 4.33332 2.1665C5.52994 2.1665 6.49999 3.13655 6.49999 4.33317C6.49999 5.52979 5.52994 6.49984 4.33332 6.49984C3.13671 6.49984 2.16666 5.52979 2.16666 4.33317ZM13.0202 2.9797C13.2155 3.17496 13.2155 3.49154 13.0202 3.68681L3.6869 13.0201C3.49163 13.2154 3.17505 13.2154 2.97979 13.0201C2.78453 12.8249 2.78453 12.5083 2.97979 12.313L12.3131 2.9797C12.5084 2.78444 12.825 2.78444 13.0202 2.9797ZM10.5 11.6665C10.5 11.0222 11.0223 10.4999 11.6667 10.4999C12.311 10.4999 12.8333 11.0222 12.8333 11.6665C12.8333 12.3109 12.311 12.8332 11.6667 12.8332C11.0223 12.8332 10.5 12.3109 10.5 11.6665ZM11.6667 9.49988C10.47 9.49988 9.5 10.4699 9.5 11.6665C9.5 12.8632 10.47 13.8332 11.6667 13.8332C12.8633 13.8332 13.8333 12.8632 13.8333 11.6665C13.8333 10.4699 12.8633 9.49988 11.6667 9.49988Z"/>
</svg>
