<svg width="16" height="16" viewBox="0 0 16 16" xmlns="http://www.w3.org/2000/svg">
<path fill-rule="evenodd" clip-rule="evenodd" d="M7.99998 2.83325C8.27612 2.83325 8.49998 3.05711 8.49998 3.33325V7.49992H12.6666C12.9428 7.49992 13.1666 7.72378 13.1666 7.99992C13.1666 8.27606 12.9428 8.49992 12.6666 8.49992H8.49998V12.6666C8.49998 12.9427 8.27612 13.1666 7.99998 13.1666C7.72384 13.1666 7.49998 12.9427 7.49998 12.6666V8.49992H3.33331C3.05717 8.49992 2.83331 8.27606 2.83331 7.99992C2.83331 7.72378 3.05717 7.49992 3.33331 7.49992H7.49998V3.33325C7.49998 3.05711 7.72384 2.83325 7.99998 2.83325Z"/>
</svg>
