<svg width="16" height="16" viewBox="0 0 16 16" xmlns="http://www.w3.org/2000/svg">
<path fill-rule="evenodd" clip-rule="evenodd" d="M7.32045 2.15723C4.09363 2.15723 1.47778 4.77308 1.47778 7.99989C1.47778 11.2267 4.09363 13.8426 7.32045 13.8426C10.1503 13.8426 12.5102 11.8308 13.0481 9.1594L12.6576 9.5501C12.4624 9.74542 12.1458 9.74551 11.9505 9.5503C11.7552 9.35509 11.7551 9.03851 11.9503 8.84319L13.3095 7.48324C13.4032 7.38941 13.5305 7.33669 13.6631 7.33669C13.7958 7.33669 13.923 7.38941 14.0168 7.48324L15.376 8.84319C15.5712 9.03851 15.5711 9.35509 15.3758 9.5503C15.1804 9.74551 14.8639 9.74542 14.6687 9.5501L14.0941 8.97525C13.6207 12.2923 10.7684 14.8426 7.32045 14.8426C3.54135 14.8426 0.477783 11.779 0.477783 7.99989C0.477783 4.22079 3.54135 1.15723 7.32045 1.15723C10.1272 1.15723 12.5381 2.84699 13.5935 5.26264C13.7041 5.51568 13.5886 5.81044 13.3355 5.921C13.0825 6.03156 12.7877 5.91605 12.6772 5.66301C11.7751 3.59845 9.71553 2.15723 7.32045 2.15723ZM10.0461 6.29212C10.2414 6.09686 10.2414 5.78028 10.0461 5.58502C9.85084 5.38975 9.53426 5.38975 9.339 5.58502L7.47584 7.44818L5.61268 5.58502C5.41742 5.38975 5.10084 5.38975 4.90557 5.58502C4.71031 5.78028 4.71031 6.09686 4.90557 6.29212L6.76873 8.15528L4.90557 10.0184C4.71031 10.2137 4.71031 10.5303 4.90557 10.7255C5.10084 10.9208 5.41742 10.9208 5.61268 10.7255L7.47584 8.86239L9.339 10.7255C9.53426 10.9208 9.85084 10.9208 10.0461 10.7255C10.2414 10.5303 10.2414 10.2137 10.0461 10.0184L8.18295 8.15528L10.0461 6.29212Z"/>
</svg>
