<svg width="16" height="16" viewBox="0 0 16 16" xmlns="http://www.w3.org/2000/svg">
<path fill-rule="evenodd" clip-rule="evenodd" d="M1.33334 0.833496C1.0572 0.833496 0.833344 1.05735 0.833344 1.3335V8.00016C0.833344 8.13287 0.886102 8.26014 0.979996 8.35392L6.70626 14.0735L6.70648 14.0737C6.8767 14.2441 7.07882 14.3792 7.30129 14.4715C7.52385 14.5637 7.76242 14.6112 8.00334 14.6112C8.24427 14.6112 8.48284 14.5637 8.7054 14.4715C8.92797 14.3792 9.13016 14.244 9.30043 14.0735L14.0802 9.29372L13.7267 8.94016L14.0813 9.29266C14.4227 8.94917 14.6144 8.4845 14.6144 8.00016C14.6144 7.51582 14.4227 7.05116 14.0813 6.70766L14.0802 6.70661L8.35356 0.979943C8.2598 0.886174 8.13262 0.833496 8.00001 0.833496H1.33334ZM13.3726 8.58717L13.3721 8.58766L8.59312 13.3666L8.59293 13.3668C8.51553 13.4443 8.42362 13.5058 8.32246 13.5477C8.2213 13.5896 8.11286 13.6112 8.00334 13.6112C7.89383 13.6112 7.78539 13.5896 7.68423 13.5477C7.58306 13.5058 7.49116 13.4443 7.41376 13.3668L7.41336 13.3664L1.83334 7.79289V1.8335H7.7929L13.3721 7.41266L13.3726 7.41316C13.5275 7.56924 13.6144 7.78024 13.6144 8.00016C13.6144 8.22009 13.5275 8.43108 13.3726 8.58717ZM4.66666 4.16675C4.39051 4.16675 4.16666 4.39061 4.16666 4.66675C4.16666 4.94289 4.39051 5.16675 4.66666 5.16675H4.67332C4.94947 5.16675 5.17332 4.94289 5.17332 4.66675C5.17332 4.39061 4.94947 4.16675 4.67332 4.16675H4.66666Z"/>
</svg>
