<svg width="16" height="16" viewBox="0 0 16 16" xmlns="http://www.w3.org/2000/svg">
<path fill-rule="evenodd" clip-rule="evenodd" d="M6.07742 2.07733C6.2337 1.92105 6.44566 1.83325 6.66668 1.83325H9.33334C9.55436 1.83325 9.76632 1.92105 9.9226 2.07733C10.0789 2.23361 10.1667 2.44557 10.1667 2.66659V3.49988H5.83334V2.66659C5.83334 2.44557 5.92114 2.23361 6.07742 2.07733ZM4.83334 3.49988V2.66659C4.83334 2.18035 5.0265 1.71404 5.37031 1.37022C5.71413 1.02641 6.18045 0.833252 6.66668 0.833252H9.33334C9.81957 0.833252 10.2859 1.02641 10.6297 1.37022C10.9735 1.71404 11.1667 2.18035 11.1667 2.66659V3.49988H14C14.2761 3.49988 14.5 3.72374 14.5 3.99988C14.5 4.27602 14.2761 4.49988 14 4.49988H13.1667V13.3333C13.1667 13.8195 12.9735 14.2858 12.6297 14.6296C12.2859 14.9734 11.8196 15.1666 11.3333 15.1666H4.66668C4.18045 15.1666 3.71413 14.9734 3.37031 14.6296C3.0265 14.2858 2.83334 13.8195 2.83334 13.3333V4.49988H2C1.72386 4.49988 1.5 4.27602 1.5 3.99988C1.5 3.72374 1.72386 3.49988 2 3.49988H3.33333H4.83334ZM5.33334 4.49992H10.6667H12.1667V13.3333C12.1667 13.5543 12.0789 13.7662 11.9226 13.9225C11.7663 14.0788 11.5544 14.1666 11.3333 14.1666H4.66668C4.44566 14.1666 4.2337 14.0788 4.07742 13.9225C3.92114 13.7662 3.83334 13.5543 3.83334 13.3333V4.49992H5.33334ZM6.66666 6.83325C6.9428 6.83325 7.16666 7.05711 7.16666 7.33325V11.3333C7.16666 11.6094 6.9428 11.8333 6.66666 11.8333C6.39051 11.8333 6.16666 11.6094 6.16666 11.3333V7.33325C6.16666 7.05711 6.39051 6.83325 6.66666 6.83325ZM9.83334 7.33325C9.83334 7.05711 9.60949 6.83325 9.33334 6.83325C9.0572 6.83325 8.83334 7.05711 8.83334 7.33325V11.3333C8.83334 11.6094 9.0572 11.8333 9.33334 11.8333C9.60949 11.8333 9.83334 11.6094 9.83334 11.3333V7.33325Z"/>
</svg>
