<svg width="16" height="16" viewBox="0 0 16 16" xmlns="http://www.w3.org/2000/svg">
<path fill-rule="evenodd" clip-rule="evenodd" d="M0.666626 1.5C0.390484 1.5 0.166626 1.72386 0.166626 2V10.6667C0.166626 10.9428 0.390484 11.1667 0.666626 11.1667H1.84058C1.62499 11.5034 1.5 11.9038 1.5 12.3333C1.5 13.5299 2.47005 14.5 3.66667 14.5C4.86328 14.5 5.83333 13.5299 5.83333 12.3333C5.83333 11.9038 5.70834 11.5034 5.49275 11.1667H10.5072C10.2916 11.5034 10.1666 11.9038 10.1666 12.3333C10.1666 13.5299 11.1367 14.5 12.3333 14.5C13.5299 14.5 14.5 13.5299 14.5 12.3333C14.5 11.9038 14.375 11.5035 14.1594 11.1667H15.3333C15.6094 11.1667 15.8333 10.9429 15.8333 10.6667V7.33337C15.8333 7.20077 15.7806 7.07359 15.6868 6.97982L13.6868 4.97982C13.5931 4.88605 13.4659 4.83337 13.3333 4.83337H11.1666V2C11.1666 1.72386 10.9428 1.5 10.6666 1.5H0.666626ZM12.3193 11.1667H12.3473C12.9852 11.1742 13.5 11.6936 13.5 12.3333C13.5 12.9776 12.9776 13.5 12.3333 13.5C11.689 13.5 11.1666 12.9776 11.1666 12.3333C11.1666 11.6936 11.6814 11.1742 12.3193 11.1667ZM12.3523 10.1667H14.8333V7.54048L13.1262 5.83337H11.1666V10.1667H12.3142C12.3206 10.1667 12.3269 10.1666 12.3333 10.1666C12.3397 10.1666 12.346 10.1667 12.3523 10.1667ZM3.66667 10.1666L3.68014 10.1667H10.1666V5.33337V2.5H1.16663V10.1667H3.65319L3.66667 10.1666ZM2.5 12.3333C2.5 11.6923 3.017 11.172 3.65678 11.1667H3.67655C4.31633 11.172 4.83333 11.6923 4.83333 12.3333C4.83333 12.9776 4.311 13.5 3.66667 13.5C3.02233 13.5 2.5 12.9776 2.5 12.3333Z"/>
</svg>
