<svg width="16" height="16" viewBox="0 0 16 16" xmlns="http://www.w3.org/2000/svg">
<g clip-path="url(#clip0)">
<path fill-rule="evenodd" clip-rule="evenodd" d="M14.5 8C14.5 4.41015 11.5899 1.5 8 1.5C4.41015 1.5 1.5 4.41015 1.5 8C1.5 11.5899 4.41015 14.5 8 14.5C11.5899 14.5 14.5 11.5899 14.5 8ZM8 0.5C12.1421 0.5 15.5 3.85787 15.5 8C15.5 12.1421 12.1421 15.5 8 15.5C3.85786 15.5 0.5 12.1421 0.5 8C0.5 3.85786 3.85786 0.5 8 0.5ZM7.94143 4.5C7.20862 4.5 6.6509 4.88904 6.46026 5.33821C6.35237 5.5924 6.05885 5.711 5.80465 5.60312C5.55046 5.49523 5.43185 5.2017 5.53974 4.94751C5.91429 4.06503 6.88162 3.5 7.94143 3.5C9.26491 3.5 10.5 4.40959 10.5 5.71429C10.5 6.25956 10.3425 6.7669 9.98088 7.1685C9.62305 7.56589 9.11001 7.81022 8.48938 7.92082C8.36195 7.94352 8.29963 7.98219 8.26664 8.01093C8.23302 8.04021 8.20021 8.08514 8.17203 8.16548C8.10577 8.35439 8.1 8.6172 8.1 9C8.1 9.27614 7.87614 9.5 7.6 9.5C7.32386 9.5 7.1 9.27614 7.1 9L7.09998 8.96058C7.09976 8.63331 7.09947 8.20208 7.22839 7.83452C7.30042 7.62915 7.41791 7.42407 7.60976 7.25693C7.80224 7.08924 8.04054 6.98505 8.31394 6.93633C8.78261 6.85281 9.06874 6.68705 9.23775 6.49935C9.40297 6.31587 9.5 6.06312 9.5 5.71429C9.5 5.12543 8.89178 4.5 7.94143 4.5ZM7.66667 12.3333C8.03486 12.3333 8.33333 12.0349 8.33333 11.6667C8.33333 11.2985 8.03486 11 7.66667 11C7.29848 11 7 11.2985 7 11.6667C7 12.0349 7.29848 12.3333 7.66667 12.3333Z"/>
</g>
<defs>
<clipPath id="clip0">
<rect width="16" height="16"/>
</clipPath>
</defs>
</svg>
