<svg width="16" height="16" viewBox="0 0 16 16" xmlns="http://www.w3.org/2000/svg">
<g clip-path="url(#clip0)">
<path fill-rule="evenodd" clip-rule="evenodd" d="M8 1.5C4.41015 1.5 1.5 4.41015 1.5 8C1.5 11.5898 4.41015 14.5 8 14.5C11.5898 14.5 14.5 11.5899 14.5 8C14.5 4.41015 11.5899 1.5 8 1.5ZM0.5 8C0.5 3.85786 3.85786 0.5 8 0.5C12.1421 0.5 15.5 3.85786 15.5 8C15.5 12.1421 12.1421 15.5 8 15.5C3.85786 15.5 0.5 12.1421 0.5 8ZM7.99999 3.99996C8.27613 3.99996 8.49999 4.22382 8.49999 4.49996H7.99999H7.49999C7.49999 4.22382 7.72385 3.99996 7.99999 3.99996ZM7.99999 4.49996L8.49999 4.5V4.50012V4.50032V4.5006V4.50097V4.50141V4.50193V4.50253V4.50321V4.50397V4.50481V4.50572V4.50671V4.50778V4.50893V4.51016V4.51146V4.51284V4.51429V4.51582V4.51742V4.51911V4.52086V4.52269V4.5246V4.52658V4.52863V4.53076V4.53296V4.53523V4.53758V4.54V4.54249V4.54506V4.54769V4.5504V4.55318V4.55603V4.55895V4.56194V4.565V4.56813V4.57133V4.5746V4.57794V4.58135V4.58482V4.58837V4.59198V4.59566V4.59941V4.60322V4.6071V4.61105V4.61507V4.61915V4.62329V4.6275V4.63178V4.63612V4.64053V4.645V4.64953V4.65413V4.6588V4.66352V4.66831V4.67316V4.67808V4.68305V4.68809V4.69319V4.69835V4.70357V4.70886V4.7142V4.71961V4.72507V4.73059V4.73618V4.74182V4.74752V4.75328V4.7591V4.76498V4.77091V4.7769V4.78295V4.78906V4.79522V4.80144V4.80772V4.81405V4.82043V4.82688V4.83337V4.83993V4.84653V4.85319V4.85991V4.86668V4.8735V4.88038V4.8873V4.89429V4.90132V4.9084V4.91554V4.92273V4.92997V4.93726V4.9446V4.95199V4.95944V4.96693V4.97447V4.98206V4.9897V4.99739V5.00513V5.01291V5.02075V5.02863V5.03655V5.04453V5.05255V5.06062V5.06874V5.0769V5.08511V5.09336V5.10166V5.11V5.11839V5.12682V5.13529V5.14381V5.15238V5.16098V5.16963V5.17833V5.18706V5.19584V5.20466V5.21352V5.22242V5.23136V5.24035V5.24937V5.25844V5.26754V5.27668V5.28587V5.29509V5.30435V5.31365V5.32299V5.33237V5.34178V5.35124V5.36073V5.37025V5.37982V5.38942V5.39905V5.40872V5.41843V5.42817V5.43795V5.44776V5.45761V5.46749V5.47741V5.48736V5.49734V5.50735V5.5174V5.52748V5.5376V5.54774V5.55792V5.56813V5.57837V5.58864V5.59894V5.60927V5.61964V5.63003V5.64045V5.6509V5.66138V5.67189V5.68242V5.69299V5.70358V5.7142V5.72485V5.73553V5.74623V5.75696V5.76771V5.77849V5.7893V5.80013V5.81099V5.82187V5.83278V5.84371V5.85467V5.86565V5.87665V5.88768V5.89872V5.9098V5.92089V5.93201V5.94315V5.95431V5.96549V5.97669V5.98791V5.99916V6.01042V6.0217V6.03301V6.04433V6.05567V6.06703V6.07841V6.08981V6.10123V6.11266V6.12411V6.13558V6.14707V6.15857V6.17009V6.18162V6.19318V6.20474V6.21632V6.22792V6.23953V6.25116V6.2628V6.27445V6.28612V6.2978V6.3095V6.3212V6.33292V6.34466V6.3564V6.36816V6.37992V6.3917V6.40349V6.41529V6.4271V6.43892V6.45075V6.46259V6.47444V6.4863V6.49817V6.51004V6.52193V6.53382V6.54572V6.55763V6.56954V6.58146V6.59339V6.60532V6.61726V6.62921V6.64116V6.65311V6.66507V6.67704V6.68901V6.70098V6.71296V6.72494V6.73693V6.74891V6.7609V6.7729V6.78489V6.79689V6.80888V6.82088V6.83288V6.84489V6.85689V6.86889V6.88089V6.89289V6.90489V6.91689V6.92889V6.94089V6.95289V6.96488V6.97687V6.98886V7.00085V7.01283V7.02481V7.03679V7.04876V7.06073V7.0727V7.08466V7.09661V7.10856V7.1205V7.13244V7.14437V7.1563V7.16822V7.18013V7.19203V7.20393V7.21582V7.2277V7.23958V7.25144V7.2633V7.27515V7.28698V7.29881V7.31063V7.32244V7.33423V7.34602V7.3578V7.36956V7.38131V7.39306V7.40478V7.4165V7.42821V7.4399V7.45157V7.46324V7.47489V7.48653V7.49815V7.50976V7.52135V7.53293V7.54449V7.55604V7.56757V7.57908V7.59058V7.60206V7.61353V7.62497V7.6364V7.64781V7.65921V7.67058V7.68194V7.69328V7.70459V7.71589V7.72717V7.73843V7.74967V7.76089V7.77208V7.78326V7.79441V7.80555V7.81666V7.82775V7.83881V7.84986V7.86088V7.87187V7.88285V7.8938V7.90472V7.91562V7.9265V7.93735V7.94817V7.95897V7.96975V7.9805V7.99122V8.00191V8.01258V8.02322V8.03384V8.04442V8.05498V8.06551V8.07601V8.08648V8.09693V8.10734V8.11773V8.12808V8.1384V8.1487V8.15896V8.16919V8.17939V8.18956V8.1997V8.2098V8.21988V8.22992V8.23992V8.2499V8.25984V8.26975V8.27962V8.28946V8.29926V8.30903V8.31876V8.32846V8.33812V8.34775V8.35734V8.36689V8.37641V8.38589V8.39533V8.40474V8.41411V8.42344V8.43273V8.44198V8.45119V8.46036V8.4695V8.47859V8.48765V8.49666V8.50564V8.51457V8.52346V8.53231V8.54112V8.54988V8.55861V8.56729V8.57593V8.58452V8.59307V8.60158V8.61005V8.61847V8.62684V8.63518V8.64346V8.6517V8.6599V8.66805V8.67615V8.68421V8.69222V8.70018V8.7081V8.71597V8.72379V8.73156V8.73929V8.74696V8.75459V8.76217V8.7697V8.77718V8.78461L8.49999 8.79198V8.79931V8.80659V8.81382V8.82099V8.82812V8.83519V8.84221V8.84918V8.85609V8.86295V8.86976V8.87652V8.88322V8.88986V8.89646V8.903V8.90948V8.91591V8.92228V8.9286V8.93486V8.94106V8.94721V8.9533V8.95934V8.96531V8.97124V8.9771V8.9829V8.98864V8.99433V8.99996C8.49999 9.2761 8.27613 9.49996 7.99999 9.49996C7.72385 9.49996 7.49999 9.2761 7.49999 8.99996V8.99433V8.98864V8.9829V8.9771V8.97123V8.96531V8.95934V8.9533V8.94721V8.94106V8.93486V8.9286V8.92228V8.91591V8.90948V8.903V8.89646V8.88986V8.88322V8.87652V8.86976V8.86295V8.85609V8.84918V8.84221V8.83519V8.82812V8.82099V8.81382V8.80659V8.79931V8.79198L7.49999 8.78461V8.77718V8.7697V8.76217V8.75459V8.74696V8.73929V8.73156V8.72379V8.71597V8.7081V8.70018V8.69222V8.68421V8.67615V8.66805V8.6599V8.6517V8.64346V8.63518V8.62684V8.61847V8.61005V8.60158V8.59307V8.58452V8.57593V8.56729V8.55861V8.54988V8.54112V8.53231V8.52346V8.51457V8.50564V8.49666V8.48765V8.47859V8.4695V8.46036V8.45119V8.44198V8.43273V8.42344V8.41411V8.40474V8.39533V8.38589V8.37641V8.36689V8.35734V8.34775V8.33812V8.32846V8.31876V8.30903V8.29926L7.49999 8.28946V8.27962V8.26974V8.25984V8.2499V8.23992V8.22992V8.21988V8.2098V8.1997V8.18956V8.17939V8.16919V8.15896V8.1487V8.1384V8.12808V8.11773V8.10734V8.09693V8.08648V8.07601V8.06551V8.05498V8.04442V8.03384V8.02322V8.01258V8.00191V7.99122V7.9805V7.96975V7.95897V7.94817V7.93735V7.9265V7.91562V7.90472V7.89379V7.88285V7.87187V7.86088V7.84986V7.83881V7.82775V7.81666V7.80555V7.79441V7.78326V7.77208V7.76089V7.74967V7.73843V7.72717V7.71589V7.70459V7.69328V7.68194V7.67058V7.65921V7.64781V7.6364V7.62497V7.61353V7.60206V7.59058V7.57908V7.56757V7.55604V7.54449V7.53293V7.52135V7.50976V7.49815V7.48653V7.47489V7.46324V7.45157V7.4399V7.42821V7.4165V7.40478V7.39306V7.38131V7.36956V7.3578V7.34602V7.33423V7.32244V7.31063V7.29881V7.28698V7.27514V7.2633V7.25144V7.23958V7.2277V7.21582V7.20393V7.19203V7.18013V7.16822V7.1563V7.14437V7.13244V7.1205V7.10856V7.09661V7.08466V7.0727V7.06073V7.04876V7.03679V7.02481V7.01283V7.00085V6.98886V6.97687V6.96488V6.95289V6.94089V6.92889V6.91689V6.90489V6.89289V6.88089V6.86889V6.85689V6.84489V6.83288V6.82088V6.80888V6.79689V6.78489V6.77289V6.7609V6.74891V6.73693V6.72494V6.71296V6.70098V6.68901V6.67704V6.66507V6.65311V6.64116V6.62921V6.61726V6.60532V6.59339V6.58146V6.56954V6.55763V6.54572V6.53382V6.52193V6.51004V6.49817V6.4863V6.47444V6.46259V6.45075V6.43892V6.4271V6.41529V6.40349V6.3917V6.37992V6.36816V6.3564V6.34466V6.33292V6.3212V6.3095V6.2978V6.28612V6.27445V6.2628V6.25116V6.23953V6.22792V6.21632V6.20474V6.19318V6.18162V6.17009V6.15857V6.14707V6.13558V6.12411V6.11266V6.10123V6.08981V6.07841V6.06703V6.05567V6.04433V6.03301V6.0217V6.01042V5.99916V5.98791V5.97669V5.96549V5.95431V5.94315V5.93201V5.92089V5.9098V5.89872V5.88768V5.87665V5.86565V5.85467V5.84371V5.83278V5.82187V5.81099V5.80013V5.7893V5.77849V5.76771V5.75696V5.74623V5.73553V5.72485V5.7142V5.70358V5.69299V5.68242V5.67189V5.66138V5.6509V5.64045V5.63003V5.61964V5.60927V5.59894V5.58864V5.57837V5.56813V5.55792V5.54774V5.5376V5.52748V5.5174V5.50735V5.49734V5.48736V5.47741V5.46749V5.45761V5.44776V5.43795V5.42817V5.41843V5.40872V5.39905V5.38942V5.37982V5.37025V5.36073V5.35124V5.34178V5.33237V5.32299V5.31365V5.30435V5.29509V5.28587V5.27668V5.26754V5.25844V5.24937V5.24035V5.23136V5.22242V5.21352V5.20466V5.19584V5.18706V5.17833V5.16963V5.16098V5.15238V5.14381V5.13529V5.12682V5.11839V5.11V5.10166V5.09336V5.08511V5.0769V5.06874V5.06062V5.05255V5.04453V5.03655V5.02863V5.02075V5.01291V5.00513V4.99739V4.9897V4.98206V4.97447V4.96693V4.95944V4.95199V4.9446V4.93726V4.92997V4.92273V4.91554V4.9084V4.90132V4.89429V4.8873V4.88038V4.8735V4.86668V4.85991V4.85319V4.84653V4.83993V4.83337V4.82688V4.82043V4.81405V4.80772V4.80144V4.79522V4.78906V4.78295V4.7769V4.77091V4.76498V4.7591V4.75328V4.74752V4.74182V4.73618V4.73059V4.72507V4.71961V4.7142V4.70886V4.70357V4.69835V4.69319V4.68809V4.68305V4.67808V4.67316V4.66831V4.66352V4.6588V4.65413V4.64953V4.645V4.64053V4.63612V4.63178V4.6275V4.62329V4.61915V4.61507V4.61105V4.6071V4.60322V4.59941V4.59566V4.59198V4.58837V4.58482V4.58135V4.57794V4.5746V4.57133V4.56813V4.565V4.56194V4.55895V4.55603V4.55318V4.5504V4.54769V4.54506V4.54249V4.54V4.53758V4.53523V4.53296V4.53076V4.52863V4.52658V4.5246V4.52269V4.52086V4.51911V4.51742V4.51582V4.51429V4.51284V4.51146V4.51016V4.50893V4.50778V4.50671V4.50572V4.50481V4.50397V4.50321V4.50253V4.50193V4.50141V4.50097V4.5006V4.50032V4.50012V4.5L7.99999 4.49996ZM8.00004 12C8.36823 12 8.6667 11.7016 8.6667 11.3334C8.6667 10.9652 8.36823 10.6667 8.00004 10.6667C7.63185 10.6667 7.33337 10.9652 7.33337 11.3334C7.33337 11.7016 7.63185 12 8.00004 12Z"/>
</g>
<defs>
<clipPath id="clip0">
<rect width="16" height="16"/>
</clipPath>
</defs>
</svg>
